<svg id="Layer_1" data-name="Layer 1" xmlns="http://www.w3.org/2000/svg" viewBox="0 0 174.47 182.84"><defs><style>.cls-1{fill:#231f20;}.cls-2{fill:none;}.cls-3{fill:#ed1c24;}</style></defs><title>logo_EALphx</title><path class="cls-1" d="M259.37,212.6a193.42,193.42,0,0,1-14.9,13.08c2.66,3,5.56,5.48,7.65,5.48,1.74,0,2.43.7,2.43,1.63,0,2.68-5.24,7.54-9.43,7.53-3.83,0-7-2.93-9.27-5.49a12,12,0,0,1-1.62-1.86,120.81,120.81,0,0,1-10.82,6.12,4,4,0,0,1-2.09.46c-2.9,0-6.38-2-6.38-3a.65.65,0,0,1,.35-.58,135.77,135.77,0,0,0,14.54-8.55,73.79,73.79,0,0,1-4.25-6.25c-14.84,10.49-28,17.89-35.73,17.87-2.9,0-4.53-1.64-4.52-5.12s3.17-9.4,4.34-12.53c-8.73,5.78-19.91,18-23.17,18-2,0-4.4-2.11-4.4-4.08a19.35,19.35,0,0,1,1.59-5.18c-11.37,6.19-25,11.52-34.35,11.74h-.46c-3.14,0-4.41-2.1-4.41-3.73,0-3,4.43-4.86,9.19-4.85,4.89-3.93,6.88-7.76,6.88-10.43,0-2-1.15-3.26-2.89-3.26-4.3,0-11.4,6.47-13.85,11.11l-4.09,7.65c-4.43,8.35-10.17,23-15.19,31.89a2.28,2.28,0,0,1-2,1.16c-2.33,0-5.22-3.38-5.21-6.29a3.62,3.62,0,0,1,.23-1.16c3.63-10.21,18.82-42.91,25.13-55.67.94-1.85,2.8-2.55,4.88-2.54,3,0,6.16,1.64,6.15,3.38a1.7,1.7,0,0,1-.23.7c-1.29,2.32-2.46,5.1-3.86,8.12,4.54-3.94,9.78-7.06,14.42-7,5.23,0,8.12,2.23,8.11,7.22,0,4.53-3.28,9.74-7.47,14.15a72.76,72.76,0,0,0,22.87-10.93c4-8.61,9.4-19.08,12.88-25.47,13.19-24,24.37-40.34,27.64-40.34,2.2,0,3.59,3.5,3.58,5.93,0,7-18.11,37.23-29,51-2.1,3.71-4.79,10-6.65,13.45,8.61-8.57,19.44-17.25,23.85-17.23,2.21,0,4.76,2.33,4.75,4.65,0,5.11-4.33,10.79-5.85,16.6,10.32-3.47,21-11.9,25.58-15.24a15,15,0,0,1,2.1-1.52c2.8-1.86,4.42-2.78,5.7-2.78,1.74,0,2.55,1.4,3.48,3.15a65.27,65.27,0,0,0,4.16,6.4c4.31-3.59,8.38-7.41,12.57-11.58a2.06,2.06,0,0,1,1.63-.58c2.33,0,5.69,2.46,5.68,4.08A1,1,0,0,1,259.37,212.6Z" transform="translate(-97.34 -88.58)"/><polygon class="cls-2" points="111.43 75.1 77.22 75.1 88.9 39.35 100.05 39.35 111.43 75.1"/><polygon class="cls-3" points="100.05 39.35 88.9 39.35 94.25 23.04 94.87 23.04 100.05 39.35"/><path class="cls-1" d="M194.83,88.58H189L161.48,194.88H127.89V142.81h32.48v-3.09H127.89v-48h34.65V88.58h-39.4V198h43.65l7-31.21h35.77L216.07,198h6.1Zm-20.28,75.09,11.68-35.75,5.35-16.31h.62l5.18,16.31,11.38,35.75Z" transform="translate(-97.34 -88.58)"/><polygon class="cls-1" points="133.6 106.3 133.6 0 128.85 0 128.85 109.39 164.24 109.39 164.24 106.3 133.6 106.3"/><path class="cls-3" d="M271.81,231.33c0,.06,0,.12,0,.18a11.66,11.66,0,0,0-.13-1.63A8.59,8.59,0,0,1,271.81,231.33Z" transform="translate(-97.34 -88.58)"/><path class="cls-3" d="M256.35,230.13c0-.14,0-.28.07-.42C256.39,229.85,256.37,230,256.35,230.13Z" transform="translate(-97.34 -88.58)"/><path class="cls-3" d="M256.3,230.41s0,0,0,0,0-.21,0-.31C256.34,230.23,256.31,230.32,256.3,230.41Z" transform="translate(-97.34 -88.58)"/><path class="cls-3" d="M271.8,231.51s0,.07,0,.1c0,.22,0,.44-.05.65s0,.26,0,.38a4.64,4.64,0,0,1-.11.51l0,.12a7.77,7.77,0,0,1-15.3-1.94,8.7,8.7,0,0,1,0-.89c0-.1,0-.21.05-.31s0-.28.07-.42c1.1-6.21,7.61-11.56,7.61-11.56a12.48,12.48,0,0,0-2,5.68c0,1.71.74,3.83,3.12,3.83a3.37,3.37,0,0,0,3.17-2.83A5.57,5.57,0,0,0,268,222a17.7,17.7,0,0,1,3.68,7.92A11.66,11.66,0,0,1,271.8,231.51Z" transform="translate(-97.34 -88.58)"/></svg>