<svg id="Layer_10" data-name="Layer 10" xmlns="http://www.w3.org/2000/svg" viewBox="0 0 445.66 185.62"><defs><style>.cls-1{fill:#231f20;}.cls-2{fill:none;stroke:#231f20;stroke-width:3.39px;}</style></defs><title>logo_djfenix</title><path class="cls-1" d="M463.87,290v62.79c1.63-.1,3-0.19,4.4-0.19,21.72,0,32.54,13,32.54,26.22S490,405,468.37,405c-2.11,0-4.88-.1-7.37-0.29V290h2.87Zm34.07,88.83c0-11.67-9.86-23.35-29.67-23.35-1.34,0-2.87.09-4.4,0.19V402c1.63,0.1,3.16.1,4.5,0.1,19.71,0,29.57-11.58,29.57-23.26" transform="translate(-461 -290)"/><path class="cls-1" d="M580.56,355.28c-5.84,0-12.06,2.11-16.17,5.84v43.55h-2.87v-51.3h2.87v4.21a27.81,27.81,0,0,1,16.17-5.17v2.87Z" transform="translate(-461 -290)"/><path class="cls-1" d="M611,352.41A26.61,26.61,0,1,1,584.39,379,26.67,26.67,0,0,1,611,352.41m0,50.34A23.74,23.74,0,1,0,587.26,379,23.73,23.73,0,0,0,611,402.75" transform="translate(-461 -290)"/><path class="cls-1" d="M651.57,353.37v4.21a27.8,27.8,0,0,1,16.18-5.17c8.52,0,16.65,4.31,19.81,12.82a16.41,16.41,0,0,1,1.15,6.7v32.73h-2.87V371.94c0-10.91-9.48-16.65-18.09-16.65-5.84,0-12.06,2.11-16.18,5.84v43.55H648.7v-51.3h2.87Z" transform="translate(-461 -290)"/><path class="cls-1" d="M700.41,353.37H707v-11c0-12.15,7.94-19.43,17.32-19.43,6.51,0,10,2.1,14.26,6l-1.91,2.11c-4-3.73-7-5.26-12.35-5.26-7.85,0-14.45,6.13-14.45,16.56v11h17.38v2.87H709.85V469.47H707V356.24h-6.57v-2.87Z" transform="translate(-461 -290)"/><path class="cls-2" d="M700.41,353.37H707v-11c0-12.15,7.94-19.43,17.32-19.43,6.51,0,10,2.1,14.26,6l-1.91,2.11c-4-3.73-7-5.26-12.35-5.26-7.85,0-14.45,6.13-14.45,16.56v11h17.38v2.87H709.85V469.47H707V356.24h-6.57v-2.87Z" transform="translate(-461 -290)"/><path class="cls-1" d="M770.37,404.67c-2.1.19-4.21,0.39-6.13,0.39-21.25,0-32.35-12.92-32.35-26.23,0-19.91,14.07-26.41,22.78-26.41,13.59,0,21.44,10.53,21.44,24.12H734.86a18.57,18.57,0,0,0-.1,2.3c0,11.39,9.57,23.26,29.76,23.26,1.82,0,3.83-.09,5.84-0.29v2.87Zm-35.22-31H773c0-8-6.32-18.37-18.38-18.37-8.23,0-17.52,5.93-19.52,18.37" transform="translate(-461 -290)"/><path class="cls-2" d="M770.37,404.67c-2.1.19-4.21,0.39-6.13,0.39-21.25,0-32.35-12.92-32.35-26.23,0-19.91,14.07-26.41,22.78-26.41,13.59,0,21.44,10.53,21.44,24.12H734.86a18.57,18.57,0,0,0-.1,2.3c0,11.39,9.57,23.26,29.76,23.26,1.82,0,3.83-.09,5.84-0.29v2.87Zm-35.22-31H773c0-8-6.32-18.37-18.38-18.37C746.44,355.28,737.15,361.22,735.14,373.66Z" transform="translate(-461 -290)"/><path class="cls-1" d="M792.34,353.37v4.21a27.81,27.81,0,0,1,16.17-5.17c8.52,0,16.65,4.31,19.81,12.82a16.45,16.45,0,0,1,1.15,6.7v32.73H826.6V371.94c0-10.91-9.47-16.65-18.09-16.65-5.84,0-12.06,2.11-16.17,5.84v43.55h-2.87v-51.3h2.87Z" transform="translate(-461 -290)"/><path class="cls-2" d="M792.34,353.37v4.21a27.81,27.81,0,0,1,16.17-5.17c8.52,0,16.65,4.31,19.81,12.82a16.45,16.45,0,0,1,1.15,6.7v32.73H826.6V371.94c0-10.91-9.47-16.65-18.09-16.65-5.84,0-12.06,2.11-16.17,5.84v43.55h-2.87v-51.3h2.87Z" transform="translate(-461 -290)"/><rect class="cls-1" x="383.17" y="63.37" width="2.87" height="51.3"/><rect class="cls-2" x="383.17" y="63.37" width="2.87" height="51.3"/><polygon class="cls-1" points="399.79 113.81 419.7 89.02 399.79 64.23 402.09 62.51 421.51 86.72 440.94 62.51 443.24 64.23 423.33 89.02 443.24 113.81 440.94 115.53 421.51 91.41 402.09 115.53 399.79 113.81"/><polygon class="cls-2" points="399.79 113.81 419.7 89.02 399.79 64.23 402.09 62.51 421.51 86.72 440.94 62.51 443.24 64.23 423.33 89.02 443.24 113.81 440.94 115.53 421.51 91.41 402.09 115.53 399.79 113.81"/><polygon class="cls-1" points="69.1 115 60.77 138.22 22.71 168.11 19.84 167.46 58.96 136.45 66.1 115.85 44.73 63.44 47.94 63.43 67.38 112.28 85.21 63.3 88.27 63.3 69.1 115"/><polyline class="cls-1" points="1.85 176.75 1.95 180.53 7.89 185.62 8 181.85"/><polygon class="cls-1" points="2.21 175.46 8.49 180.51 27.16 167.88 20.88 162.84 2.21 175.46"/><path class="cls-1" d="M470.65,469.74s2.11-1.29,3.5-.08,6.62,4.45,6.62,4.45,4.14-1.67,12.91-7.93c0,0,2.11-1.41,1.85-2.24-0.1-.32-0.91-0.26-3.39.83-3.78,1.66-8.07,5-11.06,6.08,0,0-1.72-.31-4.49-3.92,0,0,.12-1.3,2.77-3.09" transform="translate(-461 -290)"/><path class="cls-1" d="M848,340.07a2.39,2.39,0,1,1-2.39-2.39,2.39,2.39,0,0,1,2.39,2.39" transform="translate(-461 -290)"/><circle class="cls-2" cx="384.61" cy="50.07" r="2.39"/><path d="M470.36,471.74l-0.11,3.66L475,472a15.23,15.23,0,0,0-2.57-1.67Z" transform="translate(-461 -290)"/><path d="M488.7,459.42L478,466.55a8.65,8.65,0,0,0,1.61,2.19l8.2-5.71Z" transform="translate(-461 -290)"/></svg>