<?xml version="1.0" encoding="utf-8"?>
<!-- Generator: Adobe Illustrator 21.0.0, SVG Export Plug-In . SVG Version: 6.00 Build 0)  -->
<!DOCTYPE svg PUBLIC "-//W3C//DTD SVG 1.1//EN" "http://www.w3.org/Graphics/SVG/1.1/DTD/svg11.dtd">
<svg version="1.1" id="Veme_logo" xmlns="http://www.w3.org/2000/svg" xmlns:xlink="http://www.w3.org/1999/xlink" x="0px" y="0px"
	 viewBox="0 0 596.8 345.1" style="enable-background:new 0 0 596.8 345.1;" xml:space="preserve">
<style type="text/css">
	.st0{fill:#00FFFF;}
	.st1{stroke:#00FFFF;stroke-width:3;stroke-miterlimit:10;}
</style>
<title>logo_VemePhxblk</title>
<rect x="19.7" class="st0" width="97.2" height="21.4"/>
<polyline class="st1" points="230.9,340.1 1.5,340.1 1.5,21.4 595.2,21.4 595.2,340.1 261.5,340.1 "/>
<polygon class="st0" points="367,316.8 367,322 314.4,322 314.4,230.4 364.5,230.4 364.5,235.6 320,235.6 320,273.2 356.6,273.2 
	356.6,278.4 320,278.4 320,316.8 "/>
<path class="st0" d="M276.5,307.5l37.7-27.6c-0.7,16.8-7.7,32.8-19.5,44.7l-38.4-5.1c7.5-1.9,14.4-5.9,19.8-11.6
	C276.2,307.8,276.4,307.6,276.5,307.5z"/>
<path class="st0" d="M296.2,230.4c11.6,12.5,18.1,29,18.2,46.1L282,300.1c4.1-7,6.4-15,6.5-23.1l0,0L296.2,230.4z"/>
<path class="st0" d="M269,215.5l3.3,5c-2.9,2.6-6.2,4.7-9.8,6.3l13.2,18c6,5.9,10.1,13.4,11.9,21.7l6.3-38.5
	c-12-11.8-28-18.7-44.8-19.4l9.9,13.5C262.7,220.5,266.1,218.3,269,215.5z"/>
<path class="st0" d="M259.8,227.9l8,10.9c-6.5-4-14-6.1-21.6-6.1l-46.7-5.9c5.1-4.8,11-8.7,17.3-11.7c0,0,0,0,0,0
	c1.9-0.9,3.9-1.7,5.9-2.5c7.3-2.6,15-4,22.8-4.1l10.7,14.5L259.8,227.9z"/>
<path class="st0" d="M235.5,234.1c-7.4,1.9-14.1,5.7-19.5,11.1c-0.2,0.2-0.4,0.4-0.6,0.6L178,273.7v3.4l31.7-23.6
	c-4,6.8-6.1,14.6-6.1,22.5l-7.6,47.3c-10.4-11.2-16.7-25.5-18-40.7V322h-5.6v-43.3h-58.1V322h-5.6v-91.6h5.6v43.1h58.1v-43.1h5.6
	v41.3c1.2-16,7.9-31,19.1-42.5L235.5,234.1z"/>
<path class="st0" d="M215.4,307.2c-5.4-5.9-9-13.1-10.7-20.9l-6.3,39.4c12,11.8,28,18.7,44.8,19.3L215.4,307.2L215.4,307.2
	L215.4,307.2z"/>
<path class="st0" d="M224,314.5l22.5,30.6c16.9-0.1,33.2-6.5,45.7-18l-46.4-6.2C238.2,320.8,230.6,318.6,224,314.5z"/>
<polygon class="st0" points="204.7,286.3 198.4,325.7 198.4,325.7 204.7,286.3 "/>
<path class="st0" d="M223.6,95.3c0-27.1-15.2-51.1-45.8-51.1c-28.7,0-54.5,21.1-54.5,59c0,35.7,26.2,58.6,57.9,58.6
	c2.4,0,4.8-0.2,7.2-0.5v31c0,16.6-11.3,32.1-29,32.1c-15.9,0-17.4-11.6-17.4-23.9v-42.7h-6v44.9c0,18,6,27.6,23.4,27.6
	c17.1,0,26.9-13.3,29.3-20h0.3c-0.4,1.9-0.6,3.9-0.6,5.8v12.4h5.9v-68.3c10-2.3,19.2-7.1,26.8-13.9l-5.1-7.8
	c-9.4,9-21.8,14-34.8,14.1c-26,0-48-18.6-48-51.1h90C223.2,101.4,223.6,97.8,223.6,95.3z M133.9,92.7c4.1-26.3,23.1-39.7,43.8-39.7
	c18.6,0,35,12.3,36.1,39.7H133.9z"/>
<path class="st0" d="M376.4,44.2c-19.3,0-36.3,14.8-42.6,30.5h-0.5c-2.5-20-13-30.5-35.5-30.5c-17.5,0-37.5,14.8-43.1,31.6h-0.5
	c0.6-3,0.9-6.1,0.9-9.2V46.9h-9.4v109.2c-0.3,0-0.6,0-0.9,0c-18.1,0-34.4,13.3-34.4,37.2c-0.1,7.7,2.1,15.3,6.4,21.7
	c1.9-0.9,3.9-1.7,5.9-2.5c-3.8-5.2-6.1-12.1-6.1-20.4h56.8c0.2-1.3,0.3-2.5,0.3-3.8c0-13.7-6.2-26.1-18.5-30.5v-53.5
	c-0.1-5.1,0.5-10.3,1.8-15.2c5.2-18.6,20.9-36.1,40.8-36.1c24.7,0,27.3,19.1,27.3,38.4v65.3c-1.9-0.3-3.9-0.5-5.9-0.5
	c-18.1,0-34.4,13.3-34.4,37.2c0,22.5,16.6,36.9,36.5,36.9c9.3-0.1,18.3-3.6,25.2-9.8l-3.3-5c-5.9,5.7-13.8,8.8-21.9,8.9
	c-16.4,0-30.3-11.8-30.3-32.3H348c0.2-1.3,0.3-2.5,0.3-3.8c0-12.5-5.2-24-15.5-29.2h2v-54.7c-0.1-5.8,0.6-11.7,2.2-17.3
	c4.9-17.5,20.9-34.1,39.5-34.1c23.8,0,28,17.3,28,38.4v32.2h9.4V87.9C413.9,61.2,405.4,44.2,376.4,44.2z M267.5,186.6h-50.4
	c2.5-16.6,14.6-25.1,27.6-25.1C256.5,161.5,266.8,169.4,267.5,186.6z M342,186.6h-50.4c2.5-16.6,14.6-25.1,27.6-25.1
	C331,161.5,341.3,169.4,342,186.6L342,186.6z"/>
<path class="st0" d="M534.8,95.3c0-27.1-15.2-51.1-45.8-51.1c-28.7,0-54.5,21.1-54.5,59c0,25.4,13.3,44.3,32.5,53.1
	c-15.4,1.8-25.6,13.6-27.8,19.7h-0.3c0.4-1.9,0.6-3.9,0.6-5.8v-12.5h-6v70.7h6V194c-0.1-3.2,0.3-6.5,1.1-9.6
	c3.5-13.2,17.2-22.5,30.5-22.5c15.8,0,17.4,11.6,17.4,23.9v137.8h5.9V183.6c0-9.6-1.7-17.3-6.5-22.1c1.5,0.1,3,0.2,4.5,0.2
	c24.2,0,40-15.5,40-15.5l-5.2-7.8c-9.4,9-21.8,14-34.8,14.1c-26,0-48-18.6-48-51.1h90C534.7,99.4,534.8,97.4,534.8,95.3z
	 M445.1,92.7c4-26.3,23.1-39.7,43.8-39.7c18.6,0,35,12.3,36.1,39.7H445.1z"/>
<path class="st0" d="M562.2,101.6c8.3,0,13.5-6.1,13.5-13.9c0-8.3-5.2-14.1-13.2-14.1c-7.6,0-13.2,5.8-13.2,14.1
	C549.2,95.5,554.6,101.6,562.2,101.6z"/>
<path class="st0" d="M575.7,137.5c0.1,4.2-1.7,8.3-4.9,11v-0.9h-6v3.5c-0.9,0.1-1.7,0.2-2.6,0.2c-1.8,0-3.5-0.3-5.1-1
	c-0.8-0.5-1.6-1-2.5-1.4c-3.5-2.8-5.5-7-5.3-11.5c0-8.3,5.6-14.1,13.2-14.1C570.5,123.3,575.7,129.1,575.7,137.5z"/>
<path class="st0" d="M124.9,178.4c0-25-17.2-45-40.2-49.7l32.1-81.8v0h-9.9l-31.8,80.9h-0.8c-4.1,0-8.3,0.5-12.3,1.6L29.8,46.9H19.7
	l33.7,85.5l0,0c-17,7.9-28.8,25.3-28.8,46c0,24.3,15.9,44.6,37.5,50.2H31.2V322h5.7v-38.7h24.9c16.3,0,28.4-10.5,28.4-27.5
	c0-13.1-7.3-22.3-18.2-25.7c0.8,0,1.5,0.1,2.3,0.1c12.4,0.2,24.3-4.3,33.5-12.6l12.6,13l4-3.8l-12.7-13.1
	C120.3,203.9,124.9,191.3,124.9,178.4z M84.2,255.9c0,14-9.1,22.1-22.7,22.1v0H36.9v-44h24.7C75.2,234,84.2,241.9,84.2,255.9z
	 M107.8,209.4l-12.6-13l-4,3.8l12.7,13.2c-7.8,7-19.1,11-29.5,11c-24.4,0-43.4-20.2-43.4-46c0-18.4,9.9-33.6,24.5-40.6l8.4,21.2
	l4.7,11.5l4.3-11.5l9.7-24.8l0,0c20.8,3.7,36,21.4,36,44.1C118.6,189.6,114.8,200.6,107.8,209.4z"/>
<path class="st0" d="M396.8,163.5v-5.9c-1.4-0.3-2.7-0.4-4.1-0.4c-11.2,0-19.1,8.9-22.7,19.8h-0.3c0.4-1.9,0.6-3.9,0.6-5.8v-13.5
	h-5.9v70.7h5.9v-30.5c0-5,0.7-10,2.1-14.9c3.1-10.5,10-19.8,21.1-19.8C394.6,163.3,395.7,163.4,396.8,163.5z"/>
<rect x="406.3" y="157.7" class="st0" width="7.3" height="70.8"/>
<rect x="404.6" y="129.4" class="st0" width="9.2" height="10.3"/>
<path class="st0" d="M567.7,242.7c-0.8,1.6-1.7,3.1-2.8,4.5L567.7,242.7z"/>
<path class="st0" d="M453.7,302.3c0,4.6,0.7,11.5,0.7,11.5h-0.3c0,0-4.5-7.3-7.5-11.5l-52.2-71.9h-5.2V322h5.6v-71.9
	c0-4.6-0.7-11.5-0.7-11.5h0.3c0,0,4.5,7.3,7.5,11.5l52.2,71.8h5.2v-91.6h-5.6L453.7,302.3L453.7,302.3z"/>
<path class="st0" d="M548.7,273.6l16.2-26.4l2.8-4.5l7.5-12.3h-4.6c0-0.8,0.1-1.5,0.1-2.3v-70.4h-6v3.5c-0.9,0.2-1.7,0.2-2.6,0.2
	c-1.8,0-3.5-0.3-5.1-1c-0.8-0.5-1.6-1-2.5-1.4c-4.5-2.1-9.3-3.1-14.3-3c-18.4,0-30.5,13.9-30.5,36s13.1,36.4,31.5,36.4
	c11.8,0,19.5-5.8,23.8-14.4h0.3c-0.4,1.9-0.6,3.9-0.6,5.8v8.2c0,17.1-11.7,24.4-26.9,24.4c-1.2,0-2.3-0.1-3.5-0.2l-13.1-21.9h-6.8
	l12.4,20.3l4.2,6.9l9.7,15.9L511.2,322h6.7l20.9-34.7c2.8-4.6,5.5-10,5.5-10h0.3c0,0,3.2,5.2,5.9,9.8l21.2,34.8h6.7L548.7,273.6z
	 M541.8,222.7c-15.2,0-25.6-11.6-25.6-30.7s9.1-30.2,24.2-30.2c13.9,0,24.6,7.4,24.6,30.2S554.2,222.7,541.8,222.7z"/>
</svg>
