<svg id="Jeanna_Logo" data-name="Jeanna Logo" xmlns="http://www.w3.org/2000/svg" viewBox="0 0 593.74 236.13"><defs><style>.cls-1{fill:none;stroke:#231f20;stroke-miterlimit:10;stroke-width:3.68px;}.cls-2,.cls-3{fill:#231f20;}.cls-2{opacity:0.2;}</style></defs><title>logo_DelfinArt</title><line class="cls-1" x1="347.77" y1="111.42" x2="589.53" y2="111.42"/><path class="cls-2" d="M390.21,503.49v-4c1.76,0,3.37.05,5,0,2.78-.11,4.08-1.29,4.44-4a23.29,23.29,0,0,0,.18-3q0-44.15,0-88.3c0-.7,0-1.4,0-2.09-0.29-3.67-1.5-4.88-5.21-5.13-1.37-.09-2.76,0-4.33,0V393h2.4c10.07,0,20.14-.16,30.21,0,13.59,0.27,26.8,2.48,38.75,9.47,15.62,9.14,23.57,22.94,24.18,41,0.32,9.5-.6,18.86-4.19,27.77-6,14.88-17.43,23.58-32.36,28.23-9.46,2.95-19.21,4-29.05,4.14-9.45.15-18.9,0-28.35,0C391.3,503.64,390.77,503.55,390.21,503.49Zm20-55.32q0,22.67,0,45.33c0,4,1.75,5.86,5.7,6a77.63,77.63,0,0,0,23.46-2.44c13.14-3.59,23.94-10.44,29.32-23.49,5.68-13.79,6.71-28.19,2.4-42.5-8.42-27.9-34.33-35.67-56-33.77-3.73.33-4.87,2.05-4.87,5.76Q410.24,425.62,410.25,448.17Z" transform="translate(-386 -267.56)"/><path class="cls-2" d="M595.58,477.17l2.88,1.18-7.07,25.17H512.5v-4c1.76,0,3.37,0,5,0,2.78-.11,4.09-1.29,4.44-4a23.26,23.26,0,0,0,.18-3q0-44.16,0-88.32a23.78,23.78,0,0,0-.13-2.78c-0.34-2.9-1.34-4-4.21-4.29-1.67-.19-3.37-0.2-5.23-0.3V393H515c24,0,48,0,72.05-.05,1.91,0,2.68.57,3.21,2.35,1.8,6,3.78,11.92,5.68,17.87,0.18,0.57.31,1.16,0.5,1.86l-3,1.23c-1.92-3-3.64-6.07-5.65-8.89-5-7-11.54-10.82-20.47-10.52-9.21.32-18.44,0.06-27.66,0.08a16.89,16.89,0,0,0-3.69.33,4,4,0,0,0-3.39,4.11q0,20,0,40a3.41,3.41,0,0,0,.25.71h30.75c8.56,0,12.64-4.07,12.75-12.66,0-1.23,0-2.45,0-3.88h3.91v37.93h-3.64a71.33,71.33,0,0,0-.79-7.23c-1.54-7.4-5.09-10.18-12.64-10.18H532.53v2.75q0,22.08,0,44.16c0,5.46,1.14,6.58,6.71,6.58,9.3,0,18.6-.14,27.89,0,9.59,0.19,16.89-3.93,22.28-11.53C591.76,484.74,593.45,481,595.58,477.17Z" transform="translate(-386 -267.56)"/><path class="cls-2" d="M906.23,499.54v3.95H884.3v-3.95c1.34,0,2.7,0,4.06,0,3.07-.08,4.31-1.17,4.78-4.23a18.37,18.37,0,0,0,.17-2.77q0-44.17,0-88.34c0-.7,0-1.4,0-2.09-0.36-3.69-1.57-4.9-5.26-5.14-1.38-.09-2.77,0-4.3,0V393c3.32,0,6.76.4,10.07-.09,6-.87,9.3,1.62,12.64,6.51,19.21,28.11,38.82,55.94,58.27,83.88a11.88,11.88,0,0,1,1,2.28l1.24-.92v-2.44q0-39.29,0-78.57c0-5.5-1.14-6.65-6.63-6.74-0.68,0-1.37-.07-2.18-0.11v-3.65h21.66v3.78c-1.09,0-2.21-.06-3.32,0-4.24.29-5.46,1.58-5.46,5.8q0,32.31,0,64.63,0,16.74,0,33.48c0,0.84,0,1.67,0,2.55-2.54.6-4.16,0.22-5.75-2.09Q932.49,454.09,899.53,407a16.78,16.78,0,0,0-1.72-1.83l-0.57.26c0,0.81-.1,1.61-0.1,2.42q0,42.66,0,85.32c0,5,1.3,6.32,6.31,6.34h2.78Z" transform="translate(-386 -267.56)"/><path class="cls-2" d="M789.62,428h3.83v37.37H790a84.48,84.48,0,0,0-1.3-9.14c-1.55-6.2-5.18-8.82-11.6-8.82h-33.9c0,1,0,1.7,0,2.45q0,22,0,43.94c0,4.3,1.4,5.72,5.67,5.75,1.45,0,2.91,0,4.48,0v4h-30.2v-4c1.76,0,3.37,0,5,0,2.78-.11,4.09-1.29,4.44-4a23.28,23.28,0,0,0,.18-3q0-44.17,0-88.34a23.54,23.54,0,0,0-.14-2.78c-0.34-2.88-1.35-3.94-4.24-4.27-1.67-.19-3.37-0.2-5.21-0.3V393h2.48c25,0,50.06,0,75.09-.05,2.1,0,2.87.67,3.47,2.62,2.15,6.9,4.53,13.73,6.87,20.73l-2.87,1.17c-2.8-3.83-5.27-7.77-8.29-11.22A26.41,26.41,0,0,0,779,396.91c-9.53.07-19.06,0-28.59,0a18.23,18.23,0,0,0-3.69.31c-2.11.45-3.49,1.76-3.49,4,0,13.94,0,27.89,0,42a11.25,11.25,0,0,0,1.63.24c11.23,0,22.47,0,33.7-.21,6.91-.1,10.88-4.29,11.11-11.33C789.66,430.69,789.62,429.45,789.62,428Z" transform="translate(-386 -267.56)"/><path class="cls-2" d="M697.38,503.54H617.83v-4c1.93,0,3.77,0,5.6,0,2.88-.09,4.17-1.31,4.54-4.19a18.35,18.35,0,0,0,.14-2.31q0-44.63,0-89.26a24.87,24.87,0,0,0-.21-3,3.76,3.76,0,0,0-3.63-3.58c-1.84-.2-3.69-0.25-5.72-0.38v-3.59h30.14v3.59c-1.82.09-3.65,0.09-5.45,0.29-3.54.41-4.68,1.75-4.69,5.32q0,45.91,0,91.82c0,3.71,1.49,5.29,5.18,5.3,10.85,0,21.7.27,32.54-.07,8.15-.25,14.4-4.45,18.59-11.37,2.06-3.39,3.57-7.12,5.41-10.88l2.91,1.15Z" transform="translate(-386 -267.56)"/><path class="cls-2" d="M828.9,396.93v-3.78h32.22v3.93c-2.17,0-4.26-.16-6.31,0-3.21.32-4.32,1.57-4.61,4.76-0.06.69,0,1.39,0,2.09q0,44.4,0,88.8c0,5.57,1.22,6.78,6.84,6.78h4.09v3.93H828.93v-3.94c2.08,0,4.07,0,6.06,0,3.15-.08,4.67-1.57,4.85-4.71,0-.54,0-1.08,0-1.63q0-44.86,0-89.73c0-5.15-1.31-6.49-6.41-6.54C832,396.92,830.53,396.93,828.9,396.93Z" transform="translate(-386 -267.56)"/><path class="cls-3" d="M386,500.07v-4c1.76,0,3.37.05,5,0,2.78-.11,4.08-1.29,4.44-4a23.29,23.29,0,0,0,.18-3q0-44.15,0-88.3c0-.7,0-1.4,0-2.09-0.29-3.67-1.5-4.88-5.21-5.13-1.37-.09-2.76,0-4.33,0v-3.95h2.4c10.07,0,20.14-.16,30.21,0,13.59,0.27,26.8,2.48,38.75,9.47,15.62,9.14,23.57,22.94,24.18,41,0.32,9.5-.6,18.86-4.19,27.77-6,14.88-17.43,23.58-32.36,28.23-9.46,2.95-19.21,4-29.05,4.14-9.45.15-18.9,0-28.35,0C387.08,500.23,386.56,500.13,386,500.07Zm20-55.32q0,22.67,0,45.33c0,4,1.75,5.86,5.7,6a77.63,77.63,0,0,0,23.46-2.44c13.14-3.59,23.94-10.44,29.32-23.49,5.68-13.79,6.71-28.19,2.4-42.5-8.42-27.9-34.33-35.67-56-33.77-3.73.33-4.87,2.05-4.87,5.76Q406,422.2,406,444.75Z" transform="translate(-386 -267.56)"/><path class="cls-3" d="M591.37,473.75l2.88,1.18-7.07,25.17H508.29v-4c1.76,0,3.37,0,5,0,2.78-.11,4.09-1.29,4.44-4a23.26,23.26,0,0,0,.18-3q0-44.16,0-88.32a23.78,23.78,0,0,0-.13-2.78c-0.34-2.9-1.34-4-4.21-4.29-1.67-.19-3.37-0.2-5.23-0.3v-3.79h2.44c24,0,48,0,72.05-.05,1.91,0,2.68.57,3.21,2.35,1.8,6,3.78,11.92,5.68,17.87,0.18,0.57.31,1.16,0.5,1.86l-3,1.23c-1.92-3-3.64-6.07-5.65-8.89-5-7-11.54-10.82-20.47-10.52-9.21.32-18.44,0.06-27.66,0.08a16.89,16.89,0,0,0-3.69.33,4,4,0,0,0-3.39,4.11q0,20,0,40a3.41,3.41,0,0,0,.25.71h30.75c8.56,0,12.64-4.07,12.75-12.66,0-1.23,0-2.45,0-3.88H576V460h-3.64a71.33,71.33,0,0,0-.79-7.23c-1.54-7.4-5.09-10.18-12.64-10.18H528.32v2.75q0,22.08,0,44.16c0,5.46,1.14,6.58,6.71,6.58,9.3,0,18.6-.14,27.89,0,9.59,0.19,16.89-3.93,22.28-11.53C587.54,481.33,589.24,477.56,591.37,473.75Z" transform="translate(-386 -267.56)"/><path class="cls-3" d="M902,496.12v3.95H880.08v-3.95c1.34,0,2.7,0,4.06,0,3.07-.08,4.31-1.17,4.78-4.23a18.37,18.37,0,0,0,.17-2.77q0-44.17,0-88.34c0-.7,0-1.4,0-2.09-0.36-3.69-1.57-4.9-5.26-5.14-1.38-.09-2.77,0-4.3,0v-3.94c3.32,0,6.76.4,10.07-.09,6-.87,9.3,1.62,12.64,6.51C921.41,424.12,941,452,960.47,479.9a11.88,11.88,0,0,1,1,2.28l1.24-.92v-2.44q0-39.29,0-78.57c0-5.5-1.14-6.65-6.63-6.74-0.68,0-1.37-.07-2.18-0.11v-3.65h21.66v3.78c-1.09,0-2.21-.06-3.32,0-4.24.29-5.46,1.58-5.46,5.8q0,32.31,0,64.63,0,16.74,0,33.48c0,0.84,0,1.67,0,2.55-2.54.6-4.16,0.22-5.75-2.09q-32.71-47.23-65.67-94.29a16.78,16.78,0,0,0-1.72-1.83L893,402c0,0.81-.1,1.61-0.1,2.42q0,42.66,0,85.32c0,5,1.3,6.32,6.31,6.34H902Z" transform="translate(-386 -267.56)"/><path class="cls-3" d="M785.41,424.57h3.83v37.37h-3.49a84.48,84.48,0,0,0-1.3-9.14c-1.55-6.2-5.18-8.82-11.6-8.82H739c0,1,0,1.7,0,2.45q0,22,0,43.94c0,4.3,1.4,5.72,5.67,5.75,1.45,0,2.91,0,4.48,0v4h-30.2v-4c1.76,0,3.37,0,5,0,2.78-.11,4.09-1.29,4.44-4a23.28,23.28,0,0,0,.18-3q0-44.17,0-88.34a23.54,23.54,0,0,0-.14-2.78c-0.34-2.88-1.35-3.94-4.24-4.27-1.67-.19-3.37-0.2-5.21-0.3v-3.79h2.48c25,0,50.06,0,75.09-.05,2.1,0,2.87.67,3.47,2.62,2.15,6.9,4.53,13.73,6.87,20.73L804,414.05c-2.8-3.83-5.27-7.77-8.29-11.22a26.41,26.41,0,0,0-20.92-9.33c-9.53.07-19.06,0-28.59,0a18.23,18.23,0,0,0-3.69.31c-2.11.45-3.49,1.76-3.49,4,0,13.94,0,27.89,0,42a11.25,11.25,0,0,0,1.63.24c11.23,0,22.47,0,33.7-.21,6.91-.1,10.88-4.29,11.11-11.33C785.44,427.27,785.41,426,785.41,424.57Z" transform="translate(-386 -267.56)"/><path class="cls-3" d="M693.16,500.12H613.61v-4c1.93,0,3.77,0,5.6,0,2.88-.09,4.17-1.31,4.54-4.19a18.35,18.35,0,0,0,.14-2.31q0-44.63,0-89.26a24.87,24.87,0,0,0-.21-3,3.76,3.76,0,0,0-3.63-3.58c-1.84-.2-3.69-0.25-5.72-0.38v-3.59h30.14v3.59c-1.82.09-3.65,0.09-5.45,0.29-3.54.41-4.68,1.75-4.69,5.32q0,45.91,0,91.82c0,3.71,1.49,5.29,5.18,5.3,10.85,0,21.7.27,32.54-.07,8.15-.25,14.4-4.45,18.59-11.37,2.06-3.39,3.57-7.12,5.41-10.88l2.91,1.15Z" transform="translate(-386 -267.56)"/><path class="cls-3" d="M824.68,393.51v-3.78H856.9v3.93c-2.17,0-4.26-.16-6.31,0-3.21.32-4.32,1.57-4.61,4.76-0.06.69,0,1.39,0,2.09q0,44.4,0,88.8c0,5.57,1.22,6.78,6.84,6.78h4.09v3.93H824.71v-3.94c2.08,0,4.07,0,6.06,0,3.15-.08,4.67-1.57,4.85-4.71,0-.54,0-1.08,0-1.63q0-44.86,0-89.73c0-5.15-1.31-6.49-6.41-6.54C827.77,393.5,826.32,393.51,824.68,393.51Z" transform="translate(-386 -267.56)"/><path class="cls-3" d="M603.19,380.23a47.1,47.1,0,0,1-5.76,3.69,11.84,11.84,0,0,1-5.15,1.05,5.4,5.4,0,0,1-5.21-6.73,31,31,0,0,1,13.26-20,13.51,13.51,0,0,1,2.28-1.21c4.12-1.78,6.74-.07,6.77,4.38a0.71,0.71,0,0,0,.35-0.1c0.88-1.45,2-2.47,3.74-1.5s1.43,2.64.62,4.16c-1.33,2.52-2.82,5-4,7.53a36.41,36.41,0,0,0-2,6c-0.15.56,0.36,1.29,0.57,1.95a4.88,4.88,0,0,0,1.66-.86c2.25-2.77,4.49-5.56,6.59-8.45s3.92-5.82,6-8.68a7.73,7.73,0,0,1,2.52-2.47,4.06,4.06,0,0,1,3.23-.32,3.89,3.89,0,0,1,1.75,2.93,42.08,42.08,0,0,1-1.24,6.8,28.05,28.05,0,0,0-.85,4.94c0.29-.46.59-0.91,0.88-1.37,1.45-2.37,2.8-4.81,4.39-7.08a8.65,8.65,0,0,1,3.13-3,5.18,5.18,0,0,1,4-.2c0.78,0.41,1.19,2.29,1.09,3.46-0.17,2-1,4-1.31,6-0.32,1.78-.42,3.6-0.61,5.4,0.11,0.4.17,0.67,0.69,0.29,1.08-1.51,2.24-3,3.22-4.53,2-3.14,3.63-6.49,5.84-9.45a44.09,44.09,0,0,1,6.27-6.29c1.38-1.22,3.17-1.88,5-.85s1.68,2.71,1.57,4.41c-0.06.9-.12,1.79-0.2,3,1.27-1.41,2.23-2.64,3.36-3.69s2.65-2.07,4.3-1.31,2,2.45,1.85,4.24a29.27,29.27,0,0,0,1.92,12.46c0.86,2.29,2.08,3.09,4.6,3.34-1-4.07.94-7.35,3-10.46A130.4,130.4,0,0,1,689.76,356a5.47,5.47,0,0,1,8.29-.66c2,1.79,2.19,4.14,1.69,6.6-0.78,3.82-1.66,7.63-2.39,11.46-0.67,3.52.44,5.16,3.91,6.19,5.75,1.7,11.45.86,17.05-.61,15-4,28.67-10.63,39.75-21.79,6.39-6.44,11.26-13.85,13.19-22.93,0.56-2.62.19-4.85-1.74-6.74-0.72-.71-1.42-1.58-0.34-2.26a2.54,2.54,0,0,1,2.34.54,14.88,14.88,0,0,1,3.89,8.94c0.67,7-1.9,13.16-5.38,19-6.29,10.51-15.36,18.09-25.9,24.07-9.66,5.48-19.92,9.35-31,10.56a38.86,38.86,0,0,1-11.81-.69c-6-1.22-7.86-3.21-10.79-9.27-2,1.3-3.86,2.77-5.94,3.88-7.14,3.82-14.15,1-16.54-6.75-0.9-2.92-1.32-6-2-9.31-1,1.88-1.88,3.6-2.73,5.35-1.19,2.44-2.25,4.95-3.53,7.33a12.8,12.8,0,0,1-2.55,3.22,2.61,2.61,0,0,1-3.47.28,2.81,2.81,0,0,1-1-3.35c1-3.7,2-7.41,3-11.12,0.55-2.1,1-4.22,1.5-6.34l-0.47-.31a33.7,33.7,0,0,0-3.52,4c-1.7,2.67-3,5.57-4.7,8.27a80,80,0,0,1-5.2,7.7c-1.25,1.59-3,2.57-5.26,1.74a4.68,4.68,0,0,1-3.08-4.45c-0.18-2.19,0-4.41-.33-6.74-1,2.1-2,4.24-3.16,6.31a71.86,71.86,0,0,1-3.71,6.32c-1,1.52-2.6,2.78-4.55,2A3.81,3.81,0,0,1,621,382c0.74-4,1.68-7.88,2.54-11.81a3,3,0,0,0,0-1.65c-1.09,1.62-2.13,3.28-3.27,4.86-1.9,2.63-3.79,5.26-5.81,7.8C611.39,385.13,606.51,386.48,603.19,380.23Zm2.71-20.37a27,27,0,0,0-3.25,1.62c-5.66,4-8.61,9.73-10.31,16.23a2.4,2.4,0,0,0,.18,2,2.32,2.32,0,0,0,2,0c1.95-1.09,3.79-2.36,5.67-3.56l-0.63-.44a10.34,10.34,0,0,1,.55-2.27,18.49,18.49,0,0,1,1.52-2.08A22.83,22.83,0,0,0,605.9,359.86Zm88.2-.76c-4.13,4.54-6.68,9.49-9,14.58a43.36,43.36,0,0,0,5.13-6.38c1.46-2.22,2.69-4.59,4-6.91A4.05,4.05,0,0,0,694.1,359.11Z" transform="translate(-386 -267.56)"/><path class="cls-3" d="M523.95,270.44c-0.3,3.92-.42,7.69.8,11.19,2.66,7.6,5.39,15.2,8.58,22.59,5.58,13,13.73,24.47,21.24,36.34a69.61,69.61,0,0,1,6.56,12.89c2.64,7.13,1.29,13.8-4.14,19.37-7.56,7.77-16.84,12.7-27,16.14-13,4.4-26.41,5.24-40,5-16-.32-31.36-4.15-46.65-8.32a240,240,0,0,1-34.67-12.09,58.68,58.68,0,0,1-13.76-8.35c-9.81-8.15-8.1-18.62-1.17-25.89s15.69-12.29,24.84-16.44a163.48,163.48,0,0,1,45.72-12.94,134.47,134.47,0,0,1,39.49.74c1.12,0.18,7.07,1.22,6.63,1.82a2.43,2.43,0,0,1-2.35.73c-7.18-1-20.47-.35-27.42.07-15.41.94-23.28,3-37.95,7.79-11.24,3.68-22.06,8.3-31.78,15.13a57.53,57.53,0,0,0-8.69,7.46c-2.84,3-4.47,6.7-3.29,11a12.69,12.69,0,0,0,4.61,6.47c5.56,4.5,11.95,7.43,18.55,10,19.78,7.7,40.14,11.41,61.11,14.65,9.3,1.44,13.62,1.15,23,.57s18.58-1.84,27.35-5.41c6.3-2.56,12.11-4.7,17.35-9.08,7.67-6.41,4.64-12.79-.3-21.77-3.77-6.85-8.21-13.34-12.39-20-8.82-14-16.35-28.51-20.86-44.48a32.49,32.49,0,0,1-.9-14.2c0.55-3.36,7-4.74,10.05-3.38a4.27,4.27,0,0,1,1.14,1.55,6.72,6.72,0,0,1-1.69,1A7.1,7.1,0,0,1,523.95,270.44Z" transform="translate(-386 -267.56)"/><path class="cls-3" d="M563.83,372.73a8,8,0,0,0,5.65-3.77c2.25-3.56,3.87-4.75,6.54-8a28.19,28.19,0,0,1,4.32-4.07,4,4,0,0,1,3.24-.68c2.06,0.68,2,2.39,2.06,4.75,0,3.14-2.06,5.7-5.4,7.86-2.35,1.49-5,2.52-6.9,3.7-1.1,1-2.68,4.15-2.26,6a2.81,2.81,0,0,0,2.58,2.26,11.8,11.8,0,0,0,4.77-.88c5.51-2.3,7.78-5.27,12.21-9.17a19.71,19.71,0,0,1,2.12-1.78A2.46,2.46,0,0,1,594,369a2.39,2.39,0,0,1-.15,1.23c-5.3,4.67-9.55,10.56-15.84,14.05a13.54,13.54,0,0,1-5.83,1.66c-4.59.18-7.42-3.39-6.68-8,0.08-.51.18-1,0.27-1.58-1.23,0-2.4.05-3.57,0-1.45-.08-3-0.82-2.75-2.23s1.65-2.5,2.55-3.73l2,1.71Z" transform="translate(-386 -267.56)"/></svg>