<?xml version="1.0" encoding="utf-8"?>
<!-- Generator: Adobe Illustrator 20.0.0, SVG Export Plug-In . SVG Version: 6.00 Build 0)  -->
<svg version="1.1" id="Youth_Leadership_logos" xmlns="http://www.w3.org/2000/svg" xmlns:xlink="http://www.w3.org/1999/xlink"
	 x="0px" y="0px" viewBox="0 0 731.5 469.6" style="enable-background:new 0 0 731.5 469.6;" xml:space="preserve">
<style type="text/css">
	.st0{fill:none;}
	.st1{fill:#FFFFFF;}
	.st2{fill:#231F20;}
	.st3{enable-background:new    ;}
	.st4{fill:none;stroke:#231F20;stroke-width:1.75;stroke-linecap:round;stroke-linejoin:round;}
</style>
<title>logo_YouthLeadershipDay</title>
<path class="st0" d="M223.4,13.6l-0.2,0.1C223.2,13.6,223.3,13.6,223.4,13.6L223.4,13.6z"/>
<path d="M315.2,94.1L315.2,94.1c-0.1,0-0.1-0.1-0.1-0.1l0,0l0,0L315.2,94.1z"/>
<path d="M271,33.5c-5.3-2.5-11.4-3.3-17.6-6.6c-5.5-2.9-9.5-7.8-13.8-12.1c-1.8-1.8-3.8-3.5-6-4.9c-2.5-1.6-5.4-2.7-8.3-3
	c0-0.2-1.8,0.6-2.1,0.7c-2.7,2-4.8,1.9-6.2,5.2c1,0.7,1.8,1.6,2.5,2.6c0.3,0.8,0.8,1.5,1.5,2c1.2-0.8,1.1-2.9,2.2-3.8
	c0,0,0.1-0.1,0.1-0.1h0.1c2.5,0.5,6.3-0.4,7,1.9c-2.1,0.4-4,1-5,2.6c-0.4,0.6-0.5,1.4-0.5,2.1c4.1-1.7,10.5-1.5,13.3,1.2
	c-0.1-1.6-2.1-3.3-1.6-4.3c6.8,1.1,8.5,8.4,13.3,11.7c3.2,2.3,7.3,2.2,9.8,5.9c-1.3,1.8-5.4,0.4-7,0c4,5.2,8.5,10,13.3,14.5
	c0.2-1.5-1.6-3-0.4-4.3c8,1.8,8.8,12.9,18,12.1c-10.5-4-15.1-13.8-21.1-22.3c11.3-3.4,15.3,9.7,21.1,15.6c3,0,6.3,1.7,9,0.8
	C284,46.1,279.9,37.6,271,33.5z M262.8,40.9c-1.2-0.1-1.4-1.2-2-2C261.9,37.9,264,39.6,262.8,40.9z"/>
<path d="M217.7,36.3c-1.8-0.1-0.7-3.2-3.1-2.7c-1.4,2-0.8,5.9-2.7,7.4c-3.1-0.1-5.3,0.7-8.6,0.4c2.2-1.8,5.7-2.4,8.2-3.9
	c-0.2-4.6-1.7-10.2-1.4-14.8c0-2.1,0.7-4.1,2-5.7c0.3-0.4,0.6-0.7,1-1c0,0.1,0,0.2,0,0.4c-0.1,1.5-0.1,3.1,0,4.6
	C213.5,26.7,215.7,31.7,217.7,36.3z"/>
<path d="M227.6,33.9c1.3,5.9,6.3,10.3,10.5,12.1C235.1,41.5,232.1,36.9,227.6,33.9z"/>
<path d="M234.6,48c-3.4-4.4-7-8.6-10.9-12.5C225.3,41.7,229.2,45.6,234.6,48z"/>
<path d="M233.1,83.5c2.8-12.6-5.8-20.9-12.9-27c-6.4-5.5-14.2-10-22.3-11.3c-0.3,0.1-0.8,0-0.8,0.4
	C210.9,56.5,227.8,64.2,233.1,83.5z"/>
<path d="M315.8,76.4c0,0.2,0,0.5,0,0.7c0.3,0,0.6-0.1,0.9-0.2C316.4,76.7,316.1,76.5,315.8,76.4z"/>
<path d="M307.3,71c0.3,4.2,4.3,6.6,8.5,6c0-0.2,0-0.5,0-0.7C312.8,74.7,310.2,72.8,307.3,71z"/>
<path d="M226.4,79.2c3.2,15.2-7.2,21.9-11.7,29.3C225,106,236.7,88.8,226.4,79.2z"/>
<path d="M221,26.5c9.8-0.1,16,3.6,22.7,6.6c2.5,4.5,1,12.9,3.1,17.6c4.4,3.4,11.4,2.3,16.4,4.7c3.9,1.8,5.4,5.8,8.6,6.6
	c-4-8.1-11.5-12.8-21.9-14.5c-1.1-4.9,0-9.1-1.6-12.5c-1.7-3.8-8.6-6-12.9-7.8c-5.5-2.3-10.9-4.1-14.8-6.2
	C220.9,22.8,221,24.6,221,26.5z"/>
<path d="M321.4,101.8c-2-0.6-4-1.3-6-2.1c-0.4,1.1-0.8,2.1-1.3,3.2c-0.6,1.3-1.2,2.6-1.8,3.9c-0.8,1.5-1.8,3.5-2.7,5l-0.2,0.4
	c0.1-0.1,0.2-0.3,0.3-0.4c-0.5,1.1-1,2.1-1.6,3.2l0,0l0,0c-0.2,0.3-0.3,0.6-0.5,0.9c0,0.1-0.1,0.3-0.2,0.4
	c-7.7,13.4-19.7,23.8-34.1,29.6c-8.1,3.3-16.7,4.9-25.4,4.9c-5.4,0-10.7-0.6-15.9-1.9c-1.7-0.4-3.3-0.9-4.9-1.4
	c-4.8-1.5-9.4-3.6-13.7-6.1c-2-1.2-3.9-2.4-5.7-3.8c-2.3-1.6-4.4-3.4-6.4-5.4c-0.9-0.9-1.9-1.8-2.8-2.7c-21.4-22.5-24.9-56.6-8.6-83
	c-4.2,8.8-4.9,19-4.5,29.5c0.9,19.8,9.9,33.3,21.1,44.6c4.6-5.1,6.6-6.3,11.3-10.1c-1.8,6.9-8.5,9-11.3,14.9
	c0.3,0.1,0.6,0.1,0.8,0.1c6.1-3.1,15.2-5.5,19.5-7.3c10.4-4.2,20.7-4,32.4-4.5c-7.9,3.4-14.3,6.2-22.8,10.1c-5.1,2.6-9.8,5.9-14,9.7
	c2.6,1.9,5.5,3.3,8.6,4.3c9-3.1,27.4-6.4,37.6-9.7c-5.9-0.2-23.5,2.7-27.3,4.6c6.2-10,44.2-17.7,53.7-25.6c17.3,2.5,0.6-13.2,7.7-8
	c2,1.5,5.2,4.8,6.2,8.5c1.5-1.5,2.7-3.3,3.7-5.2c0.5-1,0.9-2,1.2-3.1c-6.5-2.7-13.2-6.3-21.1-7.5c-0.7-2.4-1-5.3-3.1-6.2
	c-1.3,5.3-0.2,13.3,2.3,17.2c-5.3,0.1-11.5-2.3-16-4.3c-0.9-4.6,0.8-8.1,0.8-12.9c-6.2-0.3-9.8,5.4-13.7,8.6
	c2-8.8-4.7-12.2-8.6-16.4c2.6-12-6.8-15-13.7-18.8c14.9-4.9,15,14.5,22.3,21.1c11.3,0.6,17.3-4.1,21.1-10.9c0.5-3.6-1-7.1,0.4-9.4
	c2.5,6.3,4.9,12.5,4.7,21.5c2.4,2.5,5.1,6.5,9.8,5.5c-0.2-2.1-3.7-4.4-5.5-6.2C301.3,82.8,304.5,93,315,94c0,0,0,0,0.1,0
	c0,0,0,0.1,0,0.1h0.1l-0.1-0.2l0,0c0-0.1,0-0.1,0-0.2c-2.3-8.1-9.7-16.1-15.6-23.7c-2.2-2.9-6.9-11-8.6-2.7
	c-1.5-3.8-3.1-8.4-2.3-13.3c2.5,0.4,8.8,0.2,12.5,0.8c0,16.6,8,25.3,14.5,35.4c0.6,1,1.2,2,1.8,3C319,96,320.3,98.8,321.4,101.8z"/>
<path d="M307.9,114.9L307.9,114.9C307.9,114.9,307.9,114.8,307.9,114.9z"/>
<path d="M315.2,94.1L315.2,94.1c-0.1,0-0.1-0.1-0.1-0.1l0,0l0,0l0,0L315.2,94.1z"/>
<path d="M569.3,38.5c-3.8,2.4-8.8,3.7-9.4,9.4c-4.2,1-8.4,2.1-10.8,4.9l0,0c-0.2-2.4-0.1-4.9,0.5-7.3c1.6-6.8,2.5-10.6,7.4-14
	c-0.3,1.3-0.9,2.5-1.6,3.5c-1.9,3-0.8,5.1-0.9,9.8c0,0,0,0.1,0,0.1C557.7,43.2,562.5,36.4,569.3,38.5z"/>
<path class="st1" d="M602.1,92.4l-1.3-0.2C601.3,92.2,601.7,92.3,602.1,92.4z"/>
<path d="M592.5,139.4c-0.1,2,0,4,0.4,5.9l1.4,0.3C593.7,143.7,593.1,141.6,592.5,139.4z M588.8,132.5c-0.4,4-0.2,8.1,0.6,12l1.3,0.3
	c-0.9-2.9-0.8-6.1-1.4-9.4C589.2,134.7,589.6,131,588.8,132.5L588.8,132.5z"/>
<path d="M669.3,52.7c-0.9-10.6-5.7-19.9-13.3-22.1c2.9,3.6,5.9,7,6.7,12.7c0.1,0.5,0.1,1,0.2,1.6c-0.8-0.7-1.6-1.5-2.6-2.3
	c-3.3-2.8-7.7-5.7-12.2-3.6c5,1.3,8.6,3.9,9.8,8.9c2.5,0.6,4.9,1.4,7.2,2.5c0.9,1.8,1.8,3.6,2.6,5.4c-5.3-7.5-22.3-8-32.9-8.4
	c9.2,2.1,24.6,4.1,24.6,12.8c0.1,8.3-12.8,11.3-19.2,15.3c4.1-5.5,2.6-19.5-1.5-22.2c2.9,11.6-2.4,22.2-9.8,26.6
	c-5-8.5-1.1-22.3,2.5-27.6c-6.9,4.2-9.4,12.5-9.4,22.7c0,6.4,1.9,5.5-2.5,8.5c-7.6,2.5-13.6,1.4-21.7,0c-5.3-8.4-0.3-18-6.4-26.7
	c-1-1.5-3.3-3.8-5.9-3.9c5.8,5.2,8.1,20,2.5,27.1c-7.1-4.8-11-15.2-9.8-26.6c-4.1,5.4-4,17.4-1,22.2c-6.1-4.1-17.9-6.3-18.7-14.3
	c-1-10,15.4-11.1,24.1-14.3c-13,1.4-36.9,1.8-34,16.2c2.5,12.1,24.3,15.4,31,23.1c-4.5-2.4-9.4-4.4-16.7-3.9
	c2.3,10,6.1,18.4,15.3,21.2c1.1,0.3,2.4-0.2,3.5,0c4.4,0.8,6.5,4.1,8.4,7.9c0.3-1.9-0.9-2.4-0.5-4.4c1.2-1.2,1.7-3.2,4.4-3
	c-0.1,1.2,2.5,2.3,2,5.4c-1.9-1.1-3.6,0.1-5.4,0.5c0.2,2.5,1.4,3.9,1,6.9c3.3-1,7.7-1.4,10.8,0c0-6.2-6.8-8.3-7.4-12.3
	c1.5,0.5,2.8,3.7,3.9,3c-1.1-0.4-1.2-1.7-2-2.5c1.7,0.4,2.9,4,3.9,3.4c-0.3-0.5-2-1.8-1-2c3.8,4.9,4.9,10.6,5.1,19.1
	c1.3,0,4.1,0.1,4.7,1.1c-3.8,0.2-6.8,3.6-8.9,3.9c1-2.2,1.5-4.5,1.5-6.9c-1.1-0.5-1.9,1.9-0.8,3c0.4-2.8,1.4-4.8,0.3-7.9
	c-0.9,0.8-3.2,2.7-3.9,2c0.7-0.3,1.2-0.8,1.5-1.5c-1.8,0.3-2.4,1.9-4.4,2c0.6-0.9,3.4-2.1,2.5-3c-1.5,1.4-3.4,2.5-5.4,3
	c0.1-1.1,3.3-1.6,2-2.5c-0.8,1-2.3,1.3-3.9,1.5c-1.5,7.8,5.8,13.7,7.4,19.7c0.5,1.8-0.2,3.9,0,5.4c0,0.3,0.1,0.6,0.1,0.9
	c-1.1-0.2-2.1-0.4-3.2-0.6l-1.4-0.3c-0.8-0.2-1.6-0.4-2.2-0.5l-1.3-0.3c-0.6-0.2-1.9-1-2.4-1.2c-2.3-11.3,0.8-19,2.3-25.4
	c-3.4,4-8.3,14.4-8,23.3c-16.7-6.6-36-22.2-41-45c3.2,25.3,20.1,46.9,43.9,56.1c5.2,2,10.6,3.4,16.1,4.1l1.6,0.2
	c2.5,0.3,4.9,0.4,7.4,0.4c4.4,0,8.9-0.4,13.2-1.3l0.8-0.2c1.3-0.3,2.7-0.6,4-0.9l0.9-0.3c2.3-0.7,4.7-1.5,6.9-2.4
	c35.6-14.2,53-54.7,38.7-90.3C672.5,58.7,671,55.6,669.3,52.7z M595,111.8c-0.9,1-2.4,0.3-2-1.5C594.3,110.2,595.1,110.6,595,111.8
	L595,111.8z M609.2,100c-2.1-2.8-3.2-6.6-7.1-7.6l-1.3-0.2c0.4,0,0.9,0.1,1.3,0.2c4.8,0.9,8.8,1.7,14.2-0.4
	C612.8,93.3,610.2,96.3,609.2,100L609.2,100z M614.2,131.5c-2.8,0.6-6.1-1.1-9.4,0.5C605.8,129.7,612.4,130.2,614.2,131.5
	L614.2,131.5z M602.3,131.5c-0.5,1.6,0,4.5,3,2.5c0.5,2.3-1.1,2.5-2,3.5c1.2,1.1,2.8,1.8,3,3.9c-3,0.6-4.2-0.7-5.9-1.5
	C600.4,136.5,599.8,132.4,602.3,131.5L602.3,131.5z M610.2,146.8c0.2-0.6,0.6-1.1,1.2-1.4c-2.4,1-9.6,1.7-9.1-3.6
	c4.8-0.3,9.8,0.2,14.8,0C617.1,145.8,613.6,146.3,610.2,146.8L610.2,146.8z M618.6,139.9c-1.7,0.8-2.9,2.1-5.9,1.5
	c0.6-1.5,1.1-3.2,3-3.4c0.2-1.9-3.1-2.1-1.5-3.9c1.5,1.8,3.8-0.1,2.5-2.5C619.4,132.2,618.4,136.7,618.6,139.9L618.6,139.9z"/>
<path class="st0" d="M455.2,405.2c-1-12.2,21.6-0.6,16.7-16.7c-1.5,1.6-1.2,4.9-5.6,3.7c-0.9-1.4-1.3-3-0.9-4.6c3-1.1,0.7,3,3.7,1.8
	c-0.1-5.2-5.3-1.7-7.4-0.9c2.9-8.3,12.1-1,13,1.9C477.5,400.1,463.7,410.3,455.2,405.2z"/>
<path class="st0" d="M391.9,444.7c1.1-10.5-6.8-18.3-6.8-18.3c7.8,3,9.8,12.2,9.8,12.2c0.2,3.2,0.2,5.9,0.2,8.3
	C394.1,446.1,393,445.4,391.9,444.7z"/>
<path class="st0" d="M459.9,361.7c-0.4,5.3,4.5,5.4,4.6,10.2c-0.9,5-5.7,6.1-12,5.6c-15.2-14.9,13.4-39.9,26.9-24.1
	C470.8,351.7,463.9,356.5,459.9,361.7z"/>
<path d="M437.9,462.3l-0.8,0.1l0.1-0.3L437.9,462.3z"/>
<path d="M506.6,351c-1.4,2.3-3.3,4.2-5.5,5.6c-2,1.3-4.3,2.1-6.7,2.3c-1,0.1-2,0.1-3.1,0c-5.5-17.5-25.1-35.2-46.3-35.2
	c-10.4,0-17.4,8.1-27.8,9.3c0.5-6.1,5.6-7.7,9-10.9c-4.9,0.1-9.8,1.1-14.5,2.8c-6.1,2.4-10.3,8-16.1,10.4c-0.4-2.8,1.4-5.8,2.6-8.2
	c1.2-2.4,3-4.4,5.3-5.8c-37.9,13.8-57.4,55.7-43.7,93.5c5.6,15.3,16.1,28.3,29.9,36.9c2.4,1.5,4.9,2.9,7.5,4.1
	c2.4,1.1,4.8,2.1,7.3,3c6.1,2.1,12.5,3.4,19,3.8c0.4,0,0.8,0.1,1.2,0.1c1.2,0.1,2.4,0.1,3.6,0.1c0.8,0,1.6,0,2.3-0.1
	c2.2-0.1,4.3-0.2,6.4-0.5l0.1-0.3l0.7,0.2c5.1-0.7,10.2-1.9,15.1-3.7c2.2-0.8,4.4-1.7,6.5-2.7c-1.1-0.5-2.3-1-3.4-1.5
	c-6.3-3.1-12.6-8.2-15.4-16.4c0,0,1.1,11.1,7,16.6c0.6,0.6,1.2,1.1,1.8,1.6c-5.1,1.1-10.4,1.7-15.7,1.7c-3.2,0-6.3-0.2-9.5-0.6
	c-4.4-10-0.6-3.3,4.1-0.9s-8.1-6.5-12.4-18.3c-3.4-9.1-4.4,5.6,3.7,18.5c-0.9-0.2-1.8-0.4-2.7-0.6c-1.6-2.2-3-4.5-4.2-7
	c-1.1-2.4-2-4.8-2.7-7.4c-9.4-33.4,2.4-48.7,2.4-48.7c-5.8,20,4.7,39.3,13.5,51.1c2.1,2.9,4.4,5.6,6.9,8.3c0.2-0.4,0.5-0.7,0.7-1.1
	c-1.3-2.8-2.4-5.7-3.3-8.7c-4.1-13.3-5.3-29-5.3-29s10.9,18.2,13.9,23.8c0.4-1.1,0.9-2.3,1.5-3.3c3.8,5.1,4.6,13.3,12,14.8
	c2.7-8.6,16.2-4,24.1-5.6c-1.2-3.3-2.1-6.7-2.7-10.2c-3.9-0.7,1.2,3.5-2.8,3.7c-1.3-2-2.9-5,0-6.5c4.8,0.1,3.7,6.2,5.6,9.3
	c1.5,0.6,3.1,0.8,4.8,0.7h0.2c2.8-0.4,4.4-2.5,5.6-5.3c0.4-0.9,0.7-1.8,0.9-2.8c1.2-4.4,1.8-9.8,3.4-13.9c1.8-4.8,5-8,5.6-12
	c1.8-11.6-1.8-23.7-1.8-32.4c0.9-1.6,2-3.1,3.3-4.5c1.7-1.9,3.5-3.9,5.1-6.1C506,359.6,507.8,355.7,506.6,351z M391.9,444.7
	c1.1-10.5-6.8-18.3-6.8-18.3c7.8,3,9.8,12.2,9.8,12.2c0.2,3.2,0.2,5.9,0.2,8.3C394.1,446.1,393,445.4,391.9,444.7z M397.2,413.6
	c-3-3.3-5.5-7.1-7.4-11.1c0,0-6.8,1.8-2.5,8.7s11.7,11.7,11.1,19.1c0,0-4.9-11.1-14.2-14.2s-21-17.3-14.2-38.9c0,0,0,8.7,4.9,12.3
	c0,0-4.9-25.3,13.6-40.1c0,0-6.8,11.7-3.7,21.6c0,0,10.5-20.4,30.3-17.3C415.1,353.7,385.4,372.8,397.2,413.6L397.2,413.6z
	 M455.2,405.2c-1-12.2,21.6-0.6,16.7-16.7c-1.5,1.6-1.2,4.9-5.6,3.7c-0.9-1.4-1.3-3-0.9-4.6c3-1.1,0.7,3,3.7,1.8
	c-0.1-5.2-5.3-1.7-7.4-0.9c2.9-8.3,12.1-1,13,1.9C477.5,400.1,463.7,410.3,455.2,405.2L455.2,405.2z M459.9,361.7
	c-0.4,5.3,4.5,5.4,4.6,10.2c-0.9,5-5.7,6.1-12,5.6c-15.2-14.9,13.4-39.9,26.9-24.1C470.8,351.7,463.9,356.5,459.9,361.7z"/>
<path d="M436.3,455.7c-0.2-0.1-1.5-1.4-3.4-3.5c0.2-0.4,0.5-0.7,0.7-1.1C434.4,452.7,435.3,454.2,436.3,455.7z"/>
<path class="st2" d="M45.5,417.7c0.9-8,2.9-14.8,7.7-19c-1.9,3.8-2.8,11.4-1.5,16.2c3.8,14.6,16.1,24.3,29.7,28.8
	c-8.5,0.2-15.7,1.6-20.5,5.5C52.4,442,46.7,432,45.5,417.7z M87.8,410.9c-3.4-1-7-4.3-4.9-8.9c-2.5-2.2-2.7-8.2-0.6-11
	c-0.7,6.8,3.1,11.3,8.3,13.2c-1.1,3.1-2.1,8.9,0.3,11.3C89.1,415.9,88.2,412.9,87.8,410.9z M105.2,462.1c-1.6,1-3.6,0.7-4.9-0.6
	c-0.1-3.6,3.3-5.5,1.8-8.6C105.6,453.7,107.2,458.7,105.2,462.1L105.2,462.1z"/>
<path class="st2" d="M113.8,368.3c1-0.9,1.7-1.9,2.2-3.1c12,10.3,20,24.5,22.5,40.1c-0.2-18.8-8.2-36.7-22.1-49.3
	c-1-6.5-3-13.5,1.4-17.7c-5,1.9-9.6,5-11.9,9.9c-1.2,2.9-1.7,6-1.3,9.1c0,0.1,0,0.2,0,0.4l-0.6-0.7c-6-6.6-18.4-11-30.1-8.1
	c-0.6,0.2-1.2,0.3-1.8,0.5c2.1,0.5,4,1.3,5.8,2.5c4.2,4.5,1.6,10,2.5,16.2c0.9,6.5,6.8,9.6,6.7,15.3c0,2.4-1.6,4.4-2.5,6.1
	c4.8-2.5,7.3-11,4.9-16.8c1,2.3,3.5,3.3,5.2,4.9c1,8.3-0.4,16.4-4.9,20.2c12.1,7.7,15.6,24,17.5,42c-3.5-2.9-6.5-8-11.3-8.6
	c2.9,3.2,5.3,6.7,7.4,10.4c2.9,5.2,6.2,11.5,5.5,17.5c-0.7,6.2-11.2,8.3-11.3,1.5c0-1.8,1.4-2.2,1.5-4c0.5-5.3-3.8-8-7.4-10.1
	c-4.4-8.4-9-16.5-9.2-29.1c-13.1,3.5-22.7-3.4-24.5-14.1c-0.6-10.2,3.5-15.7,8-20.8c-17.2,3.7-29.8,14.6-29.7,32.5
	c0,17.1,11,30.1,18.7,39.2c-8.5-10-19.1-37.5-7.4-53.3c2.8-2.3,5.4-4.8,9.5-5.8c-4.7,9.2-1,20.5,8.2,25.2c1.3,0.7,2.7,1.2,4.1,1.5
	c8.8,8.4,15.3,18.8,19,30.3c0.1,0.5,0.2,1,0.3,1.5c0.7,5.8,0.2,9.2,3.4,12c1.6,1.3,3.6,2.3,5.7,2.7c9,2.1,22.1-2,23.4-9.4
	c0.4-2.1,0-4.3-1.1-6.2c-0.3-0.5-0.5-1-0.7-1.5c-0.9-2.5-1.6-5.1-2.1-7.7c-3.9-15.9-3.8-37.2,7.4-45.7c-5.5-6.2-4.2-18.8-8.6-26.3
	C115.3,370.2,114.1,369.7,113.8,368.3z M104.6,381.5c-1.7-4.4-6.9-6.3-8.9-10.7c-1.4-3-1.2-6.6-2.5-10.4
	C97.6,366.9,104.9,370.4,104.6,381.5L104.6,381.5z M93.4,352.3l-0.1-0.2c1,0.4,1.9,0.8,2.8,1.2c8.2,3.9,13.6,10.7,15,21.5
	C101.9,370.5,96,363,93.4,352.3z M109.4,360.2c-0.1-3,0.5-5.9,1.5-8.6c0.3-0.7,0.6-1.3,1-1.9c0.1,1.1,0.3,2.1,0.6,3.1
	c0.9,3.6,2.1,7.5,1.5,10.8c-0.2,1.2-0.7,2.3-1.5,3.2C110.4,365.8,109.5,363.2,109.4,360.2L109.4,360.2z"/>
<path class="st2" d="M87.8,410.9c0.4,2,1.3,5,3.1,4.6c-2.5-2.4-1.4-8.2-0.3-11.3c-5.2-1.9-9-6.4-8.3-13.2c-2.1,2.9-1.9,8.8,0.6,11
	C80.8,406.5,84.4,409.9,87.8,410.9z"/>
<path class="st2" d="M105.2,462.1c1.9-3.4,0.4-8.4-3.1-9.2c1.5,3.1-1.9,5-1.8,8.6C101.6,462.8,103.7,463,105.2,462.1z M103.4,455.9
	c1.5,0.8,1.6,6.2-1.2,5.5C100.8,458.9,104,458.7,103.4,455.9L103.4,455.9z"/>
<path class="st2" d="M80.1,376.9c-0.9,2.4-3.6,3.6-6,2.6c-0.6-0.2-1.2-0.6-1.7-1.1c-1.8-3.7,0.6-7.3,0.3-10.7
	c-0.3-3.8-3.6-6.5-4-10.1c-2.9,5.6-8.5,17.3-1.2,22.4c-1.6,0-4.7-3.8-5.2-7c0.8-9.2,6.2-14.3,6.7-24.1c0-0.5,0-0.9,0-1.4
	c0.2,0.4,0.4,0.9,0.6,1.3c1,2.7,1.2,5.5,2.8,8.8C75.5,363.6,82.5,370.2,80.1,376.9z"/>
<path class="st2" d="M51.6,414.9c-1.3-4.9-0.4-12.5,1.5-16.2c-4.7,4.1-6.8,11-7.7,19c1.2,14.4,6.9,24.3,15.3,31.6
	c4.8-3.9,12.1-5.3,20.5-5.5C67.7,439.2,55.5,429.5,51.6,414.9z"/>
<path class="st2" d="M103.1,353.6c-3.6-1.5-6.5-4-10.1-5.2c-15.7-5.5-34.3-0.9-48,5.9c-2.4,1.2-4.7,2.5-6.9,3.9
	c-18.3,11.7-31.8,28.8-32,56.5v0.9c1.7-16.4,9.7-26.2,13-29.6c0.4-0.5,0.9-0.9,1.4-1.3c-5.8,8.6-6.9,18.7-6.9,24.2v0.1
	c0,1.4,0,2.7,0.1,4c1.6-8.9,10.7-15.8,13.3-17.6c0.2-0.2,0.4-0.3,0.7-0.5c-3.7,7.1-5.6,15-5.8,23c0,0.1,0,0.1,0,0.2
	c-0.3,25.1,17.7,45.5,23.4,51.3c-17.9-7.3-31.8-21.9-38.2-40.1c-0.4-0.8-0.7-1.7-1-2.6c-0.7-2.6-1.3-5.2-1.6-7.8
	c-0.1-0.6-0.2-1.3-0.4-1.9c-0.3-2.1-0.6-4.2-0.7-6.3c-0.1-1.4-0.2-2.8-0.2-4.2V406c0-19.1,8.1-37.3,22.2-50.1
	c-10.6,0.8-17.7,5.1-20.2,14c-3.8-12.3,6.4-21.3,18.1-21.5c3.7-0.1,7.5,0.7,11.2,0.6c2.1,0,4.1-0.5,6-1.5c-1-0.1-1.9-0.2-2.9-0.4
	c-9.6-1.6-19.3-7.8-28.4-2.1c4.1-5.7,10.3-8,18.1-7.3c7.3,0.6,12.5,4,19.2,5.2c2.5,0.5,5.1,0.6,7.7,0.3c-1.8-0.2-3.5-0.6-5.2-1.2
	c-10.6-3.7-16.2-13.8-31.5-10.5c3.4-1.9,7.1-3.2,11-3.7c13.6-1.3,19.5,9.3,32.1,9.5c-8.6-1.9-14.8-6.2-18.4-13.2
	c-3-2.8-6.9-4.4-11-4.6c9.7-4.2,16.6,4.7,24.8,5.8c7.2,1,14.4-1.2,19.3,1.8c2.2,1.6,3.9,3.8,4.9,6.4c0-13.4-19.2-10.2-24.8-19
	c6.6,4.4,20.5,4.2,26.7,10.1c2.8,3.3,5.8,6.5,6.7,11.6c1.7-11-7.8-13.4-12.5-19c6.9,4.5,14.7,7.1,18.4,14.7c1.7,3.5,2,7.9,3,11.8
	c0.4,1.8,1,3.4,1.9,5C100.8,350.7,102.2,351.6,103.1,353.6z"/>
<path class="st0" d="M271.9,377.5c-6.2-1.9-12.7-2.9-19.2-2.8c-4,27.5-31.8,43.8-62.3,35.5c-0.4,2.6-1,5-1.5,7.5
	c0.3,0.7,0.7,1.4,1,2c0.4-2.3,0.8-4.5,1.5-6.7c4.1,1.7,9.2,2.3,15.3,1.9c-0.3,6.1,0,12.2,1,18.2c-2.9,0.2-5.8,0.1-8.6-0.3
	c0.5,0.5,1,1,1.5,1.5c35.9,4.7,71.3-22.9,73.3-56.9L271.9,377.5L271.9,377.5z M210.5,433.1c-1-5.8-1.5-12-1.9-18.2
	c6.7-0.5,13.3-2.4,19.2-5.8c3.5,5.5,8.5,9.4,10.5,16.3C229.8,428.7,222.4,433.1,210.5,433.1L210.5,433.1z M242.2,423.5
	c-4.9-4.6-8.8-10.2-11.5-16.3c8.4-3.1,13.5-9.5,18.2-16.3c5.6,2.7,11.1,5.5,16.3,8.6C260,410,250.9,416.6,242.2,423.5L242.2,423.5z
	 M267.1,396.7c-6.8-0.9-10-5.3-16.3-6.7c0.7-5.3,3.6-8.5,3.8-14.4c5.8,0.4,11.6,1.4,17.3,2.9C272,386.2,269.4,391.3,267.1,396.7z"/>
<path class="st0" d="M256.6,401.5c-2.5-9.7-19.2,0.3-18.2,11.5c1.3,1,2.9,1.6,3.8,2.9C250.1,414.7,258.3,408.1,256.6,401.5z"/>
<path class="st0" d="M279.6,386.1c2.8,1.7,7.6,1.3,10.5,2.9c-1.9,4.3-6.6-1.3-11.5,0c-1.1,6.6,7.1,3.8,9.6,6.7
	c-0.6,3.6-7.6-1.6-10.5-1.9c0.3,1.6-0.9,1.7-1,2.9c2.5,2.3,6.4,3.2,10.5,3.8c-1.9,6.3-8.2-0.9-12.5-1c0.2,1.1-0.2,1.7-1,1.9
	c1.5,3.3,11,3.6,9.6,6.7c-1.8,4.7-8.2-6-11.5-2.9c-0.4,6.4,8.2,4,8.6,9.6c-5.1,0-6.9-7.4-11.5-4.8c0.9,4.5,5.4,5.5,8.6,7.7
	c-3.9,6-8.5-8.7-12.5-2.9c0.7,4.7,9.6,5.4,6.7,10.5c-5.1-0.3-5.9-9.1-11.5-5.8c0.3,4.5,8,6.7,6.7,9.6c-3.4,1.7-6-4.6-8.6-6.7
	c-1.3,0.3-1.5,1.7-2.9,1.9c0.9,3.9,7.4,6.2,5.8,9.6c-4.4-0.8-4.2-6-7.7-7.7c-6.2,3.6,5.4,7.6,1.9,11.5c-3.7-1.4-4.1-6.2-6.7-8.6
	c-6.2,2.6,2,6.6,1.9,11.5c-4.2-0.9-4.6-5.6-6.7-8.6c-0.8,0.2-1,1-1.9,1c-2.6,2.7,5,8.4,2.9,10.5c-3.6,1.9-3.6-6.9-6.7-8.6
	c-0.8,0.7-1.8,1-2.9,1c1.5,3.6,3.9,6.4,4.8,10.5c-6.8,1-2.9-8.7-8.6-8.6c-3.3,4,3.2,6.4,1.9,11.5c-4.1-1.3-3.5-7.4-5.8-10.5
	c-0.8,0.2-1,1-1.9,1c-2.6,2.9,4.4,8.5,1.9,11.5c-4.2-1.6-1.4-10.1-6.7-10.5c-2.3,2.5,0.3,5.8,1.3,8.7c-0.9-0.4-1.8-0.8-2.7-1.2
	c-0.5-3.2-0.8-6.5-4.4-6.6c-0.8,1.2-0.5,2.6,0.1,4.3c-0.6-0.3-1.2-0.7-1.8-1.1c-0.2-1.1-0.6-2.2-1.2-3.2c-0.8,0.2-1,1-1.9,1
	c0,0.1-0.1,0.1-0.1,0.2c-1.7-1.2-3.4-2.5-5-3.9c40.1-0.4,67.2-23.6,73.2-60.6c4.1,0.4,8.5,0.4,11.5,1.9c-0.2,3.9-7.3,0.2-9.6,0
	C280.6,382.7,280.7,385,279.6,386.1z"/>
<path class="st0" d="M257.5,376.5c-3.2,6.1-2.3,14.5,6.7,13.4c3.6-1.8,4.4-6.5,5.8-10.5C266.4,377.9,261.4,377.8,257.5,376.5z"/>
<path class="st0" d="M213.4,427.3c7,5.3,21.7-0.4,16.3-10.5c-6.9-4.6-17.8-0.2-17.3,8.6C213.2,425.7,213.6,426.2,213.4,427.3z"/>
<path class="st0" d="M201.9,430.2c-1.9,0.1-3.8-0.2-5.7-0.8c-1.8-2.3-3.4-4.7-4.9-7.2c0-0.5,0-1.1,0-1.6c2.8-4.9,10.3-4.1,13.4,0
	C205.6,425.6,204,428.2,201.9,430.2z"/>
<path class="st0" d="M212.4,455.2c-1.7-0.8-2.9-2.4-3.3-4.2c1,0.6,2,1.2,3.1,1.8C212.5,453.5,212.5,454.3,212.4,455.2z"/>
<path d="M290.5,438.6c-0.8,0.9-1.5,2-2,3.2c-0.6,0.6-1.3,1.2-1.9,1.8c-0.4,0-0.8,0.1-1.3,0.1l1.4-2
	C288,440.7,289.2,439.6,290.5,438.6z"/>
<path d="M304.5,371.7l-0.5,0.3c0-0.1,0-0.1-0.1-0.2L304.5,371.7z"/>
<path d="M222,382.3c8.3,0.7,14.8,3.1,22,4.8c-0.2-1.8,1.1-2.1,1-3.8C239.8,380,225.2,379.5,222,382.3z"/>
<path d="M241.2,389c-6-2-13.9-7.2-21.1-4.8c6.5,1.5,12.1,5.6,15.3,11.5C238.6,394.7,241.1,393,241.2,389z"/>
<path d="M234.5,397.7c-5.1-5.2-8.8-11.7-17.3-13.4c-1.2,9.5,2,14.7,4.8,20.1C227.8,403.7,231,400.5,234.5,397.7z"/>
<path d="M220.1,405.3c-5.9-3.5-4.8-13-5.8-19.2c-3.4,5.2-6.6,13.7-3.8,22C214.1,407.6,217.9,407.2,220.1,405.3z"/>
<path d="M265.2,399.5c-5.2-3.1-10.7-5.9-16.3-8.6c-4.7,6.8-9.9,13.2-18.2,16.3c2.7,6.1,6.7,11.7,11.5,16.3
	C250.9,416.6,260,410,265.2,399.5z"/>
<path d="M238.3,425.4c-2-6.9-7.1-10.8-10.5-16.3c-5.9,3.3-12.4,5.3-19.2,5.8c0.5,6.3,1,12.5,1.9,18.2
	C222.4,433.1,229.8,428.7,238.3,425.4z"/>
<path d="M302.1,370.5c-11.5-13.7-23.3-44.8-50.8-30.7c-4.2,14.9,8.8,20.5,14.4,28.8c-1.1,1.4-3.6,1.5-4.8,2.9
	c6.1,0,13.1,4.2,18.2,1.9c-9.9-9.6-26.7-12.3-27.8-30.7c19.8-15.5,41.8,8.5,43.2,29.7C297.8,372.6,300.5,372.2,302.1,370.5z"/>
<path d="M282.9,349.4c-5.6,3-11.2-7.3-15.3-5.8c12.4,6.1,18.6,18.4,25.9,29.7C291.7,363.6,288.6,355.2,282.9,349.4z"/>
<path d="M290.6,374.3c-2.7-11.7-13.3-23.8-24-30.7c-1.5,1.9,2.7,3.7,4.8,5.8s5.8,5,7.7,7.7C283.4,363.3,284.1,374,290.6,374.3z"/>
<path d="M254.1,347.5c4.3,15.5,20.5,19.1,31.6,27.8c-3.8-11.6-13.3-27.6-22-27.8c4.8,4.1,11.7,6.2,11.5,15.3
	C262.9,363,259.4,354.4,254.1,347.5z"/>
<path d="M219.8,377.7c-2.1,1.1-4.2,2-6.4,2.7c-12.5,5.8-21.9,18.9-25.8,34.6c-0.9,3.9-1.5,7.9-1.8,11.9c0.5,0.9,1,1.8,1.6,2.7
	c0.5,0.7,0.9,1.4,1.4,2.1c1.6,2.4,3.4,4.7,5.4,6.9c1.4,1.5,2.8,3,4.3,4.4s3.1,2.8,4.8,4c0.5,0.4,1.1,0.8,1.6,1.2
	c1.4,1,2.8,1.9,4.2,2.8c1,0.6,2,1.2,3.1,1.8c2.5,1.4,5.2,2.5,7.9,3.5c1.4,0.5,2.9,1,4.4,1.4c0.8,0.2,1.6,0.5,2.4,0.7
	c3.5,0.9,7.1,1.5,10.7,1.7c1.7,0.1,3.5,0.2,5.2,0.2s3.6-0.1,5.4-0.2c14.2-1.2,27.7-7,38.3-16.5c-0.4,0-0.8,0.1-1.3,0.1l1.4-2
	c-11.3,8.4-25,13-39,13c-1.2,0-2.5,0-3.7-0.1c-2.1-0.1-4.3-0.3-6.3-0.7c-1.8-0.3-3.6-0.7-5.4-1.1c18.6,8.3,37.5-11.7,48.4-22
	c4.1-1,8.2-0.8,10.4,2.4c-1,3-2.4,5.9-4.3,8.5c1.3-1,2.5-2,3.7-3c1.2-1.5,2.4-3,2.5-5.5c0-4.1-4.8-3.5-4.8-7.7
	c1.7-6.4,9.7-11.7,17.1-11c0.8,0.1,1.7,0.2,2.5,0.5c0.9,0.2,1.7,0.6,2.5,1c1.8,10.3-6.3,17.6-10.5,24.9c1.2,1,11.5-2.2,10.5,3.8
	c-6.2-1.8-13.9-2.1-22-1.9c0.1-0.3,0.2-0.7,0.3-1c-0.6,0.6-1.3,1.2-1.9,1.8c9.8-0.9,19.8,2.3,26.5,1.1c-2.9-2.6-4.7-6.2-11.5-4.8
	c4.7-7.5,11.8-12.5,10.5-25.9c-1-0.8-2.1-1.5-3.2-2.1c12.5-33.8-4.9-71.4-38.7-83.8c-27.3-10-57.9-0.9-75.1,22.5
	c24.6-26.4,65.9-27.8,92.3-3.2c7.3,6.8,13,15.3,16.5,24.6l0.5-0.2l-0.5,0.3c0-0.1,0-0.1-0.1-0.2l-9,2.7c-23.1,5.6-47.7-8.5-69,1
	c7.3-0.4,16.7-3.8,24-1c-3.7,24.5-31.1,42.2-57.5,31.6c2.3-3.5,2.9-8.6,6.7-10.5c-2,2.9-3.4,6.1-4.2,9.5c2,0.6,2.1,2.5,5.1,2
	c2.1-23.4,22.7-32.3,47-25.9c-0.8-3.3,0.9-3,0.4-6c-8,0.2-13.6-1.6-20.1-0.2 M200.6,434.5c-0.5-0.5-1-1-1.5-1.5
	c2.9,0.3,5.7,0.4,8.6,0.3c-1-6-1.3-12.1-1-18.2c-6.2,0.4-11.2-0.3-15.3-1.9c-0.6,2.2-1.1,4.4-1.5,6.7c-0.4-0.7-0.7-1.3-1-2
	c0.5-2.5,1.1-4.9,1.5-7.5c30.6,8.4,58.3-8,62.3-35.5c6.5,0,13,0.9,19.2,2.9h1.8c-2,33.7-37.4,61.4-73.3,56.7L200.6,434.5z
	 M269.2,410.2c0.9,4.5,5.4,5.5,8.6,7.7c-3.9,6-8.5-8.7-12.5-2.9c0.7,4.7,9.6,5.4,6.7,10.5c-5.1-0.3-5.9-9.1-11.5-5.8
	c0.3,4.5,8,6.7,6.7,9.6c-3.4,1.7-6-4.6-8.6-6.7c-1.3,0.3-1.5,1.7-2.9,1.9c0.9,3.9,7.4,6.2,5.8,9.6c-4.4-0.8-4.2-6-7.7-7.7
	c-6.2,3.6,5.4,7.6,1.9,11.5c-3.7-1.4-4.1-6.2-6.7-8.6c-6.2,2.6,2,6.6,1.9,11.5c-4.2-0.9-4.6-5.6-6.7-8.6c-0.8,0.2-1,1-1.9,1
	c-2.6,2.7,5,8.4,2.9,10.5c-3.6,1.9-3.6-6.9-6.7-8.6c-0.8,0.7-1.8,1-2.9,1c1.5,3.6,3.9,6.4,4.8,10.5c-6.8,1-2.9-8.7-8.6-8.6
	c-3.3,4,3.2,6.4,1.9,11.5c-4.1-1.3-3.5-7.4-5.8-10.5c-0.8,0.2-1,1-1.9,1c-2.6,2.9,4.4,8.5,1.9,11.5c-4.2-1.6-1.4-10.1-6.7-10.5
	c-2.3,2.5,0.3,5.8,1.3,8.7c-0.9-0.4-1.8-0.8-2.7-1.2c-0.5-3.2-0.8-6.5-4.4-6.6c-0.8,1.2-0.5,2.6,0.1,4.3c-0.6-0.3-1.2-0.7-1.8-1.1
	c-0.2-1.1-0.6-2.2-1.2-3.2c-0.8,0.2-1,1-1.9,1c0,0.1-0.1,0.1-0.1,0.2c-1.7-1.2-3.4-2.5-5-3.9c40.1-0.4,67.2-23.6,73.2-60.6
	c4.1,0.4,8.5,0.4,11.5,1.9c-0.2,3.9-7.3,0.2-9.6,0c0.1,2.4,0.1,4.6-1,5.8c2.8,1.7,7.6,1.3,10.5,2.9c-1.9,4.3-6.6-1.3-11.5,0
	c-1.1,6.6,7.1,3.8,9.6,6.7c-0.6,3.6-7.6-1.6-10.5-1.9c0.3,1.6-0.9,1.7-1,2.9c2.5,2.3,6.4,3.2,10.5,3.8c-1.9,6.3-8.2-0.9-12.5-1
	c0.2,1.1-0.2,1.7-1,1.9c1.5,3.3,11,3.6,9.6,6.7c-1.8,4.7-8.2-6-11.5-2.9c-0.4,6.4,8.2,4,8.6,9.6"/>
<path d="M201.9,408.2h3.9c0.6-9.7,5.7-19.9,8.6-24C207.7,389.7,202,396.1,201.9,408.2z"/>
<path d="M271.9,378.5c-5.7-1.5-11.4-2.5-17.3-2.9c-0.2,5.8-3.1,9-3.8,14.4c6.3,1.4,9.5,5.8,16.3,6.7
	C269.4,391.3,272,386.2,271.9,378.5z"/>
<path d="M382.1,140.5c0,0.1,0,0.1,0,0.2c-0.2-0.2-0.4-0.5-0.6-0.7L382.1,140.5z"/>
<path d="M418.6,154c-0.2,0-0.4,0-0.6-0.1h0.5L418.6,154z"/>
<path d="M474.1,52.1c0,0.1-0.1,0.2-0.2,0.4l-0.2-0.3C473.8,52.2,473.9,52.1,474.1,52.1z"/>
<path d="M418,153.9c-0.7,0-1.3-0.1-2-0.1c0-0.2,0-0.5,0-0.7C416.9,153,417.3,153.6,418,153.9z"/>
<path d="M451.2,146.7L451.2,146.7l-0.3,0.2L451.2,146.7z"/>
<path d="M393.1,137.7c0,0.1-0.1,0.1-0.1,0.2c-0.3,0.9,0,2.4-0.6,3.1c-2.5-0.6-4-3.4-3.8-6.3c0-0.5,0.1-0.9,0.2-1.4
	C390,135.1,391.4,136.5,393.1,137.7z"/>
<path d="M392.8,143.7c-1.4,0.2-1.9-0.6-2.7-1c-0.1,0.6,0,1.2,0.3,1.7C391.5,144.4,392.4,144.4,392.8,143.7z"/>
<path d="M384.6,131.3c-1.7,2.2-2.5,5.3-2.4,9.2l-0.6-0.5c-2.6-3.1-4.2-6.9-4.7-10.9c-1.1,0.5-0.6,2.7-1,4c-2.5-4.9-5.3-11.8-4.4-19
	c0.4,0.8,0.9,1.7,1.4,2.5c-0.1,4.3,0.9,8.8,2.7,11.2c0.1-2,0.4-3.9,0.8-5.9c0.2-1,0.6-1.9,1.2-2.8c-0.1,1.5-0.1,3,0,4.4
	c0.1,4.7,1.5,9.3,4,13.2c0.4-2.2,1.1-4.4,2.1-6.4C383.9,130.7,384.2,131,384.6,131.3z"/>
<path d="M474,39.1c-1.8-4.1-3-8.4-3.6-12.8c3.1-3.9,6-9.7,5.3-16.3c-0.4,1.9-1.1,3.6-2,5.3c-0.2-1,0.4-2.9-0.3-3.3
	c0,1.2-0.3,2.3-1,3.3c-0.3-1.7-0.9-3.4-1.7-5c1.9,7.9-1.6,9.3-5.1,12.7c-1.7,1.7-2.9,3.2-4.9,5.6c-9.9-5.5-21-8.5-32.3-8.6
	c-7.8,0-15.5,1.4-22.8,4.2c-8.3-5-16.2-10.3-15.5-24.2c-0.1,2.2-0.6,4.3-1.3,6.3c-0.3-1.4-0.3-3-1-4v4.6c-0.8,0-0.5-1.3-1.3-1.3
	c-1,5,3.7,8.3,4,12.9c0.1,1.8-0.8,3.6-1,5.3c-0.2,2.9,0.1,5.9,0.8,8.7c-1.7,1.2-3.3,2.6-4.8,4c1.6-1.1,3.3-2.2,5.1-3.1l0,0
	c1.1,2.6,2.5,4.9,4.3,7.1c0.2-3,0-6-0.5-9c0.7-0.3,1.4-0.7,2.2-1c0.8,1.8,1.3,3.7,1.4,5.7c0,4.8-3.2,8-6.6,12.3
	c-2.9,3.6-5.8,7.7-8.3,10.6c-2.3,2.7-5.8,4.6-5.6,8.3c4.5,1,7.3,8.6,12,5.3c-1.1,2.6-4.4,2.6-6.3,0.7c-0.2,7.8-7.5,8.4-11.6,12.9
	c-3,3.3-5.5,8.7-0.7,11c-1.5,0.7-3-1.3-3,0c-1,3.5,2,5.7,4.3,7c-0.6,0.4-1.9,0.1-2.3,0.7c0.8,1.6,1.9,3,3.3,4c3,0.3,4.6-0.9,6.3-2
	c0.9-7.6-8.9-9.5-8.3-15.9c0.3-3.5,7.2-8.7,10.6-10c-3.4,2.9-6.7,5.7-8.6,10c4.2,1.7,9.6,1.2,13.9,2c3-1.3,4.4-4.2,7.6-5.3
	c-2,1.8-3,4.1-5.6,6.6s-7.5,5.2-8.3,8c-1.4,4.7,6.7,7,9.3,7.3c4.1,0.5,9.2-0.4,14.3,0c6.9,0.5,14,4,17.6,7.6
	c4.1,4.3,0.8,10.8-1.3,15.9c-1.6,3.8-3.5,7.6-5.3,10c-1.3,1.7-3.3,2.7-5.4,2.8c-5.6,0.4-12.7-3.5-18.5-0.4c-0.1,0.3-0.2,0.5-0.3,0.8
	c-0.7-0.4-1.3-0.7-2-1.1c1.4,3.1-0.2,9.3,3.9,10.3c0.2-0.8-0.4-2.4,0.3-2.7c0.5,1.3,1,2.5,1.7,3.6c1.2,0,0.8-1.7,1.7-2
	c0.6,0.7,0.5,2.1,1.3,2.7c0.4-0.7,1-1.3,1.7-1.7c0.6,0.6,0.8,1.7,1.7,2c0-0.9-0.3-2.3,0.7-2.3c0.8,0.9,1.1,2.2,2.3,2.6
	c-0.1-0.8,0.1-1.7,0.7-2.3c0.7,0.8,0.9,2.2,2.3,2.3c0.2-0.6-0.4-1.9,0.3-2c0.9,0.6,1.7,1.4,2.7,2c0.2-0.6-0.4-1.9,0.3-2
	c0.7,0.5,1.5,1,2.3,1.3c0.2-0.9-0.4-2.6,0.3-3c0.9,0.6,2.9,2,3.7,1.7c-0.4-0.6-0.6-1.2-0.6-1.9c0-0.2,0-0.5,0-0.7
	c0.9,0,1.3,0.6,2.1,0.9h0.5c1,0,2,0.1,2.9,0.1c4.3,0,8.7-0.5,12.9-1.4c-0.4,1.5-0.7,3.1-0.9,4.6c6.1-2.9,12.3-7.3,17.2-10.4l0.4-0.2
	l0,0c-0.5,1.5-2.2,3.5-2,4.6c5.1-3.1,10.1-6.3,14.3-10.3c-0.4,1.4-2.2,3.1-1.7,4.3c8.7-6.1,15.2-13.2,18.5-23.2
	C498.9,96.7,496.2,61.5,474,39.1z M457.1,59.4c-0.7-0.6-1.5-1.1-2.3-1.7c0.1,1.4,1.8,2.8,1.3,3.6c-0.8-0.4-2.2-1.8-2.7-1.3
	c1.2,1,2.2,2.3,3,3.6c-0.5,0-1.4-1.2-1.7-0.3c2.4,2.2,4.4,4.9,7,7c-0.1-2.2,0.2-4.5,0.7-6.6c-0.1,1.8,0.1,3.6,0.7,5.3
	c0.3-1.4,0.4-3.2,1-4.3c0.3,1.8,0.4,3.5,0.3,5.3c-0.1,0.6,0.4,0.8,0.3,0c0.3-2.3,0-5.4,1-7c0,0.4-0.1,0.9,0.3,1
	c-2.2-6.5-0.2-13.7,0.5-20.1c1.2,1.2,2.3,2.4,3.4,3.6l0.3,0.3c0.3,0.3,0.5,0.6,0.8,0.9c-0.4,0.9-0.6,1.8-0.6,2.7
	c0.4-0.4,0.9-1.1,1.4-1.7c0.2,0.2,0.4,0.5,0.6,0.7c-1,1.8-2.2,3.9-2.3,5.3c1-1.1,2.5-3.1,3.6-3.6c0.1,0,0.2-0.1,0.4-0.1
	c0,0.1-0.1,0.2-0.2,0.4c-0.9,2-2.3,4.7-2.5,6.3c1-1.1,2.6-3.3,3.7-3.3c-0.9,2.2-2.8,5.2-3,7c1.3-0.9,2.1-2.4,3.7-3
	c-2.8,6.4-9.8,10.5-9.3,19.2c-5.8-7.1-12.1-13.8-20.9-17.9c1.6,0,3.9,1.2,5,0.7c-1.7-0.5-3.3-1.4-4.7-2.7c0.9-0.2,2.6,0.4,3-0.3
	c-3.2-1.4-6.5-2.8-8-6c2.4,0.3,5,2.3,7,2c-0.6-1.1-1-2.2-1.3-3.3c0.9,0.1,2,2.9,2.3,1.3c0.1-1.1-0.6-1.4-0.3-2.6
	c0.7,0,1.5,2.2,1.7,0.7c0.2-0.9-1-2.1,0-2.6c0.2,0.8,0.3,1.7,1.3,1.7c-0.2-0.9,0.1-1.9,0.7-2.7c0,0.7,0.4,1.4,1,1.7
	c0.3-1.5,0.9-3,1.7-4.3c0.3,4.4,1.1,8.7,2.3,12.9c-0.4,0-1.2-1.1-1.3-0.3C456.5,57.5,457,58.4,457.1,59.4L457.1,59.4z M406.4,27.2
	c1-0.2,2.1-0.5,3.1-0.7c4-0.7,8-1.1,12-1.1c10.6,0,21,2.6,30.3,7.6c0.7,0.4,1.3,0.7,2,1.1c0.5,0.3,1,0.6,1.5,0.9
	c0.1,0.1,0.2,0.2,0.2,0.2c-1.8,2.5-9.2,15.7-22.5,16.6c-4.2,0.2-8.4,0.7-12.6,1.3c7.9-5.2,21-6.9,25.9-13.9c-3.1,1.7-7.2,4-10.3,4.6
	c3.1-1.6,6.1-3.4,9-5.3c-1.9,0-4.1,1.4-5.6,0.7c3-0.8,6.2-1.6,8.6-3c-9.3-4.2-21.7,0.2-29.9,1.7c1.6-0.6,3.1-1.5,4.3-2.6
	c-6.6-0.7-12.3,1.2-16.6,1.6c3.1-1.5,6.3-2.8,9.6-3.6C412.6,30.8,409.6,28.8,406.4,27.2L406.4,27.2z M406.4,81
	c-2.1,0.7-4.2,1.4-6.3,2.3c1.4-2.7,7.5-3.6,7.6-8.6c-2.9,1.3-9,3.6-12.3,0.7c0-1.1-0.2-2.2-0.3-3.3c1.1,2.6,3.5,3.5,7.3,2.7
	c6.3-1.4,12.8-9.2,19.2-9.6c-2.5,2.4-8.1,4.7-11.6,7.3c7.1-0.4,11,4.6,19.6,3.6c-5.9,0.5-10.7,5.9-16.3,6.3c-3.2,0.2-6.1-1.6-8,1.7
	C404.3,82.9,406.7,82.5,406.4,81L406.4,81z M397.4,61.7c3.3-10.4,11-19.3,22.9-22.2C411.4,45.7,402.5,51.8,397.4,61.7L397.4,61.7z
	 M428.9,39.8c0.7,1.3-1.5,1.4-2.3,2c-7.4,5.1-15.2,11.6-19.6,19.9C410,51.1,418.3,42.9,428.9,39.8L428.9,39.8z M388.8,61.1
	c4.6-10.6,11.6-19,23.6-22.2c-7.9,5.5-15.9,11.5-21.6,19.9C390.2,59.5,389.4,62,388.8,61.1z M389.8,85.7c1.5-2,3.1-1.9,6.3-2
	c-0.9-2.9-8.1-1.9-11-0.3c1.2-1.9,5.9-3.5,9.6-2.7c2.9,0.6,4.1,4.3,6,5.3C398,85.5,393.3,83.9,389.8,85.7z M396.1,100.9
	c2.8-1.1,6.8-3.4,11-4c2.9-0.4,6.8-1.1,9,1c-7,0.9-15.2,0.7-20.2,3.6C395.1,101.3,396.1,101.3,396.1,100.9L396.1,100.9z M395.8,96.9
	c3.3-2.4,7.2-4,11.3-4.6c2.3-0.3,5.8-1,7.3,1C408,94.4,400.5,94.2,395.8,96.9L395.8,96.9z M397.1,105.6c-0.6-0.3,0.4-0.2,0.3-0.7
	c2.2-0.8,6-2.9,9.6-3.3c2.7-0.3,6.9-0.9,7.6,2C408.4,102.7,401.4,103.4,397.1,105.6L397.1,105.6z M413,108.2
	c7.2-3.1,8.4-18-0.7-19.9c-6.7-1.4-12.4,3.3-16.9,4.6c5.4-3.9,16.2-9.7,22.9-3.6C424,94.4,419.9,106.5,413,108.2L413,108.2z
	 M454.2,123.8c-0.8,9.1-7.3,21.6-15.3,23.9l0,0h-0.3c1.1-4.4,1.2-9.7,0-13.4c1.7,2.9,2.1,7.8,2,11.6c2.1-5.5,1.3-12.7-1.7-16.6
	c2.9,2.2,4.3,5.9,4.6,10.6c1.1-3.4,1.4-7.1,0.7-10.6c1.3,1.7,1.5,4.5,2,7c1.7-6,4.1-11.8,4-18.3c-0.1-10.1-7.7-16.9-11.3-22.6
	C446.6,102.1,455.3,110.2,454.2,123.8L454.2,123.8z M438.2,101.6c5.7,3.4,10.2,11,7.6,20.6C445.8,112.8,442.4,106.8,438.2,101.6
	L438.2,101.6z M430.9,88c14,0.6,24.1,8,26.2,21.6C452.7,98,444.1,90.7,430.9,88L430.9,88z M432.3,84.6c13.4-1.7,22.1,7.1,25.9,17.3
	C452.2,93.4,445.1,86.2,432.3,84.6L432.3,84.6z M466.1,128.5c5.3-27.1-13.6-48.8-37.5-47.5c-4.6,0.2-8.9,2.2-11.9,5.6
	c-1.8-1.3-4.2-2-6.3-3c-1.1-0.4,4.7,0.2,5.3,1.3c2.4-1.1,3.8-3.1,5.6-4c20.8-10.3,47.4,7.3,49.8,26.6
	C472.1,115.3,468.1,121.8,466.1,128.5L466.1,128.5z M473.8,106.8c-1.3-6.5-0.7-10.5-3.3-14.6c-3-4.6-8.8-6.4-10.3-12.6
	C468.9,84.4,475.6,92.6,473.8,106.8z M482.4,99.5c-2.4-8.9-10.6-16-10.6-24.9c0-6.1,4.2-10.4,7.2-13.8c7.5,15.1,8.9,32.5,3.7,48.5
	c0-0.1,0-0.2,0-0.3C482.9,105.8,483.1,102.5,482.4,99.5L482.4,99.5z"/>
<path d="M380.8,76.7c-1.4-0.2-1.8-3.2-0.7-4c0.4,0.5,0.3,1.5,1.3,1.3c-0.3-2-2.1-2.5-3.7-3.3C375.8,73.2,378.5,78.6,380.8,76.7z"/>
<path d="M421,76.3c-1.9-0.8-4-1.5-6-2c-0.6,1.8-0.9,3.7-1,5.6c-1.3-1.1-2.8-1.8-2.7-4.3c1.2,0.2,1.9-0.1,2-1
	c-0.6-0.6-2.2-0.2-3.3-0.3C406.2,83.2,419,81.7,421,76.3z"/>
<path d="M378.2,79.3c0.6-0.9-1.1-1.9-1.7-2.6C376.6,78,376.7,79.4,378.2,79.3z"/>
<path d="M376.5,81c0.7-0.7-0.2-1.8-0.7-2.3C375.9,79.6,375.6,80.9,376.5,81z"/>
<path d="M381.1,95.9c0.6-1.2,3.6-0.2,4.6-1c-1.4-2.1-4.8-0.6-7.3-1c-2.1-0.3-3.3-1.9-5-1.7h-0.7c-1,2.3,4.3,1.3,2.3,4.6
	c0.9,0.7,1.9,3,3,2.3c-0.8-0.2-1-2.7-0.3-3.3c0.4,1.8,0.7,3.7,2.3,4.3C381.3,99.6,381.2,97.7,381.1,95.9z"/>
<path d="M375.5,109.8c0.4,1.8,1.7,3.2,3.3,4c0.2-1.8,0.8-4.9,0.7-6C378.9,109.2,377,109.3,375.5,109.8z"/>
<path d="M398.8,117.2c0.6-1.8,0.1-4.7,0.7-6.6c-1.7-0.3-2.4,0.5-4,0.3C395.4,114,396.6,116.1,398.8,117.2z"/>
<path d="M404.4,110.8c-0.6-0.6-2.2-0.2-3.3-0.3c-0.5,1.7-1.6,4.6-0.7,6.6C400.9,114.2,402.5,112.4,404.4,110.8z"/>
<path d="M402.1,132.1c-0.3,3.6,0.7,10.3,5.6,8.6C408.7,136.3,404.2,134.5,402.1,132.1z"/>
<path d="M403.4,141.4c-2-0.2-3.8-0.6-5.8-0.6c-1,0-1.9,0.1-2.8,0.3c-0.3-0.7-1.4-1.3-0.7-2c0.2,0,0.4,0,0.7,0
	c0.6,0.1,0.8,0.7,1.7,0.7c-0.1-0.5,0.3-0.6,0.3-1c1.1,1.4,2.6-1.1,3.3,1c0.3-0.3,0.5-0.6,0.7-1C401.8,139.4,403.4,139.6,403.4,141.4
	z"/>
<path d="M470.3,47.8l-0.2,0.3c-0.1-0.2-0.1-0.4-0.1-0.6L470.3,47.8z"/>
<path d="M402.4,130.4c1.7,1.1,2.5,3.2,4.3,4.3c7.1-2.3-1.7-18.6,6.6-19.6c6.3,4,1.1,16.1-1,19.6c2.7-3.6,5.7-10.1,5-15.6
	c-1.1-8.5-14.6-10.1-16.3-1.7c-0.7,3.5,2,7.4,0,10.3c0.4-3.8-1.3-5.6-1-9.3c-1.8,0.9-4.1-1.9-5.3-3.6c-5.2,6.1,2.2,13.4-0.3,20.6
	c1.4,1.2,4.7,0.6,6.6,0.3C400.3,133.8,400.9,131.1,402.4,130.4z"/>
<path d="M406.7,144.7c3.1,1.2,7.3-0.5,7-2.7C412.4,144,409.4,144.2,406.7,144.7z"/>
<path d="M121.6,120.8c-0.7-1.3-1.4-2.5-2.4-3.7c-0.4,2.5,0.3,3.9,0.8,5.6c0.3,1.2,0.4,2.4,0.2,3.6c-1.4,0.5-2.9,0.8-4.4,0.9
	c-1.1,0.1-2.1,0.4-3,1c-0.8,0.4-1,1.4-0.9,2.6c0,2,0.5,4.3-0.9,4.8c-0.7-0.8-1.3-1.7-1.7-2.7c-0.7-1.8-1.2-3.9-2-5.6
	c-2.9-0.1-2.6,2.9-6.5,1.9c-3.4-3.7-5.2-9-4.6-16.7c-4,0.1-6.7,1.7-7.4-2.8c-0.6-3.4,3.2-2.3,4.6-3.7c4.9,1.9,8.1,5.5,11.1,9.3
	c-7-25.1,19.8-29.9,17.8-6.7c2-12.2,14.8-17.5,10.9-32.2c-1.7,7-2.5,14.8-10.2,15.8c-7.6-7.9-0.5-30.4-10.2-36.1
	c4.1,12.6,3.3,31.7-7.4,37.1c-2.3-3.3-4.7-6.4-11.1-5.6c-4.1,3.1,0.3,10.6,0,12c-6.1-0.5-10.5,0.6-15.8,0.9
	C73.3,91.6,84,80.8,86,76.4c-7.7,6.2-18.5,16.1-16.7,26.8c-7.4-15.1,11.9-33.7,20.4-39.8c-8.9,2.6-18.2,9.6-24.1,12
	c-0.5-3.9,4.7-7,2.8-9.3c-5,3-8.4,7.7-11.1,13c-5.4-9.9,0-24.5,1.9-31.5c-11.7,6.5-16.5,20-14.8,39.8c-8.2-5.4-8.9-18.2-11.1-29.6
	c-2.4,10.4-1.7,27.4-1.9,37.1c-2.9-4.9-11.1-13.4-14-18.2c-1.6,2.5-4.3,6.3-5.5,8.7c0-0.5-0.1-2-0.2-2.5C10.9,70.3,15.1,52,24.8,42
	c-0.9,4.1,0.1,10.8,1,15.9c4.8-32.6,58.9-40.8,80.6-17.6c1,0.4,1.1,0.9,0.9,0c-5-12.4-18.2-20.5-32.6-22.5c0.8,0,1.6-0.1,2.4-0.1
	c17.2,0,32.8,7.6,44.2,18.6C97.9,6.9,55.1,2.1,25.7,25.6s-34.2,66.3-10.8,95.7c14.5,18.2,37.4,27.8,60.6,25.2
	c-4.4-0.1-8.7-0.6-13-1.6c0.3-0.8,0.7-1.7,1.2-2.6c3.9-8.6,11.1-21.9,15.2-29c1.2,0.9,2.3,1.9,3.3,3c5.9,7,6.5,16.1,12,19.5
	c2.8,0,5.6,0.6,8.2,1.9c1.4,0.6,2.8,1.2,4.1,1.7c2.8,1.1,5.7,1.8,9,1c4.8-1.1,8-6.3,10.2-11.1c-0.6-1-1.2-2.2-1.7-3.3
	C123.2,124.2,122.5,122.5,121.6,120.8z M96.9,92c1.2-0.6,2.6-0.1,3.2,1c0.3,0.5,0.5,1.1,0.4,1.7c-0.1-0.1-0.1-0.3-0.2-0.4
	c-0.6-1.1-2-1.6-3.2-1c-0.5,0.4-0.9,1-0.9,1.6C95.7,94,96,92.7,96.9,92L96.9,92z M64,117.7c-1.3,6.1-4.3,19.4-2.2,27
	c-1.1-0.3-2.3-0.6-3.4-0.9c-0.9-10.8-0.2-22.2,3.3-30.3c1.8,1.1,7.3,0.4,11.1-1C70.3,114.8,67.3,116.6,64,117.7z"/>
<path d="M141.5,43.1c-4.4-2.4-9.8-2.5-14.3-0.2c-0.3,0.2-0.6,0.4-1,0.6c-2.9,1.6-4.9,4.6-5.1,8c-6-8.8-26.6-5.2-31.5-0.9
	c2.4-4.6,0.2-11.6-3.7-13c0,1.7,2.5,5.4,0,6.5c-2.1-3.7-4.6-7.1-10.2-7.4C69.8,39.2,76.4,49,72,52.3c-5.2,0-3.3-7.2-6.5-9.3
	c-1.1,6.3-3.8,11.1-3.7,18.5c18.2,4.9,29.6-11.6,43.5-12c12.4-0.4,19,9.1,27.8,16.7c0.4-0.8,0.9-1.6,1.4-2.4
	c0.8-1.3,1.6-2.6,2.4-3.9C140,55.1,143,49.6,141.5,43.1z"/>
<path d="M122,110.7c0.1-0.7,0.2-1.4,0.2-2.1C122.1,109.3,122.1,110,122,110.7z"/>
<path d="M675.2,417.4c-1.5,4.2-3.5,8.1-5.8,11.9c4.6,5.4,10,10,16.1,13.8c-4.6,0.5-9.2,0.4-13.8-0.3c-3.6-0.6-7.1-1.5-10.6-2.7
	c-25.1,26.3-66.8,27.3-93.2,2.2c-17.2-16.4-24.2-40.8-18.4-63.9c-0.2,1.8-0.2,3.6-0.2,5.5c0,21,10,40.8,27,53.1l0.6,0.5
	c0.3,0.2,0.7,0.5,1,0.7c0.1-0.1,0.2-0.3,0.3-0.4c2.8,1.7,6.6,2.4,11.2,2.2c4.8-4.4,8.4-9.9,10.6-16c1,1.4,1.8,2.8,2.5,4.4
	c-3.2,2.9-12.7,13.9,1.2,11.6c0.5,1.2,1.5,3.1,0.6,4.7c-3.7,0.6-6.7-2.1-10-2.5c-2.8-0.2-5.6,0.1-8.4,0.8c22,10.9,48.3,8.6,68.1-6
	c-25.7-15.2-27.5-53.7-54.7-67.7c19.7-1.2,32,9.5,41,20.3c9.3,11.1,16.6,24.5,25.8,35.9c2.2-2.7,4.2-5.5,5.9-8.5
	c-1.9-0.4-3.7-0.9-5.4-1.7c-7.8-3.6-11.6-10.8-15.6-18.2c5.6,3.7,12.4,9.2,21.3,11.6c1.2,0.3,2.3,0.6,3.6,0.8c0.5-1.2,1-2.4,1.4-3.6
	c-5.8-0.9-11.4-2.8-16.6-5.6l-1.8-0.8c-13-7.3-20.5-20.7-34.1-27.3c14.9,1.8,25.3,12.3,37.9,18.8c2.7,1.4,6,2.2,9.1,3.4
	c2.4,1,5,1.9,7.5,2.6l0.5,0.2c0.9,0.2,1.8,0.5,2.6,0.7c10.8,2.3,25.3,1.5,36.3-0.9c-6.8,4.2-15.4,6.7-24.1,9.1
	c-5.4,0.9-10.9,1-16.3,0.2c-0.2,1.2-0.5,2.5-0.7,3.7c8.6,1.2,18.4,0,25.8-3.2C697,412.4,686.1,418.2,675.2,417.4z"/>
<path class="st1" d="M595.7,407.2c5.8,10.9,19,14.3,28.2,21.9c-1.9-1.1-5.5-0.8-8.4-1.2C603.7,426.1,597.5,419.3,595.7,407.2z
	 M608.2,440.7c-0.2,1-2.2,0.3-2.5,1.2c-0.9-0.4-0.6-1.7-0.3-2.5c3.1-0.7,6.2,1.5,6.3,3.8C611.6,442.7,610.3,441.9,608.2,440.7z
	 M603.5,426.6c3.7,2,8.9,2.3,13.8,3.1c8.9,1.5,13.4,6.3,15,15C627.2,434.1,611,434.7,603.5,426.6L603.5,426.6z M624.1,402.2
	c6.1,10.7,11,22.4,19.7,30c-4.3-0.3-8.6-1.3-12.5-3.1c-12.9-5.5-20.6-16.1-25.7-29.1c-4-10.4-7.1-22.9-14.4-30.7
	C606.7,372.7,616.3,388.6,624.1,402.2L624.1,402.2z M647.3,372.8c6.3,4,13.3,6.8,20.7,8.5c-23.9,1.3-30.5-16.4-54.4-14.1
	c1.3-1.1,4.5-0.3,5.6-1.6C631.8,363.7,639.8,368.2,647.3,372.8L647.3,372.8z M662.3,360c-5.7-2.6-11.8-6.2-22.2-5
	c-15.6,1.8-32.5,14.2-45.7,3.4c0.1-0.4,0.3-0.2,0.3,0c13.8,1.7,23.2-3.4,33.5-6.3C642.2,349,655.1,353.3,662.3,360L662.3,360z
	 M589.1,347.7c6.6-2.1,12.1-5.2,16.3-9.7c-0.3,3.1-4.2,5.3-5.9,8.1c11.2-3.2,17.8-11.2,31.3-12.2h5.3c0.2,0.3,0.7,0.3,0.6,0.9
	c-11.2,0.8-18,6-24.4,11.6c14.1-4.5,33.7-3.1,44.1,3.8c-4.9-1.6-15.7-4.1-22.8-1.6C619.8,350.2,598.3,362.4,589.1,347.7z M575,349.2
	c11.3,0.8,14.5,9.7,21.6,14.7C585.6,364.1,580.7,355.5,575,349.2L575,349.2z M586.3,369.9c14.9,10.1,14.7,35.4,26.6,48.5
	c0.5,0.2,0,0.3-0.3,0.3c-8.5-4.3-14.2-10.3-17.8-19.7C591.2,389.9,591.1,378.5,586.3,369.9L586.3,369.9z M568.4,389.7
	c-5.6-1.9-5.7-12-6.6-19.7C566.4,374.2,564.3,385,568.4,389.7z M560.3,370c2.4,2.9,0.3,13,2.8,16.9
	C558.1,384.3,561.2,375.6,560.3,370L560.3,370z"/>
<path d="M575,349.3c5.7,6.2,10.6,14.8,21.6,14.7C589.5,359,586.3,350.1,575,349.3z"/>
<path d="M564.7,354.3c-1.5,0.7-3,1.3-4.6,1.7c-1.7,0.5-3.4,0.8-5.2,1.2c-6.3,1.3-12.8,2.4-15.9,6.8h-0.2v-1.2
	c1.2-6.4,4.3-10.9,10.3-12.5c2.4,1.5,4.9,2.6,7.6,3.4c1.5,0.4,3.1,0.6,4.7,0.7C562.5,354.4,563.6,354.4,564.7,354.3z"/>
<path d="M685.1,370.6c-3.3,0.8-6.7,1.1-10.2,0.9c-16.1-0.9-27.8-12.8-48.3-9.1c2.6-1.9,6.9-2,10-3.5c17.7-2.7,25.5,6.7,37.6,10.7
	c1,0.3,2,0.6,3.1,0.9H685.1L685.1,370.6z"/>
<path d="M619.1,365.5c-1.2,1.2-4.3,0.5-5.6,1.6c23.9-2.3,30.5,15.3,54.4,14.1c-7.3-1.6-14.3-4.5-20.7-8.5
	C639.8,368.2,631.8,363.7,619.1,365.5z"/>
<path d="M681.4,374.7l-1,0.3c-1.2,0.4-2.5,0.9-3.8,1.2c-4.6,1.5-9.5,1.8-14.3,0.9c-8.2-1.8-14-9.3-21.6-11c0.1-0.5-0.2-0.6-0.5-0.6
	c13.5,0.4,21.2,9.8,36,9.5c1.4,0,2.8-0.1,4.2-0.3C680.7,374.7,681.1,374.7,681.4,374.7z"/>
<path d="M568.4,389.7c-4.1-4.6-2-15.5-6.6-19.7C562.8,377.6,562.9,387.7,568.4,389.7z"/>
<path d="M576.9,437.5L576.9,437.5l-0.6-0.5C576.5,437.2,576.7,437.3,576.9,437.5z"/>
<path d="M633.5,348.7c7.1-2.6,17.9,0,22.8,1.6c-10.4-6.9-30-8.2-44.1-3.8c6.4-5.6,13.2-10.8,24.4-11.6c0.1-0.6-0.4-0.6-0.6-0.9h-5.3
	c-13.5,1-20,9-31.3,12.2c1.7-2.8,5.6-5,5.9-8.1c-4.2,4.5-9.7,7.6-16.3,9.7C598.3,362.4,619.8,350.2,633.5,348.7z"/>
<path d="M592.2,354.6c-5.9-3.6-16.2-8.5-24.8-7.1c-2.8,0.4-5.4,1.7-7.5,3.6c-0.7,0.2-1.4,0.3-2.1,0.3c-0.8,0-1.7,0-2.6,0
	c-1.3-0.8-2.4-1.8-3.8-2.5c1.1-2.3,3.7-3.2,7.2-3.1c1.5-0.3,2.8-1,4.1-1.9c1.1-0.9,2.4-1.5,3.8-1.9c2.5-0.5,5.1-0.6,7.6-0.2
	c8.5,1.3,13.7,8,18.4,12.4C593,354.5,592.6,354.6,592.2,354.6z"/>
<path d="M576.3,353c-3.3-1.9-8.8-0.6-13.6-0.3c-0.8,0-1.6,0.1-2.4,0c0.7-1.5,3.2-1.2,3.8-2.8c0.1,0.3,0.2,0.5,0.4,0.8
	c1.3,1.8,4.6,1,3.7-2.6C572.5,348.1,574.2,350.8,576.3,353z"/>
<path d="M628.2,352.1c-10.2,2.9-19.7,8-33.5,6.3c0-0.2-0.2-0.4-0.3,0c13.2,10.7,30-1.7,45.7-3.4c10.4-1.2,16.5,2.4,22.2,5
	C655.1,353.3,642.2,349,628.2,352.1z"/>
<path d="M576.6,383.4c0.3,5,4.2,9.1,6.9,12.8c-6.2-2.2-10-6.7-11.9-13.1c-0.9,2.3,0.4,5.2,1.3,6.9c-4.4-1.8-6.2-8.9-7.5-15.6
	c-0.9-4.6-2.8-7.8-8.4-6c-1.7,0.6-3.3,1.4-4.8,2.3c-0.5,0.3-1.1,0.7-1.6,1c-2.2,1.5-4.3,3.2-6.1,4.5c1.3-3.5,4-6.2,7.1-8.8
	c1.1-1,2.3-1.9,3.5-2.9c0.7-0.5,1.3-1.1,2-1.7c4.6-4,8-7.5,13.8-9.4c8.5,1.7,11.4,9,16.9,13.8c-1.1,0.6-4.6,1.3-5.6,0
	c1.7,3.8,3.9,7.8,5.3,13.1c1.6,6.1,1.8,13.7,5,17.8C584.4,397.1,579.9,390,576.6,383.4z"/>
<path d="M562.5,356.8c-1.3,2-3.4,3-5.6,4c-1.4,0.6-2.8,1.3-4.2,2c-0.9,0.5-1.7,1.2-2.4,2c0.8-1.5,1.8-2.8,3.1-3.8
	c1.6-1.4,3.4-2.5,5.4-3.2C560,357.3,561.3,357,562.5,356.8z"/>
<path d="M605.7,400c5.1,13,12.8,23.6,25.7,29.1c3.9,1.8,8.2,2.9,12.5,3.1c-8.7-7.6-13.6-19.4-19.7-30c-7.8-13.6-17.4-29.4-32.8-32.8
	C598.6,377,601.6,389.6,605.7,400z"/>
<path d="M563.1,386.8c-2.5-3.9-0.4-14-2.8-16.9C561.2,375.6,558.1,384.3,563.1,386.8z"/>
<path d="M612.6,418.7c0.3,0,0.8-0.2,0.3-0.3c-11.9-13.1-11.7-38.4-26.6-48.5c4.8,8.6,4.9,20,8.4,29.1
	C598.4,408.5,604,414.4,612.6,418.7z"/>
<path d="M731.4,381.5c-6,6-16.2,10.5-26.3,13.5c-4.1,0.8-7.8,1.2-7.8,1.2c-5.8,0.2-11.6-0.4-17.2-1.8l-1-0.3
	c-7.4-2.1-14.4-5.8-20.3-10.7c6.4,2.7,13.2,4.5,20.1,5.4l1.9,0.2C698.9,391.1,719.4,388.8,731.4,381.5z"/>
<path d="M623.8,429c-9.1-7.6-22.4-11-28.2-21.9c1.8,12.1,8,19,19.7,20.7C618.4,428.2,621.9,428,623.8,429z"/>
<path d="M617.3,429.7c-4.8-0.8-10-1.1-13.8-3.1c7.5,8.1,23.7,7.6,28.8,18.1C630.7,436,626.2,431.2,617.3,429.7z"/>
<path d="M605.4,439.4c-0.3,0.8-0.5,2.1,0.3,2.5c0.3-0.9,2.2-0.2,2.5-1.2c2.1,1.2,3.4,2,3.4,2.5C611.6,440.8,608.4,438.7,605.4,439.4
	z"/>
<path d="M595.1,411.9c0.1,1.5,0.8,3.2,0.5,4.9c-3.6,0.3-10.6,2.7-13.9,5.2c-0.6,2.6,3.7,3.8,5.8,5.7c-0.3,1.2-0.1,2.3-1.5,3.8
	c-3.7-1.2-4.8-5-8-7.6c-5-4.1-12.8-5.1-15.5-10.1c1.2-2.3,2.8-2,4.3-2.3c2.3,2.9,4.7,6.7,8.5,8C580.2,421,590.8,413.6,595.1,411.9z"
	/>
<path d="M565.9,410.3c-2.4,1.2-5.3-4.7-8.4-1.3C558.8,405.9,564.6,406.8,565.9,410.3z"/>
<path d="M588,430.2c-0.2-0.7,0-1.4,0.5-1.9c3.1,0.6,4.9,3.7,3.9,6.2C592.3,433.4,590.8,429.4,588,430.2z"/>
<path class="st2" d="M16.2,214.3L2.5,193.1h12.3l5.2,10.1c0.6,1,1.1,2.2,1.3,3.3c0.3-1.2,0.7-2.3,1.4-3.3l5.2-10.1h12.2l-13.7,21.3
	v17.8H16.2V214.3z"/>
<path class="st2" d="M75,227.2c-4,3.8-9.3,6-14.8,6c-4.8,0-9.5-1.7-13.3-4.7c-8.7-7-10.1-19.7-3.2-28.4c0.5-0.7,1.1-1.3,1.7-1.9
	c8.2-8,21.4-8,29.6,0c8,7.9,8.1,20.7,0.3,28.7C75.2,227,75.1,227.1,75,227.2z M70.4,212.7c0-6.3-4.3-11.5-10.2-11.5
	s-10.2,5.1-10.2,11.5s4,11.5,10.2,11.5C66.2,224.2,70.4,219.1,70.4,212.7z"/>
<path class="st2" d="M98.1,193.1v21.2c0,6.9,1.3,10,6.8,10c6.5,0,6.8-4,6.8-12.4v-18.8h10.6v23.2c0,11.8-5,16.9-17.4,16.9
	c-6.6,0-11.2-1.5-14-4.8c-3.1-3.5-3.4-8.1-3.4-14.3v-21.1H98.1L98.1,193.1z"/>
<path class="st2" d="M136,202.3h-8.7v-9.2h28.1v9.2h-8.8v29.9H136V202.3z"/>
<path class="st2" d="M160.6,193.1h10.7v15.2h14.2v-15.2h10.7v39.1h-10.7v-15.9h-14.2v15.9h-10.7V193.1L160.6,193.1z"/>
<path class="st2" d="M221.6,193.1h10.7v30h13.2v9.1h-23.9L221.6,193.1L221.6,193.1z"/>
<path class="st2" d="M250.7,193.1h24v8.6h-13.6v6.8h12.8v8.4h-12.8v6.6h13.6v8.8h-24L250.7,193.1L250.7,193.1z"/>
<path class="st2" d="M290.6,193.1h13.3l13.5,39.1h-10.6l-2-7h-15.1l-2,7h-10.6L290.6,193.1z M302.6,217.6l-4-12.9
	c-0.2-0.6-0.6-2.4-1.3-5.2c-0.7,2.9-1.2,4.6-1.4,5.2l-3.9,12.9H302.6L302.6,217.6z"/>
<path class="st2" d="M321.2,193.1h9.4c7.3,0,13.1,0.1,18.3,3.7c5,3.4,7.5,8.9,7.5,15.9s-2.6,12.4-7.5,15.9s-10.3,3.7-16.8,3.7h-10.9
	V193.1L321.2,193.1z M333.5,223.4c8.2,0,12-3.1,12-10.8s-4-10.8-12-10.8h-1.8v21.6L333.5,223.4L333.5,223.4z"/>
<path class="st2" d="M363.1,193.1h24v8.6h-13.6v6.8h12.8v8.4h-12.8v6.6H387v8.8h-24L363.1,193.1L363.1,193.1z"/>
<path class="st2" d="M394.1,193.1h11.8c5.4,0,9.6,0,12.9,2.6c2.9,2.3,4.5,5.9,4.4,9.6c0,6.1-3.1,10-8.8,11.1l10.7,15.8h-12l-9-15.3
	v15.3h-10V193.1L394.1,193.1z M406.1,211.5c4.5,0,6.6-1.4,6.6-4.9c0-4.1-2-5.4-6.5-5.4h-2.1v10.3H406.1L406.1,211.5z"/>
<path class="st2" d="M440.1,224.9c3,0,4.9-1.8,4.9-4c0-3.1-2.1-4-6.6-5.2c-7-1.9-10.5-4.7-10.5-10.8c0-7.3,5.3-12.7,13.5-12.7
	c4.1-0.1,8.2,1.1,11.6,3.5l-3.3,7.7c-2.1-1.9-4.7-3-7.5-3.1c-2.6,0-4.3,1.4-4.3,3.3c0,2.8,2.7,3.4,6.2,4.3
	c6.9,1.9,10.8,4.4,10.8,11.6c0,8.1-5.8,13.8-15,13.8c-5.5,0-9.7-1.8-13.9-5.7l4.8-7.9C434,223.1,437,224.9,440.1,224.9z"/>
<path class="st2" d="M460.9,193.1h10.7v15.2h14.2v-15.2h10.7v39.1h-10.7v-15.9h-14.2v15.9h-10.7V193.1L460.9,193.1z"/>
<path class="st2" d="M505,193.1h10.8v39.1H505V193.1z"/>
<path class="st2" d="M524.4,232.1V193h11.9c4.9,0,8.8,0,11.9,2c3.4,2.2,5.5,6.2,5.5,11.3c0,5.2-1.9,9.1-5.4,11.2
	c-2.7,1.6-5.7,1.8-9.3,1.8h-4.5v12.9L524.4,232.1L524.4,232.1z M536.4,210.7c4.5,0,6.9-0.9,6.9-4.6s-2.5-4.5-6.8-4.5h-2.1v9.2
	L536.4,210.7L536.4,210.7z"/>
<path class="st2" d="M576.1,193.1h9.4c7.3,0,13.1,0.1,18.3,3.7c4.9,3.4,7.5,8.9,7.5,15.9s-2.6,12.4-7.5,15.9
	c-4.9,3.5-10.3,3.7-16.8,3.7h-10.9V193.1L576.1,193.1z M588.5,223.4c8.2,0,12-3.1,12-10.8s-4-10.8-12-10.8h-1.8v21.6L588.5,223.4
	L588.5,223.4z"/>
<path class="st2" d="M625.9,193.1h13.3l13.5,39.1h-10.6l-2-7h-15.1l-2,7h-10.6L625.9,193.1z M637.9,217.6l-4-12.9
	c-0.2-0.6-0.6-2.4-1.3-5.2c-0.7,2.9-1.2,4.6-1.4,5.2l-3.9,12.9H637.9L637.9,217.6z"/>
<path class="st2" d="M661.4,214.3l-13.7-21.3H660l5.2,10.1c0.6,1,1.1,2.2,1.3,3.3c0.3-1.2,0.7-2.3,1.4-3.3l5.2-10.1h12.2l-13.7,21.3
	v17.8h-10.3V214.3z"/>
<g class="st3">
	<path d="M10.9,270.8v14.6H5.5v-35.9h6.1c3,0,5.3,0.2,6.8,0.6c1.6,0.4,2.9,1.2,4.1,2.4c2.1,2,3.1,4.6,3.1,7.6c0,3.3-1.1,5.9-3.3,7.8
		c-2.2,1.9-5.2,2.9-8.9,2.9H10.9z M10.9,265.8h2c5,0,7.5-1.9,7.5-5.8c0-3.7-2.6-5.6-7.7-5.6h-1.8V265.8z"/>
	<path d="M41.2,263.5h15.5v-14.1h5.4v35.9h-5.4v-16.8H41.2v16.8h-5.4v-35.9h5.4V263.5z"/>
	<path d="M73.4,267.3c0-5.1,1.9-9.4,5.6-13c3.7-3.6,8.1-5.4,13.3-5.4c5.1,0,9.5,1.8,13.2,5.5c3.7,3.7,5.5,8.1,5.5,13.2
		c0,5.2-1.8,9.6-5.5,13.2c-3.7,3.6-8.2,5.4-13.4,5.4c-4.6,0-8.8-1.6-12.5-4.8C75.4,277.7,73.4,273,73.4,267.3z M78.9,267.3
		c0,4,1.3,7.2,4,9.8c2.7,2.6,5.7,3.8,9.2,3.8c3.8,0,7-1.3,9.5-3.9c2.6-2.6,3.9-5.8,3.9-9.6c0-3.8-1.3-7-3.8-9.6
		c-2.5-2.6-5.7-3.9-9.5-3.9c-3.7,0-6.9,1.3-9.5,3.9C80.2,260.4,78.9,263.6,78.9,267.3z"/>
	<path d="M142.1,254.6h-14.4v8.6h14v5.1h-14v12h14.4v5.1h-19.8v-35.9h19.8V254.6z"/>
	<path d="M153.7,285.4V247l26.2,27.4v-25h5.4v38.1l-26.2-27.4v25.2H153.7z"/>
	<path d="M203.9,249.5v35.9h-5.4v-35.9H203.9z"/>
	<path d="M224.5,266.6l-9.9-17.2h6.2l6.9,12.2l7.2-12.2h6.2l-10.4,17.2l10.9,18.8h-6.1l-8-13.8l-8.2,13.8h-6.1L224.5,266.6z"/>
	<path d="M275.5,249.5v35.9h-5.4v-35.9H275.5z"/>
	<path d="M288.7,285.4V247l26.2,27.4v-25h5.4v38.1l-26.2-27.4v25.2H288.7z"/>
	<path d="M333.4,285.4v-35.9h7.5c3.6,0,6.5,0.4,8.6,1.1c2.3,0.7,4.3,1.9,6.1,3.6c3.7,3.4,5.6,7.8,5.6,13.3c0,5.5-1.9,10-5.8,13.4
		c-1.9,1.7-4,2.9-6.1,3.6c-2,0.7-4.8,1-8.5,1H333.4z M338.8,280.3h2.4c2.4,0,4.5-0.3,6.1-0.8c1.6-0.5,3.1-1.4,4.4-2.6
		c2.7-2.4,4-5.6,4-9.5c0-3.9-1.3-7.1-4-9.6c-2.4-2.2-5.9-3.3-10.5-3.3h-2.4V280.3z"/>
	<path d="M377.9,249.5v35.9h-5.4v-35.9H377.9z"/>
	<path d="M412.2,276.7h-15.4l-4,8.7h-5.8l17.8-38.2l17.2,38.2h-5.9L412.2,276.7z M409.9,271.6l-5.3-12.2l-5.6,12.2H409.9z"/>
	<path d="M430.8,285.4V247l26.2,27.4v-25h5.4v38.1l-26.2-27.4v25.2H430.8z"/>
	<path d="M521.3,251.4v6.4c-3.1-2.6-6.4-3.9-9.7-3.9c-3.7,0-6.8,1.3-9.3,4c-2.5,2.6-3.8,5.9-3.8,9.7c0,3.8,1.3,7,3.8,9.5
		c2.5,2.6,5.7,3.9,9.4,3.9c1.9,0,3.5-0.3,4.9-0.9c0.7-0.3,1.5-0.7,2.3-1.3c0.8-0.5,1.6-1.2,2.5-1.9v6.6c-3.1,1.8-6.4,2.6-9.8,2.6
		c-5.1,0-9.5-1.8-13.2-5.4c-3.6-3.6-5.4-8-5.4-13.1c0-4.6,1.5-8.7,4.5-12.2c3.7-4.4,8.5-6.6,14.5-6.6
		C515.2,248.8,518.3,249.6,521.3,251.4z"/>
	<path d="M552.5,254.6h-14.4v8.6h14v5.1h-14v12h14.4v5.1h-19.8v-35.9h19.8V254.6z"/>
	<path d="M564.1,285.4V247l26.2,27.4v-25h5.4v38.1l-26.2-27.4v25.2H564.1z"/>
	<path d="M618.7,254.6v30.8h-5.4v-30.8h-8.3v-5.1H627v5.1H618.7z"/>
	<path d="M656.1,254.6h-14.4v8.6h14v5.1h-14v12h14.4v5.1h-19.8v-35.9h19.8V254.6z"/>
	<path d="M679.9,270.1l11.1,15.3h-6.6l-10.3-14.7h-1v14.7h-5.4v-35.9h6.4c4.7,0,8.2,0.9,10.3,2.7c2.3,2,3.5,4.6,3.5,7.9
		c0,2.5-0.7,4.7-2.2,6.6C684.2,268.4,682.3,269.6,679.9,270.1z M673.2,266h1.7c5.1,0,7.7-2,7.7-5.9c0-3.7-2.5-5.5-7.5-5.5h-1.9V266z
		"/>
</g>
<line class="st4" x1="4.7" y1="241.9" x2="683.4" y2="241.9"/>
</svg>
