<svg id="Renew_logo" data-name="Renew logo" xmlns="http://www.w3.org/2000/svg" viewBox="0 0 328.71 414.2"><defs><style>.cls-1{fill:#00a4b8;}.cls-2{fill:#d75820;}.cls-3{fill:#ef4e23;}</style></defs><title>logo_renew</title><path class="cls-1" d="M589.33,394.18v27l-15.86.07V379.41h15.86v3.09a9.33,9.33,0,0,1,2.68-1.91,16,16,0,0,1,3-1,11.16,11.16,0,0,1,2.61-.18,27,27,0,0,1,3.53.33,33,33,0,0,1,3.82.84,17.7,17.7,0,0,1,3.52,1.4,9,9,0,0,1,2.57,2,3.86,3.86,0,0,1,1,2.61,6.75,6.75,0,0,1-.48,2.42,8.15,8.15,0,0,1-1.32,2.28,7.23,7.23,0,0,1-2,1.69,4.67,4.67,0,0,1-2.39.66,4.58,4.58,0,0,1-2.68-.84q-1.21-.85-2.43-1.87a28.6,28.6,0,0,0-2.46-1.87,4.89,4.89,0,0,0-2.79-.84,6.16,6.16,0,0,0-4.77,1.69A8.24,8.24,0,0,0,589.33,394.18Z" transform="translate(-517.94 -150)"/><path class="cls-1" d="M625.65,410.48a8.79,8.79,0,0,0,6.21,2.43,10.1,10.1,0,0,0,4.74-.77,12,12,0,0,0,2.76-1.87q1.1-1,2.09-1.91a4.24,4.24,0,0,1,2.9-.88,5.22,5.22,0,0,1,3.56,1.32,4.53,4.53,0,0,1,1.58,3.38,5.3,5.3,0,0,1-1.54,3.64,17,17,0,0,1-4.19,3.42,25,25,0,0,1-5.8,2.5,22.58,22.58,0,0,1-6.39,1,36.34,36.34,0,0,1-9.88-1.39,21.4,21.4,0,0,1-7.68-4,18.15,18.15,0,0,1-5-6.76,25.25,25.25,0,0,1-1.95-9.59,19.17,19.17,0,0,1,1.72-8.92,19.74,19.74,0,0,1,5.14-6.68,22.7,22.7,0,0,1,7.6-4.19,28.81,28.81,0,0,1,9.11-1.43,26.37,26.37,0,0,1,9.29,1.58,19.89,19.89,0,0,1,7.2,4.55,18.52,18.52,0,0,1,4.44,7.38,25.17,25.17,0,0,1,1,10l-0.22.37H623Q623.41,408.21,625.65,410.48Zm13.63-17.85a5.87,5.87,0,0,0-1.91-2.13,9.81,9.81,0,0,0-5.88-1.69q-6.1,0-7.93,6.46h16.6A14.17,14.17,0,0,0,639.28,392.64Z" transform="translate(-517.94 -150)"/><path class="cls-1" d="M667.41,382.35a10,10,0,0,1,2.57-1.76,21.28,21.28,0,0,1,2.68-1.06A14.69,14.69,0,0,1,675,379a13.16,13.16,0,0,1,1.65-.15,35.44,35.44,0,0,1,8.89,1.25,18.6,18.6,0,0,1,6.28,3.09,14.48,14.48,0,0,1,4,4.85,23.18,23.18,0,0,1,2.13,6.46c0.05,0.25.09,0.47,0.11,0.66s0,0.51.07,1,0,1.08.07,1.91,0,2,0,3.53v14.54a4.18,4.18,0,0,1-.73,2.5,5.56,5.56,0,0,1-1.88,1.65,9.1,9.1,0,0,1-2.57.92,13,13,0,0,1-5.51,0,9.1,9.1,0,0,1-2.57-.92,5.87,5.87,0,0,1-1.91-1.65,4,4,0,0,1-.77-2.5V401.3a57.49,57.49,0,0,0-.33-6.76,13.94,13.94,0,0,0-1.14-4.37,5.28,5.28,0,0,0-2.24-2.43,8.22,8.22,0,0,0-3.64-.84l-1.06,0a9.35,9.35,0,0,0-2.09.37,9.66,9.66,0,0,0-2.39,1.07,5.85,5.85,0,0,0-2,2.13v30.7l-15.94.07V379.34h15.94v3Z" transform="translate(-517.94 -150)"/><path class="cls-1" d="M715.26,410.48a8.78,8.78,0,0,0,6.2,2.43,10.11,10.11,0,0,0,4.74-.77,12,12,0,0,0,2.76-1.87q1.1-1,2.1-1.91a4.23,4.23,0,0,1,2.9-.88,5.22,5.22,0,0,1,3.56,1.32,4.54,4.54,0,0,1,1.58,3.38,5.32,5.32,0,0,1-1.54,3.64,17.11,17.11,0,0,1-4.19,3.42,25,25,0,0,1-5.8,2.5,22.56,22.56,0,0,1-6.39,1,36.38,36.38,0,0,1-9.88-1.39,21.44,21.44,0,0,1-7.67-4,18.15,18.15,0,0,1-5-6.76,25.2,25.2,0,0,1-1.95-9.59,19.16,19.16,0,0,1,1.73-8.92,19.79,19.79,0,0,1,5.14-6.68,22.73,22.73,0,0,1,7.6-4.19,28.84,28.84,0,0,1,9.11-1.43,26.38,26.38,0,0,1,9.29,1.58,19.83,19.83,0,0,1,7.19,4.55,18.55,18.55,0,0,1,4.45,7.38,25.25,25.25,0,0,1,1,10l-0.22.37H712.65Q713,408.21,715.26,410.48Zm13.63-17.85a5.85,5.85,0,0,0-1.91-2.13,9.81,9.81,0,0,0-5.87-1.69q-6.1,0-7.94,6.46h16.6A14.17,14.17,0,0,0,728.89,392.64Z" transform="translate(-517.94 -150)"/><path class="cls-1" d="M776.34,421.28q-3.16,0-4.34-2.2l-7.27-13.59-5.66,13.59a4.52,4.52,0,0,1-4.19,2.2q-3.09,0-4.19-2.2L733.59,387a4.91,4.91,0,0,1-.44-3.67,5.84,5.84,0,0,1,2.35-3.09,9.17,9.17,0,0,1,3.49-1.58,9.32,9.32,0,0,1,3.67-.07,8.14,8.14,0,0,1,5.77,4.22l9.47,17.56,1.83-4.33L755,387a4.61,4.61,0,0,1-.4-3.78,6,6,0,0,1,2.53-3.12,9.36,9.36,0,0,1,3.45-1.47,9.19,9.19,0,0,1,3.56,0,8.27,8.27,0,0,1,3.24,1.39,7.51,7.51,0,0,1,2.39,2.83l9.47,17.56,9-20.71h9L780.45,419Q779.49,421.28,776.34,421.28Z" transform="translate(-517.94 -150)"/><path class="cls-1" d="M760.68,264.47a156.48,156.48,0,0,1,78,135.2q0,6.13-.48,12.35A156.41,156.41,0,0,1,682.47,556.25q-6.13,0-12.35-.48A156.41,156.41,0,0,1,525.88,400q0-6.13.48-12.35a156.44,156.44,0,0,1,9.73-43.5,4,4,0,1,0-7.43-2.83,164.39,164.39,0,0,0-10.23,45.71q-0.51,6.53-.51,13A164.36,164.36,0,0,0,669.49,563.69q6.53,0.51,13,.51A164.36,164.36,0,0,0,846.14,412.64q0.51-6.53.51-13a164.42,164.42,0,0,0-82-142.07,4,4,0,1,0-4,6.87h0Z" transform="translate(-517.94 -150)"/><path class="cls-2" d="M707.46,245.34c-8.17.24-13.6,1-13.68,1a2.83,2.83,0,0,0-1.27.51h0l0,0a149.49,149.49,0,0,0-19.18-1.24,146,146,0,0,0-77.9,22.36c0.24-1.47.48-3,.75-4.46a100.48,100.48,0,0,1,7.47-23.94c6.94,1.92,16.56,3.91,25.62,5.61,1.73,0.32,3.08-.23,3.13-0.59s-5.31-1.71-7-2c-8.5-1.6-11.88-5.68-18.92-8.7,0.1-.18-0.63-1.45-0.54-1.62,1.93-3.62,1.52-5.65,2.83-7.55,0.65-1,.8-2.62,1.17-3.1,0.18-.24.62-1.29,0.7-1.4l0.23-.63,0.25-.3c0.47-.59-0.11.24,0.12-0.43,0.29-.87.41-0.78-0.27,0-0.33.36-.63,0.73-0.63,0.73a108.64,108.64,0,0,1-9.61,11.62,74.09,74.09,0,0,1-12.89-8.28,50,50,0,0,1-12-13.55,32.35,32.35,0,0,1-4.5-15.13c0-.33,0-0.67,0-1a35.12,35.12,0,0,1,3.34-14.48,61,61,0,0,1,11.58-16.59c1.1-1.14,2.13-2.15,3.05-3a158.26,158.26,0,0,0,19.54,46.76c8.33,13,20.23,21.85,30,27.46a98.58,98.58,0,0,0,17.69,8.07,3.29,3.29,0,0,0,2.81-.46v0a35.26,35.26,0,0,1,5.26-2.89,32.17,32.17,0,0,1,11.87-3h0.51a14.19,14.19,0,0,1,5.63,1.19,20.64,20.64,0,0,1,6.16,4.24,24.24,24.24,0,0,1,1.68,1.83c0.19,0.22.32,0.41,0.41,0.52l0.08,0.11h0v0a3.19,3.19,0,0,0,2.54,1.35,136.69,136.69,0,0,1,14,1" transform="translate(-517.94 -150)"/><polyline class="cls-3" points="172.97 92.94 172.98 92.94 172.97 92.94"/><polygon class="cls-3" points="172.98 92.95 172.98 92.95 172.98 92.95 173.87 92.32 172.98 92.94 172.98 92.95"/><path class="cls-3" d="M695.63,252.49l0.79-.78c-0.27.27-.54,0.5-0.81,0.76Z" transform="translate(-517.94 -150)"/><path class="cls-1" d="M742,249.22a171.42,171.42,0,0,0-46-9.2c-1.33-1.71-3.12-4.5-5-6a25.83,25.83,0,0,0-6-3.62,20.44,20.44,0,0,0-8.12-1.72c-0.24,0-.49,0-0.73,0a38.82,38.82,0,0,0-14.6,3.67,41.89,41.89,0,0,0-4.61,2.47,99.77,99.77,0,0,1-15.46-7.3c-9.15-5.29-20-13.51-27.38-25.11a147.59,147.59,0,0,1-15.72-34c-1.51-4.72-2.54-8.69-3.18-11.46-0.33-1.38-.55-2.46-0.7-3.19-0.08-.36-0.13-0.64-0.16-0.82l0-.19,0-.06a3.2,3.2,0,0,0-2-2.42,3.16,3.16,0,0,0-3.08.41,74.35,74.35,0,0,0-12.14,12,62.3,62.3,0,0,0-8.38,13.37,41.31,41.31,0,0,0-3.89,17.08c0,0.39,0,.81,0,1.22a38.55,38.55,0,0,0,5.35,18.07c4.86,8.44,12.73,15.81,22.71,21.72,1.56,0.92,3.19,1.79,4.87,2.65a108.27,108.27,0,0,0-8,25.54c-0.56,3.13-1,6.23-1.42,9.25a108.13,108.13,0,0,0-24.65,18.93c-18.32,19.51-24.92,37.25-25,37.52a3.15,3.15,0,0,0,.47,3,3.41,3.41,0,0,0,.4.43,3.14,3.14,0,0,0,2.46.78,184.64,184.64,0,0,0,25.46-5.1A75.06,75.06,0,0,0,592.07,315a3.17,3.17,0,0,0,1.18-2.7l0-.17c0-.86-0.27-4.8-0.27-10.75a230.32,230.32,0,0,1,1.41-25.79c9.73-5.2,20.26-8.9,29.73-9.72a140.07,140.07,0,0,0,25.46,2.7c2.29,0,4.59-.09,6.87-0.3a80,80,0,0,0,21.36-4.64,53.36,53.36,0,0,0,17.83-11.14c0.27-.25.54-0.49,0.81-0.76,0.78-.09,6.29-0.09,16.21-0.09,0.82,0,1.68,0,2.56,0a222.94,222.94,0,0,1,26.25,1.75c6.41,0.83,6.88,0,6.88,0,0.61-1.7-.84-2.16-6.35-4.17M692.2,246l-1.57-.25c-6.28-.81-10.86-0.2-17.36-0.2a146,146,0,0,0-77.9,22.36h0l-0.14.07,0.14-.08c0.24-1.48.48-3,.75-4.47a100.39,100.39,0,0,1,7.47-23.93,87.83,87.83,0,0,0,22.19,5.66c3,0.41,8.12.55,8.28-.34,0.1-.54-3.68-1.58-6.57-2.47-8.27-2.56-14.08-5.54-21.12-8.56,0.09-.17.71-2.13,1-3.2,1.35-4.3,4.52-12,4.71-13.3,0.13-.86-7.2,5.58-11.51,13.78a74.09,74.09,0,0,1-12.89-8.28,50,50,0,0,1-12-13.55,32.33,32.33,0,0,1-4.5-15.13c0-.33,0-0.67,0-1a35.18,35.18,0,0,1,3.33-14.48,61.09,61.09,0,0,1,11.58-16.59c1.1-1.14,2.13-2.14,3.05-3a158.39,158.39,0,0,0,19.54,46.77c8.33,13,20.23,21.85,30,27.46a98.58,98.58,0,0,0,17.69,8.07,3.29,3.29,0,0,0,2.81-.46v0a35.65,35.65,0,0,1,5.26-2.89,32.3,32.3,0,0,1,11.87-3h0.51a14.19,14.19,0,0,1,5.63,1.19,20.64,20.64,0,0,1,6.16,4.24,24.23,24.23,0,0,1,1.68,1.83,6.51,6.51,0,0,1,.5.77,13.42,13.42,0,0,1,1.29,3" transform="translate(-517.94 -150)"/><polyline class="cls-3" points="77.44 117.93 77.44 117.92 77.3 118 77.44 117.93"/></svg>