<svg id="Mujeres_Del_Sol" data-name="Mujeres Del Sol" xmlns="http://www.w3.org/2000/svg" viewBox="0 0 418.75 468"><defs><style>.cls-1{fill:#67652f;}.cls-2{fill:none;}.cls-3{fill:#e8941a;}</style></defs><title>logo_mujeresdelsol</title><path class="cls-1" d="M499.12,590.35a1,1,0,0,0-.16.34q-0.09.81-.19,2.11c-0.06.83-.12,1.48-0.17,1.94a8.18,8.18,0,0,1-.2,1.17c0,0.15-.06.6-0.12,1.37-0.06,1.1-.13,2-0.22,2.7a3.61,3.61,0,0,1-.44,1.52,2.12,2.12,0,0,1-.51.53c-0.26.21-.53,0.41-0.82,0.6a8.85,8.85,0,0,1-.84.51,1.6,1.6,0,0,1-.53.22,0.62,0.62,0,0,1-.39-0.27,6,6,0,0,1-.58-0.82c-0.27-.39-0.47-0.67-0.61-0.84a0.9,0.9,0,0,0-.39-0.31,1.34,1.34,0,0,1-.26-0.33l-0.67-1q-0.62-1-1-1.63a5,5,0,0,0-.7-0.85c-0.1-.09-0.32-0.28-0.65-0.59q-1-1-1.77-1.62a6.75,6.75,0,0,0-1.37-.93q-0.59.75-1.3,1.51t-1.86,1.91q-0.81.84-1,1c-0.19.17-.41,0.38-0.67,0.65l-0.82.87c-0.29.31-.55,0.61-0.79,0.89s-0.43.51-.57,0.7q-0.93,1.08-1.74,2.16a22.87,22.87,0,0,0-1.4,2.07,3.23,3.23,0,0,1-1.12.68,7.52,7.52,0,0,0-1,.56l-0.09,0h-0.06a0.2,0.2,0,0,1-.19-0.12,0.33,0.33,0,0,0-.25-0.09h-0.12a2.16,2.16,0,0,1-.4.06c-0.08,0-.12,0-0.12-0.06a0.91,0.91,0,0,1,0-.19l0.06-.09a5.46,5.46,0,0,1,.34-0.87,7,7,0,0,1,.56-1.09l0.09-.12a8.19,8.19,0,0,1,.85-1.06,1,1,0,0,1,.7-0.28,0.49,0.49,0,0,0,.4-0.16,1.79,1.79,0,0,0,.25-0.49,2,2,0,0,1,.37-0.62l5.19-5.13c0.17-.17.39-0.4,0.67-0.71l0.82-.93q0.4-.47.89-1.09l0.79-1a5.63,5.63,0,0,0-1.06-1,1.47,1.47,0,0,0-.78-0.25,3.25,3.25,0,0,0-.47.06,5.39,5.39,0,0,1-.74.06,0.47,0.47,0,0,1-.45-0.31,2,2,0,0,1-.14-0.81,0.49,0.49,0,0,1-.12-0.31,0.89,0.89,0,0,1,.81-0.68,2.67,2.67,0,0,0,.82-0.39,2.81,2.81,0,0,0,.7-0.57,0.59,0.59,0,0,1,.5-0.13,5.34,5.34,0,0,1,1.34.22,1.18,1.18,0,0,1,.42.22c0.18,0.12.42,0.32,0.73,0.59l0.78,0.62a21.37,21.37,0,0,0,1.49-1.65q0.68-.84,1.34-1.74a6.16,6.16,0,0,1,.4-0.53q1.12-1.3,1.77-2.17t0.93-1.34c0.27-.46.47-0.78,0.59-1s0.33-.48.62-0.85l0.12-.15a6.88,6.88,0,0,1,.73-0.9c0.34-.37.71-0.75,1.1-1.14a13.44,13.44,0,0,1,1.09-1,1.51,1.51,0,0,1,.71-0.39,3.45,3.45,0,0,1,1,.35,4.82,4.82,0,0,1,.9.51,0.67,0.67,0,0,1,.31.43v0.06a5.55,5.55,0,0,1,.14,1c0,0.46,0,1,0,1.52v0.84c0,0.33,0,.57,0,0.71a2.17,2.17,0,0,1-.09.7,1.78,1.78,0,0,1-.44.61,3,3,0,0,0-.36,1.24c-0.09.64-.2,1.56-0.33,2.76-0.08.83-.13,1.33-0.16,1.49A0.68,0.68,0,0,1,499.12,590.35Zm-4.55-5.87a12.57,12.57,0,0,1-1.85,2.08,3.51,3.51,0,0,0-.37.5,3.37,3.37,0,0,1-.71.81,12.37,12.37,0,0,0-.85,1q-0.79,1-2.25,2.8a14.91,14.91,0,0,1,1.34,1q0.68,0.57.93,0.82l0.62,0.53c0.66,0.58,1.22,1.09,1.66,1.54a3.59,3.59,0,0,1,.85,1.17,2.92,2.92,0,0,0,.9,1.27,0.51,0.51,0,0,0,.2.16,0.66,0.66,0,0,0,.29.09,0.29,0.29,0,0,0,.25-0.13,10.24,10.24,0,0,0,.44-1.92c0-.27.09-0.57,0.16-0.9l1-6.84a10.82,10.82,0,0,0,.16-1.4,6.44,6.44,0,0,1,.25-1.62,3.38,3.38,0,0,0,.28-1.27,3,3,0,0,0-.14-0.89c-0.09-.3-0.25-0.73-0.48-1.29q-0.22-.59-0.34-0.9Q495.58,583.11,494.57,584.48Z" transform="translate(-472.99 -150)"/><path class="cls-1" d="M515.45,591.86q0.51-.63,1.17-1.35c0.44-.48.85-0.9,1.24-1.27a5.07,5.07,0,0,1,1-.78,4.64,4.64,0,0,1,.54-0.25l0.78-.29,0.79-.26a5.62,5.62,0,0,1,.59-0.16l0.19-.06,0.19,0a0.45,0.45,0,0,1,.31.16,0.93,0.93,0,0,1,.22.31,1.47,1.47,0,0,1,.06.5c-0.06.43-.09,0.67-0.09,0.71q-0.16,1.3-.29,2a2.62,2.62,0,0,1-.45,1.07l-0.4.56a8.81,8.81,0,0,1-.93,1.1,1.21,1.21,0,0,1-.84.39q0.06-.37.15-1.06a11.46,11.46,0,0,0,.22-1.68,1.36,1.36,0,0,0-.12-0.65,1.72,1.72,0,0,0-.26-0.4,0.5,0.5,0,0,0-.29-0.06,1.71,1.71,0,0,0-.79.6,19.92,19.92,0,0,0-1.31,1.55q-0.73.95-1.41,1.93c-0.46.65-.83,1.22-1.12,1.69l-2,3.45a2.37,2.37,0,0,0-.15.78,1.22,1.22,0,0,0,.47,1,1.88,1.88,0,0,0,1.18.36,3.61,3.61,0,0,0,1.71-.47c0.83-.37,1.48-0.69,1.94-0.95a8.31,8.31,0,0,0,1.41-1,1.85,1.85,0,0,1,.42-0.26,1,1,0,0,1,.36-0.11,0.08,0.08,0,0,1,.09.09,2.93,2.93,0,0,1-.81,1.18,10.34,10.34,0,0,1-2,1.85,11.9,11.9,0,0,1-2.18,1.2,10.94,10.94,0,0,1-2,.62,7.57,7.57,0,0,1-1.52.19l-0.25,0h-0.15a1.17,1.17,0,0,1-.78-0.28,1.59,1.59,0,0,1-.34-0.9v-0.25a1.33,1.33,0,0,1,0-.25,6.93,6.93,0,0,1,.84-3.19q0.84-1.63,2.73-4.52,0.84-1.24,1.15-1.74A10.52,10.52,0,0,1,515.45,591.86Z" transform="translate(-472.99 -150)"/><path class="cls-1" d="M527.92,599.67q-0.62.65-1.15,1.24a1.88,1.88,0,0,1-.84.4,1.82,1.82,0,0,0-1,.43,7.1,7.1,0,0,1-.79.79,2.26,2.26,0,0,1-.67.42,1.76,1.76,0,0,0-.45.18,2.37,2.37,0,0,0-.33.28,1.09,1.09,0,0,1-.5.29,5.75,5.75,0,0,1-.87.14l-0.53.06a0.66,0.66,0,0,1-.44-0.09,0.58,0.58,0,0,1-.12-0.34,0.27,0.27,0,0,1,0-.12,0.53,0.53,0,0,0,0-.16,0.86,0.86,0,0,1,0-.19,2.94,2.94,0,0,1,.16-0.79q0.15-.51.71-2.16,0.71-2.05,1.09-3.23a3.81,3.81,0,0,0,.19-0.65,4.27,4.27,0,0,1,.34-1,8.79,8.79,0,0,0,.42-0.82q0.2-.45.33-0.82a2.1,2.1,0,0,1,.37-0.68,7.28,7.28,0,0,1,.59-0.59,5.82,5.82,0,0,0,.87-0.87,2.07,2.07,0,0,1,.89-0.68,4.78,4.78,0,0,1,1-.22,0.93,0.93,0,0,0,.44-0.09,0.45,0.45,0,0,1,.16-0.12,0.82,0.82,0,0,1,.12.68v0.34a3.1,3.1,0,0,1,.39-0.63c0.16-.2.38-0.45,0.67-0.76a1.87,1.87,0,0,1,.82-0.54q0.54-.2,1.72-0.54l1.3-.4a1.81,1.81,0,0,1,.56-0.09,1.1,1.1,0,0,1,.79.28,1,1,0,0,1,.29.78,5.17,5.17,0,0,1-.2,1.44,13.82,13.82,0,0,1-.57,1.57,17.3,17.3,0,0,1-1,2.3,5,5,0,0,1-1,1.15l-0.75.78-1.21,1.29-0.68.7A14.44,14.44,0,0,0,527.92,599.67Zm-0.4-1.74a11.91,11.91,0,0,1,2.24-2,2.05,2.05,0,0,0,.81-0.84c0.33-.5.7-1.13,1.12-1.89a2.46,2.46,0,0,0,.28-0.74,3.8,3.8,0,0,0,.09-0.78,1,1,0,0,0-.14-0.65,0.77,0.77,0,0,0-.57-0.16,5.21,5.21,0,0,0-1.54.14,1.34,1.34,0,0,0-.64.67,1.79,1.79,0,0,0-.09.22,1.17,1.17,0,0,1-.28.48,0.89,0.89,0,0,1-.53.17,2.25,2.25,0,0,0-1.71.84,11.18,11.18,0,0,0-1.46,2.52l-0.56,1.15-0.93,1.83q-0.28.56-.84,1.62l-0.12.22a0.79,0.79,0,0,0-.12.31c0,0.09.08,0.12,0.25,0.12a2.61,2.61,0,0,0,.44-0.06c0.33-.1.58-0.19,0.76-0.26a4.22,4.22,0,0,0,.54-0.28,6.69,6.69,0,0,0,.65-0.46c0.25-.2.58-0.48,1-0.85S527.12,598.3,527.52,597.93Z" transform="translate(-472.99 -150)"/><path class="cls-1" d="M536.78,596.58q-0.81,1.54-1.43,2.84a5.43,5.43,0,0,0-.62,1.77,3.56,3.56,0,0,0,1.46-.9,2.31,2.31,0,0,0,.28,1.15q-0.28.25-.84,0.84t-0.87.93a3,3,0,0,1-1.1.48,7.07,7.07,0,0,1-1.2.23,0.35,0.35,0,0,1-.31-0.14,0.93,0.93,0,0,1-.12-0.39,0.27,0.27,0,0,1,0-.12l-0.09-.16a1.42,1.42,0,0,1-.19-0.56,1,1,0,0,1,.09-0.4l1.71-3.71c0.29-.63.61-1.31,1-2l0.89-1.8a8.38,8.38,0,0,1,.51-0.93l2.7-4.19c0.12-.16.36-0.54,0.7-1.12l1.26-2.14q0.75-1.27,1.4-2.44t1.34-2.34c0.5-.87.77-1.34,0.81-1.4a0.3,0.3,0,0,0,.06-0.22v-0.59a3.16,3.16,0,0,1,.19-1.06l0-.06q0.31-.84.5-1.32a5.17,5.17,0,0,0,.26-0.89c0.05-.27.09-0.56,0.12-0.87s0-.71,0-1.21a7.2,7.2,0,0,1,1.34-1.24,2.62,2.62,0,0,1,1.18-.37l0.19,0h0.12a0.73,0.73,0,0,1,.5.19l0.09,0.06a0.26,0.26,0,0,1,.06.19,3.78,3.78,0,0,1-.17.82q-0.17.61-.85,2.84-0.16.56-.47,1.52a4.68,4.68,0,0,1-.48,1.21q-0.3.5-.73,1.09c-0.21.25-.35,0.43-0.43,0.56l-0.84,1.46c-0.19.31-.36,0.63-0.53,0.95s-0.63,1.2-1.4,2.63l-1.62,3q-0.65,1.21-.93,1.65l-2.05,3.51Q537.58,595,536.78,596.58Z" transform="translate(-472.99 -150)"/><path class="cls-1" d="M544.2,596.58q-0.81,1.54-1.43,2.84a5.44,5.44,0,0,0-.62,1.77,3.56,3.56,0,0,0,1.46-.9,2.31,2.31,0,0,0,.28,1.15q-0.28.25-.84,0.84t-0.87.93a3,3,0,0,1-1.1.48,7.07,7.07,0,0,1-1.2.23,0.35,0.35,0,0,1-.31-0.14,0.91,0.91,0,0,1-.12-0.39,0.27,0.27,0,0,1,0-.12l-0.09-.16a1.42,1.42,0,0,1-.19-0.56,1,1,0,0,1,.09-0.4l1.71-3.71c0.29-.63.61-1.31,1-2l0.89-1.8a8.4,8.4,0,0,1,.51-0.93l2.7-4.19c0.12-.16.36-0.54,0.7-1.12l1.26-2.14q0.75-1.27,1.4-2.44t1.34-2.34c0.5-.87.77-1.34,0.81-1.4a0.3,0.3,0,0,0,.06-0.22v-0.59a3.16,3.16,0,0,1,.19-1.06l0-.06q0.31-.84.5-1.32a5.1,5.1,0,0,0,.26-0.89c0.05-.27.09-0.56,0.13-0.87s0-.71,0-1.21a7.22,7.22,0,0,1,1.34-1.24,2.62,2.62,0,0,1,1.18-.37l0.19,0h0.12a0.73,0.73,0,0,1,.5.19l0.09,0.06a0.26,0.26,0,0,1,.06.19,3.78,3.78,0,0,1-.17.82q-0.17.61-.85,2.84-0.16.56-.47,1.52a4.65,4.65,0,0,1-.48,1.21q-0.3.5-.73,1.09c-0.21.25-.35,0.43-0.44,0.56l-0.84,1.46c-0.19.31-.36,0.63-0.53,0.95s-0.63,1.2-1.4,2.63l-1.62,3q-0.65,1.21-.93,1.65l-2,3.51Q545,595,544.2,596.58Z" transform="translate(-472.99 -150)"/><path class="cls-1" d="M556.71,596.8a10.91,10.91,0,0,1-4.09.76l-0.47,0h-0.44l-0.75.87a9,9,0,0,0-1,1.23,2.46,2.46,0,0,0-.23,1.07,0.75,0.75,0,0,0,.51.76,2.54,2.54,0,0,0,.92.2,5.11,5.11,0,0,0,1.4-.23c0.54-.15,1.26-0.4,2.17-0.73l0.16-.06q0.28-.12,1.3-0.68l1.13-.62a5.46,5.46,0,0,1,.7-0.31,4.4,4.4,0,0,0,.78-0.53,1.66,1.66,0,0,1,.59-0.37s0.06,0,.06.09a3.84,3.84,0,0,1-.25.87,1.38,1.38,0,0,1-.34.43,2.32,2.32,0,0,0-.31.31,6.71,6.71,0,0,1-1.52,1,21.33,21.33,0,0,1-2.3,1.1q-1.86.81-3.4,1.32a8.37,8.37,0,0,1-2,.51q-2.27,0-2.27-1.52a5.1,5.1,0,0,1,.25-1.6,5.28,5.28,0,0,1,.62-1.32,11.44,11.44,0,0,1,.78-1.09q0.43-.59.65-0.92a1.09,1.09,0,0,0,.22-0.45,0.09,0.09,0,0,0,0-.06,0.12,0.12,0,0,1-.06-0.12,0.9,0.9,0,0,1,.22-0.45,4.4,4.4,0,0,1,.53-0.59q0.31-.29.61-0.54a2,2,0,0,1,.45-0.31,1.35,1.35,0,0,0,.51-0.42l0.92-1q0.47-.56.78-0.9a6.92,6.92,0,0,1,.56-0.56c0.5-.49,1-1,1.55-1.41a17.6,17.6,0,0,1,1.57-1.17,10.55,10.55,0,0,1,1.41-.79,2.75,2.75,0,0,1,1.09-.29,2,2,0,0,1,1.8,1.92,9.31,9.31,0,0,1-1.65,4.07A6.76,6.76,0,0,1,556.71,596.8Zm0.87-2.77a7.06,7.06,0,0,0,1.29-1.79,1.74,1.74,0,0,0,.22-0.74,0.47,0.47,0,0,0-.53-0.53,1.16,1.16,0,0,0-.59.19,6.47,6.47,0,0,0-1.29.82,9.64,9.64,0,0,0-1.57,1.48,2.66,2.66,0,0,0-.48.48,1,1,0,0,0-.17.42,0.55,0.55,0,0,1-.19.28,1.44,1.44,0,0,0-.62.65c0,0.1.11,0.15,0.34,0.15a4.39,4.39,0,0,0,.9-0.12l1.3-.31A3.93,3.93,0,0,0,557.58,594Z" transform="translate(-472.99 -150)"/><path class="cls-1" d="M565.37,591.86q0.51-.63,1.17-1.35c0.44-.48.85-0.9,1.24-1.27a5.07,5.07,0,0,1,1-.78,4.62,4.62,0,0,1,.54-0.25l0.78-.29,0.79-.26a5.66,5.66,0,0,1,.59-0.16l0.19-.06,0.19,0a0.45,0.45,0,0,1,.31.16,0.93,0.93,0,0,1,.22.31,1.47,1.47,0,0,1,.06.5c-0.06.43-.09,0.67-0.09,0.71q-0.16,1.3-.3,2a2.61,2.61,0,0,1-.45,1.07l-0.4.56a8.81,8.81,0,0,1-.93,1.1,1.21,1.21,0,0,1-.84.39c0-.25.09-0.6,0.15-1.06a11.46,11.46,0,0,0,.22-1.68,1.36,1.36,0,0,0-.12-0.65,1.72,1.72,0,0,0-.26-0.4,0.5,0.5,0,0,0-.29-0.06,1.71,1.71,0,0,0-.79.6,19.92,19.92,0,0,0-1.31,1.55q-0.73.95-1.41,1.93c-0.46.65-.83,1.22-1.12,1.69l-2,3.45a2.36,2.36,0,0,0-.15.78,1.22,1.22,0,0,0,.47,1,1.88,1.88,0,0,0,1.18.36,3.61,3.61,0,0,0,1.71-.47c0.83-.37,1.48-0.69,1.94-0.95a8.31,8.31,0,0,0,1.41-1,1.85,1.85,0,0,1,.42-0.26,1,1,0,0,1,.36-0.11,0.08,0.08,0,0,1,.09.09,2.93,2.93,0,0,1-.81,1.18,10.34,10.34,0,0,1-2,1.85,11.9,11.9,0,0,1-2.17,1.2,11,11,0,0,1-2,.62,7.57,7.57,0,0,1-1.52.19l-0.25,0H561a1.17,1.17,0,0,1-.78-0.28,1.59,1.59,0,0,1-.34-0.9v-0.25a1.33,1.33,0,0,1,0-.25,6.93,6.93,0,0,1,.84-3.19q0.84-1.63,2.73-4.52,0.84-1.24,1.15-1.74A10.5,10.5,0,0,1,565.37,591.86Z" transform="translate(-472.99 -150)"/><path class="cls-1" d="M575.24,592.21a0.05,0.05,0,0,0-.06-0.06,1.7,1.7,0,0,0-.82.48,4.22,4.22,0,0,0-1,1.2,10.73,10.73,0,0,1-.09-1.12,2.12,2.12,0,0,1,.19-0.9,4.44,4.44,0,0,1,.78-1.2,1.16,1.16,0,0,1,.68-0.26h0a2.92,2.92,0,0,0,.87-0.28,4,4,0,0,1,1.4-.4q1.52-2.08,2.58-3.8t2.45-4.27a16.11,16.11,0,0,0,.81-1.43,4.33,4.33,0,0,1,.71-1.06,0.59,0.59,0,0,1,.31-0.06,2.91,2.91,0,0,0,.5-0.11,2.64,2.64,0,0,0,.65-0.36,0.94,0.94,0,0,1,.59-0.22,0.29,0.29,0,0,1,.31.34,2.89,2.89,0,0,1-.5,1.24l-1.71,2.67q-1.09,1.71-1.9,2.94l-1.83,2.78-0.43.56a2.39,2.39,0,0,0-.37.53,0.09,0.09,0,0,0,.06.06l0.19,0,0.56,0q1.55-.09,3.88-0.31Q585.55,589,586,589c0.39,0,.68,0,0.85,0a1.73,1.73,0,0,0,.48-0.12,1.69,1.69,0,0,1,.56-0.19c0.08,0,.12,0,0.12.09a1,1,0,0,1-.22.46,2.61,2.61,0,0,1-.44.5,1.52,1.52,0,0,1-.48.61,2.64,2.64,0,0,1-.73.29,5.22,5.22,0,0,0-.75.25,7.93,7.93,0,0,1-1.82.37q-1.54.22-5.58,0.71-1.09,1.46-1.88,2.67t-1.34,2.25a19.16,19.16,0,0,0-.92,2q-0.37,1-.65,1.94a0.29,0.29,0,0,0,.31.34,0.64,0.64,0,0,0,.53-0.47,1.47,1.47,0,0,0,0,.19V601a1.94,1.94,0,0,1-.71,1.6,2.13,2.13,0,0,1-1.27.57,2.1,2.1,0,0,1-.93.37,0.54,0.54,0,0,1-.47-0.37,2.63,2.63,0,0,1-.31-1.24,5.31,5.31,0,0,1,.06-0.74l0.06-.4a5.22,5.22,0,0,1,.17-0.79,7.7,7.7,0,0,1,.53-1.15q0.42-.79,1.34-2.33t2.56-4.18A0.43,0.43,0,0,0,575.24,592.21Z" transform="translate(-472.99 -150)"/><path class="cls-1" d="M583.49,597c0.28-.51.57-1.07,0.89-1.69s0.61-1.25.9-1.88l0.87-1.91a0.51,0.51,0,0,1-.36-0.32,1.42,1.42,0,0,1-.11-0.54,1.12,1.12,0,0,1,.33-0.5c0.2-.21.45-0.46,0.76-0.74s0.72-.67.87-0.84a1.12,1.12,0,0,1,1-.47l0.15,0h0.12a1.32,1.32,0,0,1,.56.2,0.6,0.6,0,0,1,.19.51,2,2,0,0,1-.09.56q-0.28,1.12-.4,1.55a7.38,7.38,0,0,1-.28.81c-0.1.25-.23,0.52-0.39,0.81s-0.41.73-.76,1.31-0.92,1.46-1.77,2.89-1.59,2.65-2.14,3.53a21.94,21.94,0,0,1-1.62,2.25,4.53,4.53,0,0,1-1,.81,2.18,2.18,0,0,1-1,.43,0.25,0.25,0,0,1-.19-0.06,0.24,0.24,0,0,1-.12-0.15,1.63,1.63,0,0,1,.25-0.5,1.88,1.88,0,0,0,.15-0.28c0.17-.31.35-0.63,0.54-1s0.54-1,1-2q0.31-.56.57-1.06c0.18-.33.3-0.55,0.36-0.65A7.71,7.71,0,0,0,583.49,597Zm9.93-16a3.35,3.35,0,0,1-.06.59,2.58,2.58,0,0,1-.62,1.34,8,8,0,0,1-1.27,1.12,1,1,0,0,1-.47.34,0.34,0.34,0,0,1-.25-0.22,3.22,3.22,0,0,1-.4-1.62,2.82,2.82,0,0,1,.19-1.15,2,2,0,0,1,.78-0.78,3.83,3.83,0,0,1,.7-0.4,1.66,1.66,0,0,1,.64-0.15,0.63,0.63,0,0,1,.4.12A0.86,0.86,0,0,1,593.41,581Z" transform="translate(-472.99 -150)"/><path class="cls-1" d="M598.49,593.83a3.37,3.37,0,0,0,.73-1.56v-0.12a0.14,0.14,0,0,0,0-.1,0.28,0.28,0,0,0-.14-0.26,1.64,1.64,0,0,0-.57-0.11l-0.19,0a7.51,7.51,0,0,1,.5-1.55,1.55,1.55,0,0,1,.68-0.84,2.77,2.77,0,0,0,.59-0.34,3.68,3.68,0,0,1,1-.53,2.53,2.53,0,0,1,.78-0.16,1,1,0,0,1,.75.5,1.64,1.64,0,0,1,.22.84,2.69,2.69,0,0,1-.37,1.32,15.4,15.4,0,0,1-1.12,1.66l-0.31.43a7,7,0,0,1-.76,1L599,595.44c-0.62.71-1,1.17-1.21,1.4q-1,1.09-2.24,2.33t-2.33,2.2a14,14,0,0,0-2,1.71,4.45,4.45,0,0,1-.4.37,2.48,2.48,0,0,1-1.68.4,3.26,3.26,0,0,1-.87-0.09,0.76,0.76,0,0,1-.47-0.37,2.78,2.78,0,0,1-.22-1.18,5.47,5.47,0,0,1,.23-1.52,6,6,0,0,1,.76-1.62,7.72,7.72,0,0,0,.68-1.43q0.34-.87.62-1.43a27.09,27.09,0,0,0,1.29-2.61,9.09,9.09,0,0,0,.64-2.42,2.61,2.61,0,0,1,.85-1.55,2.06,2.06,0,0,1,1.1-.68h0l0,0a0.36,0.36,0,0,0,.19-0.13,0.54,0.54,0,0,1,.4-0.22h0.09l0.12,0a0.63,0.63,0,0,1,.5.65,5.72,5.72,0,0,1-.34,1.52,24.29,24.29,0,0,1-2,4.19q-1.06,1.9-1.63,3.22a10.2,10.2,0,0,0-.76,2.66,14.08,14.08,0,0,0,2.66-1.65q1.07-.87,2.87-2.64l0.71-.71A15.31,15.31,0,0,0,598.49,593.83Z" transform="translate(-472.99 -150)"/><path class="cls-1" d="M609.12,596.8a10.91,10.91,0,0,1-4.09.76l-0.47,0h-0.43l-0.75.87a9,9,0,0,0-1,1.23,2.47,2.47,0,0,0-.23,1.07,0.75,0.75,0,0,0,.51.76,2.53,2.53,0,0,0,.92.2,5.11,5.11,0,0,0,1.4-.23c0.54-.15,1.26-0.4,2.17-0.73l0.16-.06q0.28-.12,1.3-0.68l1.13-.62a5.5,5.5,0,0,1,.7-0.31,4.4,4.4,0,0,0,.78-0.53,1.65,1.65,0,0,1,.59-0.37s0.06,0,.06.09a3.83,3.83,0,0,1-.25.87,1.38,1.38,0,0,1-.34.43,2.32,2.32,0,0,0-.31.31,6.7,6.7,0,0,1-1.52,1,21.4,21.4,0,0,1-2.3,1.1q-1.86.81-3.4,1.32a8.37,8.37,0,0,1-2,.51q-2.27,0-2.27-1.52a5.1,5.1,0,0,1,.25-1.6,5.31,5.31,0,0,1,.62-1.32,11.44,11.44,0,0,1,.78-1.09q0.44-.59.65-0.92a1.1,1.1,0,0,0,.22-0.45,0.09,0.09,0,0,0,0-.06,0.12,0.12,0,0,1-.06-0.12,0.9,0.9,0,0,1,.22-0.45,4.39,4.39,0,0,1,.53-0.59q0.31-.29.61-0.54a2,2,0,0,1,.45-0.31,1.35,1.35,0,0,0,.51-0.42l0.92-1q0.47-.56.78-0.9a6.92,6.92,0,0,1,.56-0.56c0.5-.49,1-1,1.55-1.41a17.57,17.57,0,0,1,1.57-1.17,10.58,10.58,0,0,1,1.41-.79,2.74,2.74,0,0,1,1.09-.29,2,2,0,0,1,1.8,1.92,9.3,9.3,0,0,1-1.65,4.07A6.77,6.77,0,0,1,609.12,596.8ZM610,594a7.08,7.08,0,0,0,1.29-1.79,1.74,1.74,0,0,0,.22-0.74A0.47,0.47,0,0,0,611,591a1.16,1.16,0,0,0-.59.19,6.49,6.49,0,0,0-1.29.82,9.69,9.69,0,0,0-1.57,1.48,2.66,2.66,0,0,0-.48.48,1,1,0,0,0-.17.42,0.55,0.55,0,0,1-.19.28,1.44,1.44,0,0,0-.62.65c0,0.1.11,0.15,0.34,0.15a4.39,4.39,0,0,0,.9-0.12l1.3-.31A3.94,3.94,0,0,0,610,594Z" transform="translate(-472.99 -150)"/><path class="cls-1" d="M629.14,599.67q-0.62.65-1.15,1.24a1.88,1.88,0,0,1-.84.4,1.82,1.82,0,0,0-1,.43,7.1,7.1,0,0,1-.79.79,2.25,2.25,0,0,1-.67.42,1.76,1.76,0,0,0-.45.18,2.37,2.37,0,0,0-.33.28,1.09,1.09,0,0,1-.5.29,5.76,5.76,0,0,1-.87.14l-0.53.06a0.66,0.66,0,0,1-.44-0.09,0.59,0.59,0,0,1-.12-0.34,0.28,0.28,0,0,1,0-.12,0.53,0.53,0,0,0,0-.16,0.85,0.85,0,0,1,0-.19,2.94,2.94,0,0,1,.16-0.79q0.15-.51.71-2.16,0.71-2.05,1.09-3.23a3.8,3.8,0,0,0,.19-0.65,4.27,4.27,0,0,1,.34-1,9.47,9.47,0,0,0,.74-1.65,2.11,2.11,0,0,1,.37-0.68,7.52,7.52,0,0,1,.59-0.59,5.82,5.82,0,0,0,.87-0.87,2.07,2.07,0,0,1,.89-0.68,4.77,4.77,0,0,1,1-.22,0.93,0.93,0,0,0,.44-0.09,0.45,0.45,0,0,1,.15-0.12,0.82,0.82,0,0,1,.12.68v0.34a3.13,3.13,0,0,1,.39-0.63c0.16-.2.38-0.45,0.67-0.76a1.87,1.87,0,0,1,.82-0.54q0.54-.2,1.72-0.54l1.3-.4a1.81,1.81,0,0,1,.56-0.09,1.1,1.1,0,0,1,.79.28,1,1,0,0,1,.3.78,5.17,5.17,0,0,1-.2,1.44,13.82,13.82,0,0,1-.57,1.57,17.21,17.21,0,0,1-1,2.3,5,5,0,0,1-1,1.15l-0.75.78q-0.78.84-1.21,1.29l-0.68.7A14.42,14.42,0,0,0,629.14,599.67Zm-0.4-1.74a11.91,11.91,0,0,1,2.24-2,2.06,2.06,0,0,0,.81-0.84c0.33-.5.7-1.13,1.12-1.89a2.48,2.48,0,0,0,.28-0.74,3.79,3.79,0,0,0,.09-0.78,1,1,0,0,0-.14-0.65,0.77,0.77,0,0,0-.57-0.16A5.21,5.21,0,0,0,631,591a1.34,1.34,0,0,0-.64.67,1.67,1.67,0,0,0-.09.22,1.18,1.18,0,0,1-.28.48,0.89,0.89,0,0,1-.53.17,2.25,2.25,0,0,0-1.71.84,11.21,11.21,0,0,0-1.46,2.52l-0.56,1.15-0.93,1.83q-0.28.56-.84,1.62l-0.12.22a0.79,0.79,0,0,0-.12.31c0,0.09.08,0.12,0.25,0.12a2.6,2.6,0,0,0,.44-0.06c0.33-.1.58-0.19,0.76-0.26a4.26,4.26,0,0,0,.54-0.28,6.75,6.75,0,0,0,.65-0.46c0.25-.2.58-0.48,1-0.85S628.34,598.3,628.73,597.93Z" transform="translate(-472.99 -150)"/><path class="cls-1" d="M646.12,582.32q0.76-1.13,1.15-1.85c0.26-.48.45-0.85,0.58-1.14s0.24-.56.34-0.85a1.51,1.51,0,0,1,.19-0.46,1,1,0,0,1,.37-0.25,30.75,30.75,0,0,1,2.55-2.69,2.47,2.47,0,0,1,1.61-.7,2.94,2.94,0,0,1,1,.19c-0.08.23-.18,0.56-0.3,1s-0.23.95-.36,1.51c-0.19.81-.34,1.45-0.47,1.94a5.75,5.75,0,0,1-.37,1.1,0.27,0.27,0,0,1-.09.16,1,1,0,0,1-.09-0.68c0-.16,0-0.45,0-0.84v-0.9a0.34,0.34,0,0,0-.4-0.37,1.26,1.26,0,0,0-.5.12l-1.74,2.55-1.77,2.64-2.05,3.08q-0.34.53-1,1.43a16.38,16.38,0,0,0-1.13,1.71,2.69,2.69,0,0,0-.36,1.31l2.42-.53c0.56-.19,1.34-0.4,2.33-0.65l0.16,0a0.84,0.84,0,0,1,.5.56,0.6,0.6,0,0,1-.15.37,8.46,8.46,0,0,1-3,1.52l-1.58.65-0.68.25-1.09.21a20.42,20.42,0,0,0-2.52,3.82q-0.59,1.08-1.13,2.19t-1.29,2.66c-0.44.91-.75,1.55-0.93,1.93l-2.64,4.57-2,3.17-3.51,6.71a0.66,0.66,0,0,1-.45.2,3.68,3.68,0,0,1-.73.08l-0.15,0h-0.09a1.55,1.55,0,0,1-.62-0.29,1.33,1.33,0,0,1-.47-0.48,5.79,5.79,0,0,0,.47-1.86q0.16-1,.28-1.71a11.6,11.6,0,0,0,.65,1,1,1,0,0,0,.53.48,0.08,0.08,0,0,0,.06-0.06q2.08-3.23,3.84-6.36t4.33-7.91q2.33-4.35,3.48-6.4l0.28-.9-2.3.34-1.12.09h-0.25l-0.22,0a4.79,4.79,0,0,1-2.11-.59,5.26,5.26,0,0,1-.19-1.15,1.73,1.73,0,0,1,.56-0.15l0.4-.06,1.86-.15q2.27-.16,3.26-0.33a3.24,3.24,0,0,0,1.55-.64l3.14-5.87Q645.36,583.45,646.12,582.32Z" transform="translate(-472.99 -150)"/><path class="cls-1" d="M653.79,600.35a40.58,40.58,0,0,1,2.13-3.63,36,36,0,0,0,2.14-3.68,6.75,6.75,0,0,0,.71-3,0.71,0.71,0,0,1,.23-0.59,2.35,2.35,0,0,1,.7-0.34l0.5-.22a1.07,1.07,0,0,1,.62-0.22,0.93,0.93,0,0,1,.47.12,0.48,0.48,0,0,1,.31.43,2.8,2.8,0,0,1-.2.84q-0.2.56-.76,2l-0.25.59q-0.44,1.12-.68,1.72c-0.17.4-.35,0.8-0.54,1.2s-0.42.79-.65,1.2-0.55.9-.95,1.48l-0.34.47-1.06,1.51a1.83,1.83,0,0,0-.31.54,0.09,0.09,0,0,0,.06,0,1.68,1.68,0,0,0,.4-0.19,6.3,6.3,0,0,1,.76-0.62,7.64,7.64,0,0,1,.76-0.43l0.71-.43a5.57,5.57,0,0,0,.75-0.56q0.4-.4,1.86-1.55,1.74-1.34,2.58-2.08a4.2,4.2,0,0,1,1.24-1.71l0.37-.25a3,3,0,0,1,1.37-.71,0.13,0.13,0,0,1,.09,0h0.09a1.33,1.33,0,0,1,.68.23,0.64,0.64,0,0,1,.28.54,1.45,1.45,0,0,1-.15.59q-0.68,1.53-1.12,2.55t-0.67,1.6a8.91,8.91,0,0,0-.33.92,2.24,2.24,0,0,0-.09.56,1.45,1.45,0,0,0,.06.4,1,1,0,0,1,.06.19,3.82,3.82,0,0,0,.28.53,0.42,0.42,0,0,0,.37.19,1.58,1.58,0,0,0,.84-0.34,9.84,9.84,0,0,0,2.66-2.81,38.89,38.89,0,0,0,2.19-4.12q0.31-.71.5-1.09l0.16-.4a5.18,5.18,0,0,0,.4-1.31,0.31,0.31,0,0,0-.37-0.31l-0.06,0h-0.12a1.47,1.47,0,0,0-.56.19,4.52,4.52,0,0,0-.62.59q-0.47.49-.84,0.84a0.41,0.41,0,0,1-.31.22c-0.21,0-.31-0.25-0.31-0.74a1.34,1.34,0,0,1,.12-0.65,3.46,3.46,0,0,1,.33-0.56c0.15-.23.34-0.47,0.56-0.73a6.78,6.78,0,0,1,.64-0.67,3.3,3.3,0,0,1,.53-0.4,2.15,2.15,0,0,1,.93-0.39,11.06,11.06,0,0,1,1.55-.08,1,1,0,0,1,.57.22,0.78,0.78,0,0,1,.33.59,10.83,10.83,0,0,1-1,4,20.53,20.53,0,0,1-1.37,2.44q-0.62.92-1.55,2.1l-0.68.87a26.4,26.4,0,0,1-1.76,2.25,10.78,10.78,0,0,1-1.38,1.34,7.1,7.1,0,0,1-1.15.74q-0.53.26-1.4,0.61a3.55,3.55,0,0,1-1.12.34,1.63,1.63,0,0,1-.84-0.37,1.24,1.24,0,0,1-.5-1.06,18.09,18.09,0,0,1,.28-2.11q0-.15.19-1.18a9.42,9.42,0,0,0,.19-1.18q0-.12-0.06-0.12a0.29,0.29,0,0,0-.12.09l-0.19.16q-1.34,1.18-1.88,1.57a5.53,5.53,0,0,1-.89.54l-0.26.16a2.35,2.35,0,0,0-.33.25,7,7,0,0,1-2.24,1.71,4.16,4.16,0,0,0-.87.46,4.75,4.75,0,0,0-.68.62,1,1,0,0,1-.56.37,0.63,0.63,0,0,0-.36.08,1,1,0,0,0-.23.26,2,2,0,0,1-.3.25,0.71,0.71,0,0,1-.39.09h-0.16l-0.19,0a0.82,0.82,0,0,1-.47-0.12,0.88,0.88,0,0,1-.09-0.53A6.88,6.88,0,0,1,653.79,600.35Z" transform="translate(-472.99 -150)"/><path class="cls-1" d="M681.27,599.67q-0.62.65-1.15,1.24a1.88,1.88,0,0,1-.84.4,1.83,1.83,0,0,0-1,.43,7,7,0,0,1-.79.79,2.23,2.23,0,0,1-.67.42,1.79,1.79,0,0,0-.45.18,2.5,2.5,0,0,0-.33.28,1.09,1.09,0,0,1-.5.29,5.79,5.79,0,0,1-.87.14l-0.53.06a0.66,0.66,0,0,1-.43-0.09,0.59,0.59,0,0,1-.13-0.34,0.27,0.27,0,0,1,0-.12,0.53,0.53,0,0,0,0-.16,0.83,0.83,0,0,1,0-.19,2.94,2.94,0,0,1,.16-0.79q0.15-.51.71-2.16,0.71-2.05,1.09-3.23a4,4,0,0,0,.19-0.65,4.27,4.27,0,0,1,.34-1,9.15,9.15,0,0,0,.42-0.82q0.2-.45.32-0.82a2.11,2.11,0,0,1,.37-0.68,7.37,7.37,0,0,1,.59-0.59,5.86,5.86,0,0,0,.87-0.87,2.08,2.08,0,0,1,.89-0.68,4.8,4.8,0,0,1,1-.22,0.93,0.93,0,0,0,.44-0.09,0.44,0.44,0,0,1,.16-0.12,0.82,0.82,0,0,1,.12.68v0.34a3.2,3.2,0,0,1,.39-0.63c0.16-.2.38-0.45,0.67-0.76a1.87,1.87,0,0,1,.82-0.54q0.54-.2,1.72-0.54l1.31-.4a1.81,1.81,0,0,1,.56-0.09,1.11,1.11,0,0,1,.79.28,1,1,0,0,1,.29.78,5.12,5.12,0,0,1-.2,1.44,13.58,13.58,0,0,1-.57,1.57,17.23,17.23,0,0,1-1,2.3,5,5,0,0,1-1,1.15l-0.74.78L683,597.95l-0.68.7A14.59,14.59,0,0,0,681.27,599.67Zm-0.4-1.74a11.93,11.93,0,0,1,2.24-2,2.06,2.06,0,0,0,.81-0.84c0.33-.5.7-1.13,1.12-1.89a2.44,2.44,0,0,0,.28-0.74,3.8,3.8,0,0,0,.09-0.78,1.05,1.05,0,0,0-.14-0.65,0.77,0.77,0,0,0-.57-0.16,5.2,5.2,0,0,0-1.54.14,1.34,1.34,0,0,0-.64.67,2,2,0,0,0-.09.22,1.2,1.2,0,0,1-.28.48,0.9,0.9,0,0,1-.53.17,2.25,2.25,0,0,0-1.71.84,11.21,11.21,0,0,0-1.46,2.52l-0.56,1.15L677,598.92q-0.28.56-.84,1.62l-0.12.22a0.78,0.78,0,0,0-.13.31c0,0.09.08,0.12,0.25,0.12a2.59,2.59,0,0,0,.43-0.06q0.5-.16.76-0.26a4.27,4.27,0,0,0,.54-0.28,6.62,6.62,0,0,0,.65-0.46q0.37-.3,1-0.85Q680.27,598.49,680.87,597.93Z" transform="translate(-472.99 -150)"/><path class="cls-1" d="M696.37,599.58q3.29-3.11,5.51-4.85a25.33,25.33,0,0,1,4.21-2.73,1,1,0,0,1,.5-0.09,1.82,1.82,0,0,1,1.24.46,0.31,0.31,0,0,1,.09.22,1.38,1.38,0,0,1-.31.62,2.1,2.1,0,0,0-.22.37l-0.12.34q-0.47,1.34-.73,2.36a8.81,8.81,0,0,0-.26,2.2,10.1,10.1,0,0,0,.09,1.37,3.81,3.81,0,0,0,.47,1.49,1.07,1.07,0,0,0,1,.46,3.93,3.93,0,0,0,1.27-.28,2,2,0,0,1,.56-0.12,0.22,0.22,0,0,1,.28.22,1.22,1.22,0,0,1-.4.68,1.49,1.49,0,0,1-.71.5,3,3,0,0,0-1.15.43,1.57,1.57,0,0,1-.68.31h-0.15l-0.16,0a3,3,0,0,1-2.33-1.11,3.74,3.74,0,0,1-1-2.53,17.47,17.47,0,0,1,.28-2.66,22,22,0,0,1,.74-2.69l-2.25,1.77-1.51,1.21c-0.43.35-.83,0.7-1.2,1l-1.2,1.12q-0.93.87-1.4,1.35c-0.31.32-.56,0.59-0.74,0.82a3,3,0,0,1-.37.37,2.86,2.86,0,0,1-1.83.74h-0.31l-0.25,0c-0.23,0-.34-0.1-0.34-0.25a1.43,1.43,0,0,1,.28-0.62l0-.06q1.06-2.27,2.48-5.22a17.31,17.31,0,0,0,1.21-2.67,0.06,0.06,0,0,0-.06-0.06,0.74,0.74,0,0,0-.28.19q-1.15,1.06-2.3,2.05l-4,3.62-1.46,1.34c-0.43.4-.69,0.66-0.78,0.76l-0.31.34c-0.62.71-1.11,1.25-1.48,1.65a4.13,4.13,0,0,1-.82.75,1.62,1.62,0,0,1-.84.18,2.45,2.45,0,0,1-.76-0.11,0.37,0.37,0,0,1-.33-0.3v0l0-.06a9.18,9.18,0,0,0,.57-0.89l1.14-1.91,1.41-2.36q0.58-1,.95-1.52,1.27-1.89,2.22-3.52a25.26,25.26,0,0,0,1.23-2.28,3.11,3.11,0,0,0,.22-1.34,2.74,2.74,0,0,0-.06-0.68,4.91,4.91,0,0,1-.25-1.3c0-.29.07-0.45,0.22-0.47a4.07,4.07,0,0,0,.78-0.47,2.49,2.49,0,0,1,.59-0.37,1.84,1.84,0,0,0,.65-0.4,1.65,1.65,0,0,1,.9-0.43,0.77,0.77,0,0,1,.28.06,0.78,0.78,0,0,1,.53.56,2.64,2.64,0,0,1-.22.78q-0.56,1.59-1,2.66c-0.29.71-.55,1.3-0.79,1.77s-0.45.84-.62,1.13-0.42.65-.73,1.09l0,0.06-1.9,3.08-1.37,2.24,9.2-8.51a3.32,3.32,0,0,1,1.55-1.09,0.85,0.85,0,0,1,.62.56,2.42,2.42,0,0,1,.31,1,2.07,2.07,0,0,1-.17.76,9.17,9.17,0,0,1-.57,1.1A56.07,56.07,0,0,0,696.37,599.58Z" transform="translate(-472.99 -150)"/><path class="cls-1" d="M718.88,596.8a10.92,10.92,0,0,1-4.09.76l-0.47,0h-0.43l-0.75.87a8.94,8.94,0,0,0-1,1.23,2.45,2.45,0,0,0-.23,1.07,0.75,0.75,0,0,0,.51.76,2.55,2.55,0,0,0,.92.2,5.11,5.11,0,0,0,1.4-.23c0.54-.15,1.26-0.4,2.18-0.73l0.16-.06q0.28-.12,1.31-0.68l1.13-.62a5.59,5.59,0,0,1,.7-0.31,4.4,4.4,0,0,0,.78-0.53,1.65,1.65,0,0,1,.59-0.37s0.06,0,.06.09a3.84,3.84,0,0,1-.25.87,1.4,1.4,0,0,1-.34.43,2.28,2.28,0,0,0-.31.31,6.74,6.74,0,0,1-1.52,1,21.45,21.45,0,0,1-2.3,1.1q-1.87.81-3.4,1.32a8.37,8.37,0,0,1-2,.51q-2.27,0-2.27-1.52a5.06,5.06,0,0,1,.25-1.6,5.24,5.24,0,0,1,.62-1.32,11.32,11.32,0,0,1,.78-1.09c0.29-.39.51-0.7,0.65-0.92a1.11,1.11,0,0,0,.22-0.45,0.09,0.09,0,0,0,0-.06,0.12,0.12,0,0,1-.06-0.12,0.89,0.89,0,0,1,.22-0.45,4.55,4.55,0,0,1,.53-0.59q0.31-.29.61-0.54a1.94,1.94,0,0,1,.45-0.31,1.37,1.37,0,0,0,.51-0.42l0.92-1c0.31-.37.57-0.67,0.78-0.9a6.9,6.9,0,0,1,.56-0.56c0.5-.49,1-1,1.55-1.41a17.57,17.57,0,0,1,1.57-1.17,10.59,10.59,0,0,1,1.41-.79,2.74,2.74,0,0,1,1.09-.29,2,2,0,0,1,1.8,1.92,9.31,9.31,0,0,1-1.65,4.07A6.77,6.77,0,0,1,718.88,596.8Zm0.87-2.77a7.1,7.1,0,0,0,1.29-1.79,1.74,1.74,0,0,0,.22-0.74,0.47,0.47,0,0,0-.53-0.53,1.15,1.15,0,0,0-.59.19,6.45,6.45,0,0,0-1.29.82,9.67,9.67,0,0,0-1.57,1.48,2.69,2.69,0,0,0-.48.48,1,1,0,0,0-.17.42,0.54,0.54,0,0,1-.19.28,1.44,1.44,0,0,0-.62.65c0,0.1.11,0.15,0.34,0.15a4.41,4.41,0,0,0,.9-0.12l1.3-.31A3.94,3.94,0,0,0,719.75,594Z" transform="translate(-472.99 -150)"/><path class="cls-1" d="M726.44,599.3v0a1.3,1.3,0,0,0,.37-0.37q0.84-.9,2.67-2.52,1.68-1.46,2.45-2.3l0.75-.75,1-1,0.92-.87a6.46,6.46,0,0,1,.62-0.53,3,3,0,0,1,.92-0.45,3.42,3.42,0,0,1,1-.17,0.67,0.67,0,0,1,.68.25,4.42,4.42,0,0,1,.34,1.74,6.09,6.09,0,0,1-.28,1.8c-0.19.6-.46,1.32-0.81,2.17a6.42,6.42,0,0,0-.31,1.06c-0.1.46-.22,0.88-0.34,1.28a2.48,2.48,0,0,1-.25.53,1.27,1.27,0,0,0-.19.56,1.74,1.74,0,0,0,.16.65,1.85,1.85,0,0,0,1.61,1.24,2.46,2.46,0,0,0,.62-0.09,3.17,3.17,0,0,0,.68-0.28,2.58,2.58,0,0,1,.68-0.28c0.06,0,.09,0,0.09.06a1,1,0,0,1-.16.4,1.56,1.56,0,0,1-.56.62,1.39,1.39,0,0,0-.62.68,1.29,1.29,0,0,1-.71.7,2.81,2.81,0,0,1-1.15.23,2.1,2.1,0,0,1-.78-0.13,4.28,4.28,0,0,1-.9-0.65,4.11,4.11,0,0,1-.74-0.93,3.08,3.08,0,0,1-.56-1.55,5.42,5.42,0,0,1,.34-1.46v-0.06q0.37-1.34,1-3.36a11.09,11.09,0,0,0,.65-2.61,1.49,1.49,0,0,0-.09-0.53l0,0a6.69,6.69,0,0,0-1.37,1.28q-1.21,1.3-2.45,2.52t-2.8,2.52l-1.4,1.24q-1.27,1.12-1.8,1.63a9.47,9.47,0,0,0-1,1.13,2.15,2.15,0,0,1-.87.87,3.82,3.82,0,0,1-1.18.25h-0.09a1.91,1.91,0,0,1-.5.09c-0.17,0-.25-0.06-0.25-0.19a1.3,1.3,0,0,1,.19-0.47,0.69,0.69,0,0,0,.09-0.18q0.65-1.55,2-4.6,1-2.11,1.6-3.6t1-2.55c0.21-.54.38-1,0.51-1.52a11.87,11.87,0,0,0,.33-1.62c-0.15.06-.36,0.18-0.65,0.34l-0.84.42a1.07,1.07,0,0,1-.44.14,0.12,0.12,0,0,1-.16-0.12,0.75,0.75,0,0,1,.09-0.31,4,4,0,0,1,1.31-1.21,9.85,9.85,0,0,0,1.37-1,1.81,1.81,0,0,1,.76-0.29,4.8,4.8,0,0,1,1.07-.14,0.68,0.68,0,0,1,.44.09,0.57,0.57,0,0,1,.22.44,1.64,1.64,0,0,1-.16.59q-0.09.28-.12,0.4a15.55,15.55,0,0,1-.68,2.49q-0.53,1.49-1.24,3.29a2.19,2.19,0,0,1-.37.71,4.13,4.13,0,0,0-.44.71,6.61,6.61,0,0,0-.28.87,5.57,5.57,0,0,1-.44,1.27A8,8,0,0,0,726.44,599.3Z" transform="translate(-472.99 -150)"/><path class="cls-1" d="M752.27,597c0.28-.51.57-1.07,0.89-1.69s0.61-1.25.9-1.88l0.87-1.91a0.51,0.51,0,0,1-.36-0.32,1.43,1.43,0,0,1-.11-0.54,1.1,1.1,0,0,1,.33-0.5c0.2-.21.45-0.46,0.76-0.74s0.72-.67.87-0.84a1.12,1.12,0,0,1,1-.47l0.16,0h0.12a1.32,1.32,0,0,1,.56.2,0.6,0.6,0,0,1,.19.51,2,2,0,0,1-.09.56q-0.28,1.12-.41,1.55a7.41,7.41,0,0,1-.28.81,8.73,8.73,0,0,1-.39.81c-0.15.29-.41,0.73-0.76,1.31s-0.92,1.46-1.77,2.89-1.58,2.65-2.14,3.53a21.85,21.85,0,0,1-1.61,2.25,4.57,4.57,0,0,1-1,.81,2.19,2.19,0,0,1-1,.43,0.26,0.26,0,0,1-.19-0.06,0.24,0.24,0,0,1-.12-0.15,1.63,1.63,0,0,1,.25-0.5,1.78,1.78,0,0,0,.16-0.28c0.17-.31.35-0.63,0.54-1s0.54-1,1-2q0.31-.56.57-1.06c0.18-.33.3-0.55,0.36-0.65A7.69,7.69,0,0,0,752.27,597Zm9.93-16a3.28,3.28,0,0,1-.06.59,2.59,2.59,0,0,1-.62,1.34,7.88,7.88,0,0,1-1.27,1.12,1,1,0,0,1-.47.34,0.34,0.34,0,0,1-.25-0.22,3.22,3.22,0,0,1-.4-1.62,2.83,2.83,0,0,1,.19-1.15,2,2,0,0,1,.78-0.78,3.77,3.77,0,0,1,.7-0.4,1.65,1.65,0,0,1,.64-0.15,0.63,0.63,0,0,1,.4.12A0.86,0.86,0,0,1,762.2,581Z" transform="translate(-472.99 -150)"/><path class="cls-1" d="M761.08,599.3v0a1.34,1.34,0,0,0,.37-0.37q0.84-.9,2.67-2.52,1.68-1.46,2.45-2.3l0.75-.75,1-1,0.92-.87a6.48,6.48,0,0,1,.62-0.53,3.05,3.05,0,0,1,.92-0.45,3.41,3.41,0,0,1,1-.17,0.67,0.67,0,0,1,.68.25,4.42,4.42,0,0,1,.34,1.74,6,6,0,0,1-.28,1.8c-0.19.6-.46,1.32-0.81,2.17a6.45,6.45,0,0,0-.31,1.06c-0.11.46-.22,0.88-0.34,1.28a2.42,2.42,0,0,1-.25.53,1.28,1.28,0,0,0-.19.56,1.73,1.73,0,0,0,.16.65,1.85,1.85,0,0,0,1.62,1.24,2.46,2.46,0,0,0,.62-0.09,3.19,3.19,0,0,0,.68-0.28,2.58,2.58,0,0,1,.68-0.28c0.06,0,.09,0,0.09.06a1,1,0,0,1-.16.4,1.57,1.57,0,0,1-.56.62,1.4,1.4,0,0,0-.62.68,1.28,1.28,0,0,1-.71.7,2.8,2.8,0,0,1-1.15.23,2.12,2.12,0,0,1-.78-0.13,4.31,4.31,0,0,1-.9-0.65,4.07,4.07,0,0,1-.74-0.93,3.08,3.08,0,0,1-.56-1.55,5.4,5.4,0,0,1,.34-1.46v-0.06q0.37-1.34,1-3.36a11.16,11.16,0,0,0,.65-2.61,1.49,1.49,0,0,0-.09-0.53l0,0a6.73,6.73,0,0,0-1.37,1.28q-1.21,1.3-2.45,2.52t-2.8,2.52l-1.4,1.24q-1.27,1.12-1.8,1.63a9.36,9.36,0,0,0-1,1.13,2.14,2.14,0,0,1-.87.87,3.79,3.79,0,0,1-1.18.25h-0.09a1.93,1.93,0,0,1-.5.09c-0.16,0-.25-0.06-0.25-0.19a1.26,1.26,0,0,1,.19-0.47,0.67,0.67,0,0,0,.09-0.18q0.65-1.55,2-4.6,1-2.11,1.6-3.6t1-2.55c0.21-.54.38-1,0.51-1.52a11.67,11.67,0,0,0,.33-1.62c-0.14.06-.36,0.18-0.65,0.34l-0.84.42a1.08,1.08,0,0,1-.44.14,0.12,0.12,0,0,1-.16-0.12,0.72,0.72,0,0,1,.09-0.31,3.92,3.92,0,0,1,1.31-1.21,10,10,0,0,0,1.37-1,1.81,1.81,0,0,1,.76-0.29,4.8,4.8,0,0,1,1.07-.14,0.68,0.68,0,0,1,.43.09,0.56,0.56,0,0,1,.22.44,1.66,1.66,0,0,1-.16.59q-0.09.28-.12,0.4a15.55,15.55,0,0,1-.68,2.49q-0.53,1.49-1.24,3.29a2.16,2.16,0,0,1-.37.71,3.89,3.89,0,0,0-.43.71,6,6,0,0,0-.28.87,5.66,5.66,0,0,1-.43,1.27A8,8,0,0,0,761.08,599.3Z" transform="translate(-472.99 -150)"/><path class="cls-1" d="M788.73,592.21a0.05,0.05,0,0,0-.06-0.06,1.71,1.71,0,0,0-.82.48,4.22,4.22,0,0,0-1,1.2,10.77,10.77,0,0,1-.09-1.12,2.13,2.13,0,0,1,.19-0.9,4.45,4.45,0,0,1,.78-1.2,1.16,1.16,0,0,1,.68-0.26h0a2.91,2.91,0,0,0,.87-0.28,4,4,0,0,1,1.4-.4q1.52-2.08,2.58-3.8t2.45-4.27a16.29,16.29,0,0,0,.81-1.43,4.35,4.35,0,0,1,.71-1.06,0.59,0.59,0,0,1,.31-0.06,2.91,2.91,0,0,0,.5-0.11,2.64,2.64,0,0,0,.65-0.36,0.94,0.94,0,0,1,.59-0.22,0.29,0.29,0,0,1,.31.34,2.89,2.89,0,0,1-.5,1.24l-1.71,2.67q-1.09,1.71-1.9,2.94l-1.83,2.78-0.43.56a2.41,2.41,0,0,0-.37.53,0.08,0.08,0,0,0,.06.06l0.19,0,0.56,0q1.55-.09,3.88-0.31Q799,589,799.51,589c0.39,0,.68,0,0.85,0a1.73,1.73,0,0,0,.48-0.12,1.69,1.69,0,0,1,.56-0.19c0.08,0,.13,0,0.13.09a1,1,0,0,1-.22.46,2.64,2.64,0,0,1-.43.5,1.51,1.51,0,0,1-.48.61,2.62,2.62,0,0,1-.73.29,5.25,5.25,0,0,0-.75.25,7.92,7.92,0,0,1-1.82.37q-1.54.22-5.58,0.71-1.09,1.46-1.88,2.67t-1.34,2.25a19.17,19.17,0,0,0-.92,2q-0.37,1-.65,1.94a0.29,0.29,0,0,0,.31.34,0.64,0.64,0,0,0,.53-0.47,1.42,1.42,0,0,0,0,.19V601a1.93,1.93,0,0,1-.71,1.6,2.13,2.13,0,0,1-1.27.57,2.1,2.1,0,0,1-.93.37,0.55,0.55,0,0,1-.47-0.37,2.64,2.64,0,0,1-.31-1.24,5.4,5.4,0,0,1,.06-0.74c0-.12,0-0.26.06-0.4a5,5,0,0,1,.17-0.79,7.63,7.63,0,0,1,.53-1.15q0.42-.79,1.34-2.33t2.56-4.18A0.42,0.42,0,0,0,788.73,592.21Z" transform="translate(-472.99 -150)"/><path class="cls-1" d="M806.94,580.1l-6,10.47q-1.77,3-3,5.37a28.25,28.25,0,0,0-1.94,4.63q1.15-1.08,2.92-2.7,1.52-1.36,2.25-2.11a10,10,0,0,0,1.32-1.68,5.42,5.42,0,0,1,.58-0.65q0.48-.5,1.1-1.09l1.27-1.18a9.28,9.28,0,0,1,1-.84A1,1,0,0,1,807,590l0.19,0a1,1,0,0,0,.31.06,2,2,0,0,0,.56.09,1.86,1.86,0,0,0,1.09-.4c-0.15.54-.35,1.16-0.62,1.86a14.38,14.38,0,0,1-.93,2q-0.93,1.68-1.52,2.84t-0.87,1.9a7.87,7.87,0,0,0-.37,1.2,4.75,4.75,0,0,0-.09.93l0,0.25a1.91,1.91,0,0,0,.2.87,0.88,0.88,0,0,0,.79.28,10,10,0,0,0,2.7-.59q0.25,0,.25.12a1.62,1.62,0,0,1-.59.85,5.12,5.12,0,0,1-1.37.95,1.44,1.44,0,0,1-.56.64,2.67,2.67,0,0,1-.74.33,3.31,3.31,0,0,1-1,.12,3.46,3.46,0,0,1-1.32-.25,1.52,1.52,0,0,1-.85-0.84,4.93,4.93,0,0,1-.25-1.43,10.57,10.57,0,0,1,.5-2.61A8.08,8.08,0,0,1,803,598a7.06,7.06,0,0,0,.37-0.84A7.87,7.87,0,0,1,804,596a23.73,23.73,0,0,0,1.68-3,6.66,6.66,0,0,0-1.51,1.34q-0.82.93-1.94,2.33a11.78,11.78,0,0,1-.9,1.06,29.6,29.6,0,0,0-2.61,2.42c-0.64.68-1.21,1.25-1.69,1.69a10.13,10.13,0,0,1-1.66,1.23,2.88,2.88,0,0,1-.71.22,4.05,4.05,0,0,0-1.24.37,1.13,1.13,0,0,0,0-.16,0.68,0.68,0,0,1-.06-0.25v-0.06a0.22,0.22,0,0,0,0-.09,28.33,28.33,0,0,1,1.26-4.52,44.62,44.62,0,0,1,2-4.65q1.15-2.3,2.35-4.4t3-5.08q1.74-2.92,2.8-4.77t1.9-3.56l0.7-1.24c0.11-.21.19-0.36,0.23-0.45s0.13-.28.28-0.56,0.38-.75.71-1.41l1.21-2.45a2.78,2.78,0,0,1,.76-1,1.54,1.54,0,0,1,.82-0.2h0.22a0.66,0.66,0,0,1,.74.74,18.57,18.57,0,0,1-.06,1.89,6.09,6.09,0,0,1-.28,1.15,5.86,5.86,0,0,0-.2-1,4,4,0,0,0-.42-0.93,8.39,8.39,0,0,1-.5,1.09q-0.37.72-1.18,2.33l-1.09,2.13c-0.31.61-.53,1.07-0.65,1.38Z" transform="translate(-472.99 -150)"/><path class="cls-1" d="M817.39,596.8a10.9,10.9,0,0,1-4.08.76l-0.47,0H812.4l-0.75.87a9,9,0,0,0-1,1.23,2.46,2.46,0,0,0-.23,1.07,0.75,0.75,0,0,0,.51.76,2.54,2.54,0,0,0,.92.2,5.11,5.11,0,0,0,1.4-.23c0.54-.15,1.26-0.4,2.17-0.73l0.16-.06q0.28-.12,1.3-0.68l1.13-.62a5.42,5.42,0,0,1,.7-0.31,4.4,4.4,0,0,0,.78-0.53,1.65,1.65,0,0,1,.59-0.37s0.06,0,.06.09a3.83,3.83,0,0,1-.25.87,1.39,1.39,0,0,1-.34.43,2.36,2.36,0,0,0-.31.31,6.69,6.69,0,0,1-1.52,1,21.34,21.34,0,0,1-2.3,1.1q-1.86.81-3.4,1.32a8.36,8.36,0,0,1-2,.51q-2.27,0-2.27-1.52a5.1,5.1,0,0,1,.25-1.6,5.29,5.29,0,0,1,.62-1.32,11.71,11.71,0,0,1,.78-1.09q0.43-.59.65-0.92a1.1,1.1,0,0,0,.22-0.45,0.09,0.09,0,0,0,0-.06,0.12,0.12,0,0,1-.06-0.12,0.89,0.89,0,0,1,.22-0.45,4.35,4.35,0,0,1,.53-0.59q0.31-.29.6-0.54a1.94,1.94,0,0,1,.45-0.31,1.37,1.37,0,0,0,.51-0.42l0.92-1q0.47-.56.78-0.9a6.92,6.92,0,0,1,.56-0.56c0.5-.49,1-1,1.55-1.41a17.58,17.58,0,0,1,1.57-1.17,10.49,10.49,0,0,1,1.41-.79,2.75,2.75,0,0,1,1.09-.29,2,2,0,0,1,1.8,1.92,9.3,9.3,0,0,1-1.65,4.07A6.76,6.76,0,0,1,817.39,596.8Zm0.87-2.77a7.06,7.06,0,0,0,1.29-1.79,1.74,1.74,0,0,0,.22-0.74,0.47,0.47,0,0,0-.53-0.53,1.16,1.16,0,0,0-.59.19,6.49,6.49,0,0,0-1.29.82,9.67,9.67,0,0,0-1.57,1.48,2.69,2.69,0,0,0-.48.48,1,1,0,0,0-.17.42,0.55,0.55,0,0,1-.19.28,1.44,1.44,0,0,0-.62.65c0,0.1.11,0.15,0.34,0.15a4.39,4.39,0,0,0,.9-0.12l1.3-.31A3.94,3.94,0,0,0,818.26,594Z" transform="translate(-472.99 -150)"/><path class="cls-1" d="M841.82,588.59a3.9,3.9,0,0,1,1.43-.32,1.06,1.06,0,0,1,.71.21,2.33,2.33,0,0,1,.68,2.05,5.38,5.38,0,0,1-.06.84v0.09a1.08,1.08,0,0,0,.11.39,0.34,0.34,0,0,0,.33.14,1.9,1.9,0,0,0,.68-0.19,10.31,10.31,0,0,0-.16,1.46,7.34,7.34,0,0,1-.25,1.65,12.91,12.91,0,0,1-1.61,2.92q-0.78,1.18-1.2,2a4,4,0,0,0-.48,1.6c0.17-.09.42-0.23,0.78-0.44a3.55,3.55,0,0,1,.93-0.46h0.06l0.06,0c0.13,0,.19.08,0.19,0.25a2.62,2.62,0,0,1-.31,1,4.74,4.74,0,0,0-.78.65,3,3,0,0,1-.81.62L842,603a1.05,1.05,0,0,0-.65.4,0.58,0.58,0,0,1-.53.12,4.11,4.11,0,0,1-.9-0.09,0.54,0.54,0,0,1-.5-0.53,1.24,1.24,0,0,1,.12-0.49,7.26,7.26,0,0,0,.44-0.95q0.28-.7.59-1.57c0.31-.85.51-1.36,0.59-1.52l0,0a1.65,1.65,0,0,0,.19-0.74l0-.13v-0.22a1.32,1.32,0,0,1-.47.57,5.77,5.77,0,0,1-.82.54,6.46,6.46,0,0,1-.85.4,1.9,1.9,0,0,1-.59.16,1.71,1.71,0,0,0-.93.48,10,10,0,0,0-1.27,1.29,0.54,0.54,0,0,0-.16.15,0.49,0.49,0,0,1-.43.25,2.38,2.38,0,0,0-.84.45,10.77,10.77,0,0,0-1.18,1,5.82,5.82,0,0,1-.9.62,1.75,1.75,0,0,1-.74.28,2.7,2.7,0,0,0-.84.18c-0.35.13-.68,0.26-1,0.4a0.26,0.26,0,0,0-.12,0h-0.12a0.66,0.66,0,0,1-.57-0.28,1,1,0,0,1-.2-0.62v-0.06a4,4,0,0,1,.12-0.9,2.35,2.35,0,0,1,.5-0.78l4.47-6.34a15,15,0,0,1,1-1.17q0.64-.7,1.51-1.57t1.77-1.66q0.9-.79,1.68-1.35A9.2,9.2,0,0,1,841.82,588.59Zm-10,12.61a1.1,1.1,0,0,0-.16.42q0,0.09.19,0.12a0.26,0.26,0,0,1,.16,0l0.31,0,0.25,0a1.14,1.14,0,0,0,.56-0.16c0.08,0,.26-0.15.53-0.33s0.63-.43,1.09-0.76l1.52-1.07a4.64,4.64,0,0,1,.84-0.51,0.66,0.66,0,0,0,.25-0.4,0.77,0.77,0,0,1,.13-0.37,0.53,0.53,0,0,1,.37-0.16,0.8,0.8,0,0,0,.68-0.37,1.46,1.46,0,0,1,.47-0.49l0.37-.28a4.49,4.49,0,0,0,1.24-1.65,24.16,24.16,0,0,0,1-2.67,3.83,3.83,0,0,0,.12-0.37,1.45,1.45,0,0,0,.13-0.53,1,1,0,0,0-.65-0.84l-0.09,0H841q-0.75,0-2.7,1.89a29,29,0,0,0-3.25,3.57,41.62,41.62,0,0,0-2.78,4.1A8.62,8.62,0,0,0,831.82,601.21Z" transform="translate(-472.99 -150)"/><path class="cls-1" d="M845.37,603.37q0.4-1.43.64-2.1a2.55,2.55,0,0,1,.54-1,8.58,8.58,0,0,0,.7-0.9q0.26-.4.89-1.49,0.22-.43.68-1.24a11.19,11.19,0,0,0,.7-1.49,8.29,8.29,0,0,0,.45-1.4,6.11,6.11,0,0,1,.22-0.85,6,6,0,0,1,.31-0.73,5.89,5.89,0,0,1,.54-0.85q0.36-.48.92-1.2a1.52,1.52,0,0,1,1.24-.37l0.25,0h0.31a8.8,8.8,0,0,0-.4.87c-0.15.35-.26,0.66-0.36,0.92s-0.18.52-.26,0.79a2.37,2.37,0,0,0-.13.53v0.25a0,0,0,0,0,0,0,0.19,0.19,0,0,0,.09-0.06,1.16,1.16,0,0,1,.22-0.19q1-.87,1.55-1.48c0.39-.4.7-0.73,0.92-1a4.44,4.44,0,0,0,.44-0.57,1.25,1.25,0,0,0,.14-0.31,0.67,0.67,0,0,1,.13-0.18c0.25-.17.58-0.42,1-0.75a13.88,13.88,0,0,1,2.27-1.46l0.09,0h0.09a0.72,0.72,0,0,1,.53.22,0.48,0.48,0,0,1,.09.34,2.69,2.69,0,0,1-.34,1.15,10.73,10.73,0,0,1-1,1.68,2.76,2.76,0,0,1-.92.87,0.72,0.72,0,0,1-.31.09,1.16,1.16,0,0,1-.74-0.53c-0.23.19-.5,0.42-0.81,0.7l-0.89.78c-0.28.24-.56,0.49-0.84,0.76a7.72,7.72,0,0,0-.54.56q-1.52,1.77-3,3.82t-2.55,3.85l-0.16.22c-0.64.83-1.07,1.36-1.29,1.58a1,1,0,0,1-.7.34,3.08,3.08,0,0,1-.59-0.09h-0.09Z" transform="translate(-472.99 -150)"/><path class="cls-1" d="M861,592.21a0.05,0.05,0,0,0-.06-0.06,1.7,1.7,0,0,0-.82.48,4.22,4.22,0,0,0-1,1.2,10.73,10.73,0,0,1-.09-1.12,2.11,2.11,0,0,1,.19-0.9,4.43,4.43,0,0,1,.78-1.2,1.16,1.16,0,0,1,.68-0.26h0a2.93,2.93,0,0,0,.87-0.28,4,4,0,0,1,1.4-.4q1.52-2.08,2.58-3.8t2.45-4.27a15.9,15.9,0,0,0,.81-1.43,4.31,4.31,0,0,1,.71-1.06,0.59,0.59,0,0,1,.31-0.06,2.92,2.92,0,0,0,.5-0.11,2.64,2.64,0,0,0,.65-0.36,0.94,0.94,0,0,1,.59-0.22,0.29,0.29,0,0,1,.31.34,2.88,2.88,0,0,1-.5,1.24l-1.71,2.67q-1.09,1.71-1.9,2.94l-1.83,2.78-0.43.56a2.41,2.41,0,0,0-.37.53,0.09,0.09,0,0,0,.06.06l0.19,0,0.56,0q1.55-.09,3.88-0.31c1-.1,1.61-0.16,1.93-0.16s0.68,0,.85,0a1.73,1.73,0,0,0,.48-0.12,1.69,1.69,0,0,1,.56-0.19c0.08,0,.12,0,0.12.09a1,1,0,0,1-.22.46,2.64,2.64,0,0,1-.44.5,1.51,1.51,0,0,1-.48.61,2.63,2.63,0,0,1-.73.29,5.19,5.19,0,0,0-.75.25,7.94,7.94,0,0,1-1.82.37q-1.54.22-5.58,0.71-1.09,1.46-1.88,2.67t-1.34,2.25a19.14,19.14,0,0,0-.92,2c-0.25.65-.47,1.3-0.65,1.94a0.29,0.29,0,0,0,.31.34,0.64,0.64,0,0,0,.53-0.47,1.53,1.53,0,0,0,0,.19V601a1.94,1.94,0,0,1-.71,1.6,2.13,2.13,0,0,1-1.27.57,2.11,2.11,0,0,1-.93.37,0.54,0.54,0,0,1-.47-0.37,2.63,2.63,0,0,1-.31-1.24,5.21,5.21,0,0,1,.06-0.74c0-.12,0-0.26.06-0.4a5.31,5.31,0,0,1,.17-0.79,7.79,7.79,0,0,1,.53-1.15q0.42-.79,1.34-2.33t2.56-4.18A0.42,0.42,0,0,0,861,592.21Z" transform="translate(-472.99 -150)"/><path class="cls-1" d="M873.53,601.49a8.28,8.28,0,0,1-.59.73,5.64,5.64,0,0,1-.78.73,2.6,2.6,0,0,1-.82.45,15.52,15.52,0,0,1-1.55.34,9.52,9.52,0,0,1-1.62.16,10.39,10.39,0,0,1-1.85-.28,15,15,0,0,1-1.76-.5,1.2,1.2,0,0,1-.48-0.17,0.43,0.43,0,0,1-.23-0.39,1,1,0,0,1,.36-0.61,2.09,2.09,0,0,1,1-.51,1.62,1.62,0,0,1,.3-0.5,3,3,0,0,1,.64-0.47l0.06,0h0.09a0.53,0.53,0,0,1,.4.53,7.59,7.59,0,0,0,.84.3c0.37,0.11.74,0.21,1.1,0.29l1.13,0.23a5.71,5.71,0,0,0,1,.11q0.78,0,.78-0.37a1,1,0,0,0-.12-0.4,2.23,2.23,0,0,1-.09-0.37,5.21,5.21,0,0,0-.26-0.7,5,5,0,0,0-.48-0.76,6.15,6.15,0,0,1-.78-1.66,5.31,5.31,0,0,1-.25-1.44,3.66,3.66,0,0,1,.17-1.17c0.11-.34.27-0.75,0.48-1.23a4.44,4.44,0,0,0,.22-0.46,4.66,4.66,0,0,1,.76-1.15,9.66,9.66,0,0,1,1.15-1.12,15.29,15.29,0,0,1,1.29-1,10.6,10.6,0,0,1,1.15-.68,5.67,5.67,0,0,1,2.45-.65,1.94,1.94,0,0,1,1.12.28,0.74,0.74,0,0,1,.28.62,1.6,1.6,0,0,1-.22.75,7.28,7.28,0,0,1-.54.85q-0.39.54-.92,1.23t-1,1.27a8.41,8.41,0,0,1-.93,1l-0.19.09a0.74,0.74,0,0,1-.25.09,0.44,0.44,0,0,1-.31-0.31,4.23,4.23,0,0,1,.47-0.62c0.35-.46.66-0.86,0.92-1.23a4.91,4.91,0,0,0,.54-0.92,0.69,0.69,0,0,0,.09-0.37,0.81,0.81,0,0,0-.2-0.54,0.75,0.75,0,0,0-.61-0.23,4,4,0,0,0-.74.25l-0.59.25a4.87,4.87,0,0,0-1.24.79,2.06,2.06,0,0,0-.56.92,1.73,1.73,0,0,1-.22.49,2.14,2.14,0,0,0-.28.61,5.29,5.29,0,0,0-.12,1.1,3.42,3.42,0,0,0,.12,1,4.76,4.76,0,0,0,.62,1.1,1.45,1.45,0,0,1,.25.46,1.71,1.71,0,0,0,.13.31,5.63,5.63,0,0,0,.37.59,2.8,2.8,0,0,1,.32.68,2.54,2.54,0,0,1,.08.68,2.62,2.62,0,0,0,.06.47,3,3,0,0,1,.09.62A1,1,0,0,1,873.53,601.49Z" transform="translate(-472.99 -150)"/><path class="cls-2" d="M703.71,265.55c0,0.31-.21.48-0.22,0.79v-0.05l-0.11.21a35.92,35.92,0,0,1-3.29,6.12c-0.12.18-.24,0.35-0.35,0.56a74,74,0,0,1-5.1,6.92q0-.5,0-1c0.1-2.5.16-5,.16-7.49,0-3.43-.13-6.84-0.44-10.24-0.1-1.09-.24-2.19-0.38-3.28a31.28,31.28,0,0,1,7.18,4.94h0l0.27,0.25,0.26,0.24c0.49,0.46.9,0.87,1.2,1.17l0.27,0.28,0.19,0.22A4.75,4.75,0,0,1,703.71,265.55Z" transform="translate(-472.99 -150)"/><path class="cls-3" d="M669.94,302.32q-1.32.93-2.7,1.86l0,0a205.33,205.33,0,0,1-20,11.86c-1.86,1-3.63,1.95-5.32,2.94-1.61-2.31-3.73-5.54-5.26-7.53-4.07-5.32-8.31-10.72-12.57-16.17-8.52-10.9-17.08-22-25.32-33.34a387.18,387.18,0,0,1-23.15-35.39,157,157,0,0,1-9.26-19c-2.55-6.48-4.54-13.27-4.69-19.69,1.67,6.48,4.92,12.44,8.55,18a150.83,150.83,0,0,0,12.22,15.8,357,357,0,0,0,28.15,28.22c9.82,8.95,19.94,17.56,30.2,26.22,5.14,4.34,10.31,8.67,15.57,13.19,2.62,2.26,5.27,4.56,8,7,1.36,1.24,2.74,2.53,4.16,3.9A22.53,22.53,0,0,1,669.94,302.32Z" transform="translate(-472.99 -150)"/><path class="cls-3" d="M732.45,288.61c3.42,8.29,5.5,16.11,6,22.6a56.73,56.73,0,0,1-.72,13c-0.2,1.44-.39,2.79-0.5,4.08q1.83-3,3.57-5.94c3.57-6,7-12,10.37-17.86,6.81-11.77,13.6-23.39,20.74-34.75a364.1,364.1,0,0,1,22.95-33,149.4,149.4,0,0,1,13.37-14.83c4.81-4.54,10-8.75,16-11.41-6.13,1.1-12.35,4.15-18.19,7.72a150.46,150.46,0,0,0-16.86,12.28,377.83,377.83,0,0,0-30.54,28.92c-9.06,9.42-17.81,19.1-26.42,28.74Z" transform="translate(-472.99 -150)"/><path class="cls-3" d="M840.86,426.55a370.57,370.57,0,0,0-35-22.78c-12-7-24.12-13.58-36.16-20-6-3.21-12-6.4-17.81-9.57-2.83-1.56-5.63-3.11-8.26-4.65,0.2,0.41.4,0.82,0.62,1.24,1.51,2.95,4.16,8.1-.71,12.38,1.07,2.26,2.06,5.51,1,8.58a8.57,8.57,0,0,1-5.12,5.06c-0.13.56-.28,1.27-0.42,2.09s-0.24,1.55-.34,2.59l3.81,1.15c6.58,2,13,3.78,19.39,5.62,12.77,3.66,25.39,7.35,37.87,11.46a344,344,0,0,1,36.78,14.14,143.6,143.6,0,0,1,17.34,9.4c5.5,3.58,10.8,7.69,14.85,12.94-2.63-5.82-7.1-11.21-12-16.09A150.85,150.85,0,0,0,840.86,426.55Z" transform="translate(-472.99 -150)"/><path class="cls-3" d="M689,420.56a115.69,115.69,0,0,0-13.9,20.28A76.17,76.17,0,0,0,667.51,462q-0.13,8.44-.38,16.83c-0.07,2.12-.15,4.25-0.24,6.37,0.05,0.18.1,0.35,0.15,0.54l-0.17.07v0.13c0,0.39,0,.78,0,1.18a371.61,371.61,0,0,1-3.63,40.39c-0.36,2.32-.77,4.63-1.21,6.93a10.56,10.56,0,0,1,2.45-3.08,13.15,13.15,0,0,1,7.24-2.93A400.31,400.31,0,0,0,683.31,489c3.42-13.78,6.39-27.63,9.27-41.33,1.45-6.83,2.85-13.66,4.31-20.28,0.42-1.91.85-3.78,1.27-5.64l-2.87-.37C693.11,421.14,691,420.87,689,420.56Z" transform="translate(-472.99 -150)"/><path class="cls-3" d="M611.61,379.16a71.62,71.62,0,0,1-1.69,8.27c0,0.1-.05.2-0.08,0.3l-0.51,0c-13.54.76-27.25,1.47-41,1.7a360.52,360.52,0,0,1-41.37-1.3,146.18,146.18,0,0,1-20.34-3.34c-6.58-1.65-13.09-4-18.21-7.58,6.06,2.4,12.64,3.16,19.16,3.36a141.19,141.19,0,0,0,19.58-1,342.28,342.28,0,0,0,38.67-7.07c12.8-3,25.5-6.43,38.32-10l4.61-1.26c-0.05.5-.09,1-0.1,1.51A37.71,37.71,0,0,0,611.61,379.16Z" transform="translate(-472.99 -150)"/><path class="cls-3" d="M820.56,311.65l-0.82.25q-9.46,2.86-18.88,5.82c-6.27,2-12.71,3.56-19.07,5.34-3.16.9-6.3,1.9-9.38,3s-6.09,2.44-9.06,3.87a171.41,171.41,0,0,0-17.41,9.54c-1.22.77-2.44,1.56-3.64,2.38l2.14,2.22a54.93,54.93,0,0,1,4.16,5,14.85,14.85,0,0,1,1.57,2.86l0,0.09a118.15,118.15,0,0,0,12.17-2.27A150.65,150.65,0,0,0,787,341.4a158.94,158.94,0,0,0,17.8-9.06l1.5-.7q9-4,18-8.16T842.12,315c11.86-5.73,23.73-11.43,35.46-17.47l-0.67-1.75c-12.82,3.29-25.5,6.91-38.19,10.51C832.66,308.08,826.6,309.84,820.56,311.65Z" transform="translate(-472.99 -150)"/><path class="cls-3" d="M765.75,480.09a128.58,128.58,0,0,0-4.95-12.67,161,161,0,0,0-12.93-23.17,157.19,157.19,0,0,0-16.39-20.7c-0.39-.42-0.79-0.82-1.19-1.23A36.56,36.56,0,0,1,718.45,424h-0.24c-1,0-2,0-3-.08q1.63,4.45,3.55,8.7a164.63,164.63,0,0,0,29.36,43.83,123.25,123.25,0,0,0,9.72,9.26c1.74,1.45,3.51,2.9,5.38,4.26a58.06,58.06,0,0,0,5.91,3.88,61.78,61.78,0,0,0-1.42-7.09C767.13,484.5,766.45,482.29,765.75,480.09Z" transform="translate(-472.99 -150)"/><path class="cls-3" d="M628.06,328.51l-0.31.26c-0.62.53-1.22,1.05-1.82,1.58-0.25.24-.5,0.46-0.76,0.69a60.94,60.94,0,0,0-8.82,10,155.81,155.81,0,0,1-45.84-16.35c-1.23-.67-2.45-1.39-3.67-2.11-1-.45-1.92-0.89-2.88-1.31q-9-4-18.05-8t-18-8.28c-11.93-5.63-23.88-11.23-35.7-17.18l0.63-1.76c12.82,3.16,25.52,6.66,38.22,10.13q9.5,2.65,19,5.37t18.9,5.65c4.81,1.47,9.72,2.71,14.6,4a156.2,156.2,0,0,1,17,4.8,150.4,150.4,0,0,1,23.82,10.48C625.62,327.08,626.84,327.79,628.06,328.51Z" transform="translate(-472.99 -150)"/><path class="cls-3" d="M721.77,268.28c1.06,1.63,2.08,3.31,3.06,5,0.76-1.78,1.51-3.57,2.21-5.37,1.11-2.87,2.11-5.76,3-8.7s1.56-5.92,2.17-8.93c1.21-6,2.23-12.1,3.64-18.07s2.76-11.94,4.1-17.93,2.59-12,3.85-18c2.46-12,4.94-24.06,7.1-36.18l-1.68-.48c-4.81,11.36-9.3,22.82-13.81,34.26q-3.34,8.6-6.61,17.22t-6.36,17.28c-2.08,5.77-4.55,11.44-6.83,17.16-1.13,2.86-2.15,5.75-3.05,8.68-0.39,1.27-.73,2.56-1.07,3.85l0.32,0.2A33.14,33.14,0,0,1,721.77,268.28Z" transform="translate(-472.99 -150)"/><path class="cls-3" d="M794.83,281.86c-5.12,3.17-10.47,6-15.72,9-2.61,1.5-5.16,3.1-7.64,4.8s-4.84,3.55-7.15,5.5a153.37,153.37,0,0,0-13.26,12.51,96.89,96.89,0,0,0-11.68,14.8l1,1.46A96,96,0,0,0,758.23,324a154,154,0,0,0,16.24-8.23c2.61-1.52,5.14-3.13,7.59-4.87s4.8-3.61,7.1-5.57c4.6-3.92,9.07-8,13.78-11.75s9.4-7.54,14.07-11.35,9.28-7.69,13.91-11.57c9.21-7.8,18.43-15.59,27.47-23.65l-1-1.46c-10.63,5.76-21.07,11.8-31.53,17.82q-7.81,4.55-15.58,9.17T794.83,281.86Z" transform="translate(-472.99 -150)"/><path class="cls-3" d="M838,357.31c-6-.29-11.92-0.53-17.88-0.75s-11.94-.83-17.91-1.25c-3-.2-6-0.29-8.93-0.24s-5.93.27-8.89,0.61a146.41,146.41,0,0,0-17.7,3.09,91.85,91.85,0,0,0-17.57,5.91l0.09,1.8a95.33,95.33,0,0,0,18.08,5,150.48,150.48,0,0,0,18,2.18c3,0.18,6,.25,8.93.15s5.93-.34,8.89-0.7c5.91-.73,11.81-1.66,17.74-2.17s11.85-1.07,17.77-1.67,11.84-1.26,17.75-1.94c11.83-1.41,23.66-2.78,35.47-4.51l-0.08-1.8c-11.95-1.12-23.88-1.88-35.82-2.68C849.88,358,843.92,357.62,838,357.31Z" transform="translate(-472.99 -150)"/><path class="cls-3" d="M805,448.34q-7.28-5.38-14.61-10.65c-4.89-3.51-9.58-7.38-14.37-11.09-2.4-1.83-4.85-3.58-7.37-5.2s-5.12-3.1-7.79-4.47a148.63,148.63,0,0,0-16.48-7.32c-1.9-.69-3.81-1.35-5.75-2,0.07,0.77.17,1.52,0.3,2.25a10.34,10.34,0,0,1-.07,4.12,9.78,9.78,0,0,1-2.57,4.7l1.93,1.91a156.07,156.07,0,0,0,13.92,11.89c2.4,1.83,4.87,3.54,7.41,5.13s5.16,3,7.83,4.39c5.34,2.7,10.79,5.23,16,8.11s10.51,5.73,15.78,8.55,10.6,5.57,15.92,8.31c10.66,5.45,21.31,10.91,32.13,16.08l0.87-1.56c-9.44-7.63-19-15-28.65-22.31Q812.23,453.75,805,448.34Z" transform="translate(-472.99 -150)"/><path class="cls-3" d="M728.61,488c-1.15-6-1.9-12.2-2.84-18.31-0.48-3-1.07-6.06-1.78-9s-1.58-5.91-2.57-8.81a157.89,157.89,0,0,0-6.88-17.1,117.4,117.4,0,0,0-6.16-11.39l-1.85-.27c-0.64-.09-1.29-0.2-1.95-0.31l-0.23,0-1.25-.21-0.17,0a115.32,115.32,0,0,0-.24,15.74,166.53,166.53,0,0,0,2,18.56c0.5,3,1.1,6,1.87,9s1.65,5.88,2.65,8.78c2,5.79,4.21,11.51,6,17.35s3.67,11.67,5.56,17.5c0.41,1.23.83,2.46,1.23,3.69L732.44,512a45.18,45.18,0,0,0-.53-5.87Q730.32,497,728.61,488Z" transform="translate(-472.99 -150)"/><path class="cls-3" d="M604.62,404l-0.69,1.77A209.57,209.57,0,0,1,593.58,428c-0.62,1.18-1.27,2.37-1.95,3.58-4.92,2.31-9.9,4.54-14.7,7-5.32,2.77-10.67,5.52-16,8.22s-10.78,5.35-16.18,8C533.88,460,523,465.29,512,470.25l-0.91-1.52c9.57-7.38,19.3-14.47,29-21.57q7.31-5.31,14.68-10.52t14.82-10.28c5-3.4,9.7-7.14,14.56-10.71,2.42-1.78,4.91-3.46,7.47-5s5.21-3,7.91-4.3C601.24,405.5,602.93,404.73,604.62,404Z" transform="translate(-472.99 -150)"/><path class="cls-3" d="M612.83,346.93c-0.32.64-.62,1.29-0.9,1.92-0.16.34-.31,0.7-0.46,1a42.22,42.22,0,0,0-1.7,5.16l-0.18.81c-2,.25-3.93.47-5.88,0.64a145.64,145.64,0,0,1-17.94.33c-3-.12-5.93-0.36-8.88-0.77s-5.88-1-8.8-1.61c-5.84-1.34-11.66-2.88-17.53-4S538.84,348.17,533,347s-11.7-2.49-17.54-3.77c-11.69-2.61-23.36-5.22-35-8.15l0.18-1.79c11.92,0.11,23.81.57,35.71,1q8.93,0.37,17.84.81c5.95,0.33,11.87.71,17.8,1.09s11.89,0.4,17.85.59c3,0.11,5.94.31,8.88,0.67s5.89,0.89,8.82,1.52a151.78,151.78,0,0,1,17.42,4.92C607.58,344.79,610.2,345.8,612.83,346.93Z" transform="translate(-472.99 -150)"/><path class="cls-3" d="M568,270q6.06,6.81,12.19,13.51c4.09,4.46,7.93,9.24,11.88,13.88,2,2.3,4,4.53,6.19,6.64s4.4,4.11,6.73,6a151,151,0,0,0,14.68,10.64,114.22,114.22,0,0,0,10.67,6l0.41-.34c1.32-1.12,2.79-1.91,4.13-2.9l0.29-.22a122.8,122.8,0,0,0-7.3-12,158.22,158.22,0,0,0-11.27-14.57c-2-2.29-4.06-4.5-6.24-6.58s-4.45-4.05-6.79-5.95c-4.7-3.77-9.52-7.39-14.07-11.32s-9.15-7.82-13.76-11.7-9.27-7.68-13.93-11.49C552.45,242,543.1,234.38,533.54,227l-1.16,1.34c7.73,9.46,15.69,18.66,23.63,27.88C560,260.85,564,265.43,568,270Z" transform="translate(-472.99 -150)"/><path class="cls-3" d="M624.45,213.93q3.44,8.53,7,17c2.37,5.64,4.38,11.49,6.57,17.24,1.1,2.86,2.3,5.68,3.62,8.42s2.77,5.42,4.34,8a156,156,0,0,0,10.27,15.17,95.53,95.53,0,0,0,12.68,13.84l1.53-.86a104,104,0,0,0-3.37-19,163.56,163.56,0,0,0-5.78-17.68c-1.11-2.85-2.34-5.66-3.69-8.39s-2.84-5.38-4.41-8c-3.17-5.21-6.5-10.31-9.48-15.61s-6-10.58-9.07-15.85-6.17-10.49-9.29-15.72c-6.29-10.43-12.56-20.86-19.12-31.14l-1.53.85c4.14,11.63,8.57,23.08,13,34.55C619.92,202.52,622.16,208.24,624.45,213.93Z" transform="translate(-472.99 -150)"/><path class="cls-3" d="M680.25,294.41h0l-0.14-.47Z" transform="translate(-472.99 -150)"/><path class="cls-3" d="M676.52,279.16c0.69,3.61,1.5,7.21,2.45,10.79,0.3,1.17.64,2.33,1,3.49-1-3.37-1.82-6.75-2.56-10.13C677.09,281.93,676.8,280.55,676.52,279.16Z" transform="translate(-472.99 -150)"/><path class="cls-3" d="M680,293.57l0.11,0.38-0.15-.5Z" transform="translate(-472.99 -150)"/><path class="cls-3" d="M694.82,271.61c0,2.48-.07,5-0.16,7.49q0,0.5,0,1c-1.51,1.82-3.23,3.77-5.23,5.84l-0.2.22c-2.45,2.51-5.3,5.19-8.6,8-0.12.1-.23,0.19-0.34,0.28-0.05-.16-0.1-0.31-0.14-0.47s-0.1-.33-0.15-0.49,0,0,0-.06,0-.12-0.05-0.17-0.05-.2-0.09-0.3,0-.1,0-0.14-0.09-.3-0.12-0.45a0,0,0,0,1,0,0s0,0,0,0a0,0,0,0,1,0,0s0,0,0,0c-0.15-.49-0.28-1-0.41-1.47a0.15,0.15,0,0,1,0-.06c0-.05,0-0.11,0-0.16-0.3-1.11-.59-2.24-0.86-3.36a1.51,1.51,0,0,1,0-.2,0.27,0.27,0,0,1,0-.13c0-.1-0.05-0.18-0.08-0.28s-0.11-.46-0.17-0.7v0a1.11,1.11,0,0,1,0-.18c-0.18-.78-0.36-1.57-0.54-2.36-0.31-1.38-.6-2.76-0.88-4.15q-1.48-7.73-2.22-15.53c-0.11-1.11-.18-2.24-0.27-3.35-0.12-2.42-.19-4.84-0.18-7.27,0.05-6.2.26-12.42,0.16-18.61,0-.65,0-1.32,0-2q-0.24-10.25-.39-20.53c-0.07-6.85-.1-13.7-0.11-20.56,0.05-13.71.07-27.41,0.47-41.17l1.94-.17c2.66,13.46,4.95,27,7.27,40.44q1.69,10.12,3.29,20.26c1,6.76,2,13.53,3,20.28s2.36,13.49,3.53,20.24c0.38,2.15.67,4.32,0.94,6.47a12.38,12.38,0,0,0-1.57-.29c0.56,0.2,1.09.45,1.62,0.7,0.14,1.09.28,2.19,0.38,3.28C694.69,264.78,694.82,268.19,694.82,271.61Z" transform="translate(-472.99 -150)"/><path class="cls-3" d="M680,293.56c-1-3.4-1.84-6.82-2.6-10.24,0.75,3.38,1.59,6.76,2.56,10.13l0.15,0.5,0.14,0.47h0Z" transform="translate(-472.99 -150)"/><path class="cls-1" d="M731.06,363.84a6.63,6.63,0,0,0-.13,3.11,10.45,10.45,0,0,0,.36,1.59c1.51,5,7.06,9.59-.5,13.64,0,0,7.07,9.59-2.53,12.12a28.06,28.06,0,0,0-.93,4c-0.13.65-.23,1.39-0.31,2.16a42.78,42.78,0,0,0-.25,4.41c0,0.58,0,1.17.05,1.77a31.82,31.82,0,0,0,.42,3.79,6.94,6.94,0,0,1,0,2.87,6.51,6.51,0,0,1-1.66,3.09,10.26,10.26,0,0,1-2.65,2,18.45,18.45,0,0,1-3.65,1.38,36.79,36.79,0,0,1-9.29,1.07h-0.23c-1.33,0-2.72-.05-4.18-0.15-1.21-.09-2.45-0.19-3.73-0.34-1.07-.13-2.18-0.27-3.29-0.45-0.35,0-.71-0.11-1-0.16l-1.06-.17-1.61-.28-0.48-.07c-1.32-.2-2.63-0.38-3.93-0.56-3.84-.51-7.55-0.93-11.21-1.54a120.59,120.59,0,0,0-15.48,22.26,90.69,90.69,0,0,0-4.57,10.3c-4.06,11-6.06,23.78-2.13,36.55-0.3-.63-6.07-13.11-3.55-31.18a4.08,4.08,0,0,1,.11-0.46q0.67-3.22,1.23-6.48a76.22,76.22,0,0,1,8.67-20.77,92.88,92.88,0,0,1,8.37-11.85,43.69,43.69,0,0,1-8.36-3.34,48.48,48.48,0,0,1-13.26-10.6q-1.16-1.29-2.35-2.72a95.46,95.46,0,0,1-6.5-9.05,43.26,43.26,0,0,1-4-1.73c-4-1.94-10-5.48-13.62-10.54,0,1.09,0,4.9-1.71,11.6a101.48,101.48,0,0,1-3.44,10.78A178.51,178.51,0,0,1,607.15,424c-3.59,6.42-7.94,13.51-13.24,21.33-30.32,44.76-40.92,49.62-51.48,83.64h-1.52c0.81-9.72,5.75-32.73,31.67-67.88a278.55,278.55,0,0,0,17.31-26.41c0.6-1.05,1.18-2.08,1.75-3.11,0.67-1.21,1.33-2.4,1.95-3.58a209.57,209.57,0,0,0,10.35-22.22l0.69-1.77c0.33-.87.64-1.73,0.94-2.55,1.59-4.32,2.76-8.09,3.62-11.24,0.26-.88.47-1.68,0.66-2.47,0-.1.05-0.2,0.08-0.3a71.62,71.62,0,0,0,1.69-8.27,37.71,37.71,0,0,1-3-16.34c0-.5,0-1,0.1-1.51s0.1-1,.15-1.45c0.09-.79.21-1.6,0.35-2.42,0.11-.51.24-1.06,0.35-1.59l0.18-.81a42.22,42.22,0,0,1,1.7-5.16c0.15-.34.3-0.7,0.46-1,0.28-.63.58-1.28,0.9-1.92,0.56-1.12,1.17-2.26,1.87-3.42,0.35-.58.73-1.16,1.11-1.74,0.17-.26.35-0.51,0.54-0.77a60.94,60.94,0,0,1,8.82-10c0.26-.23.51-0.45,0.76-0.69,0.6-.53,1.2-1.05,1.82-1.58l0.31-.26,0.45-.36c0.93-.76,1.87-1.51,2.86-2.25l0.2-.15c2.09-1.56,4.34-3.11,6.8-4.65l0.17-.11c1.06-.66,2.16-1.33,3.29-2,1.69-1,3.46-2,5.32-2.94a205.33,205.33,0,0,0,20-11.86l0,0q1.38-.93,2.7-1.86c2.23-1.56,4.33-3.11,6.28-4.63l0.11-.09c1.38-1.08,2.69-2.13,3.93-3.19,0.12-.09.23-0.18,0.34-0.28,3.3-2.79,6.15-5.46,8.6-8l0.2-.22c2-2.07,3.72-4,5.23-5.84a74,74,0,0,0,5.1-6.92c0.12-.2.24-0.38,0.35-0.56a35.92,35.92,0,0,0,3.29-6.12l0.11-.21v0.05c0-.31.24-0.48,0.22-0.79a4.75,4.75,0,0,0-.34-0.39l-0.19-.22-0.27-.28c-0.3-.3-0.71-0.71-1.2-1.17l-0.26-.24-0.27-.25h0a31.28,31.28,0,0,0-7.18-4.94c-0.52-.25-1.06-0.49-1.62-0.7a12.38,12.38,0,0,1,1.57.29,25.53,25.53,0,0,1,7.61,3.29l0.61,0.41a30.06,30.06,0,0,1,8.41,8.65c1.29,2,2.58,4.11,3.83,6.34,0.1,0.18.19,0.39,0.31,0.57a127,127,0,0,1,6.26,12.9c0.14,0.32.26,0.65,0.4,1,2.82,7.06,4.87,14.26,5.37,20.63,0.71,9.27-2.1,15.53-1.12,21.78a5.87,5.87,0,0,0,.12.75,16.87,16.87,0,0,0,3.53,7.26c1.4,1.79,2.84,3.4,4.18,4.87l0.12,0.13a51.48,51.48,0,0,1,3.9,4.64,14.1,14.1,0,0,1,.91,1.48c1.71,3.32.74,6.18-6.08,9.6A3.4,3.4,0,0,0,731.06,363.84Z" transform="translate(-472.99 -150)"/><path class="cls-1" d="M525.81,566h-8.64l-0.44-25.67-10.86,25.86h-5.72l-10.29-25.86-1,25.67h-7.18l1.78-42.38h8.39L504,554.67l13-31.07h7.81Z" transform="translate(-472.99 -150)"/><path class="cls-1" d="M540.8,538v18c0,2.73,1.27,4.32,4.45,4.32a7.25,7.25,0,0,0,5-2.22V538h8.33v28h-7.88l-0.32-2.73a14.62,14.62,0,0,1-9.15,3.36c-5.46,0-8.77-3.36-8.7-8.57V538h8.32Z" transform="translate(-472.99 -150)"/><path class="cls-1" d="M573.77,538v25.93c0,4.89-.64,7.62-2.8,10.67a24.29,24.29,0,0,1-7.18,6.61L560,577.42a13.33,13.33,0,0,0,3.94-5.53,21,21,0,0,0,1.52-7.94V538h8.33Zm0.13-10.1a4.29,4.29,0,0,1-8.58,0A4.29,4.29,0,1,1,573.9,527.92Z" transform="translate(-472.99 -150)"/><path class="cls-1" d="M596.64,561.15a18.54,18.54,0,0,0,7.24-1.34l1.65,4.64c-1.9.76-4.13,2.16-11.95,2.16-8.64,0-14.55-5.52-14.55-14.49s6.67-14.74,14.3-14.74c7.11,0,13.6,4.71,13.6,15.89H587.81C587.81,557.72,590.42,561.15,596.64,561.15ZM593,542.92c-3.18,0-4.57,2.48-5,5.59H598C597.53,544.95,596.2,542.92,593,542.92Z" transform="translate(-472.99 -150)"/><path class="cls-1" d="M611.89,566V538h7.88l0.25,4.19c1-1.21,3.94-4.83,7.63-4.83a8.59,8.59,0,0,1,5,1.47l-3,5.85a7.34,7.34,0,0,0-3.62-.83c-2.42,0-4.71,2-5.78,2.86V566h-8.32Z" transform="translate(-472.99 -150)"/><path class="cls-1" d="M649.94,561.15a18.55,18.55,0,0,0,7.24-1.34l1.65,4.64c-1.9.76-4.13,2.16-11.94,2.16-8.64,0-14.55-5.52-14.55-14.49s6.67-14.74,14.3-14.74c7.11,0,13.6,4.71,13.6,15.89H641.1C641.1,557.72,643.71,561.15,649.94,561.15Zm-3.68-18.24c-3.18,0-4.57,2.48-5,5.59h10.1C650.83,544.95,649.49,542.92,646.25,542.92Z" transform="translate(-472.99 -150)"/><path class="cls-1" d="M673.07,561.41c1.59,0,3-.76,3-2.16,0-2-3-3.18-5.66-4.45s-7-3.75-7-8.7c0-5.21,4.07-8.71,10.17-8.71a20.16,20.16,0,0,1,9.34,2l-2.1,4.83a17.58,17.58,0,0,0-6.54-1.65c-1.65,0-3.3.63-3.3,2,0,1.91,2.8,2.93,5.59,4.26,2.29,1,7.31,3.75,7.31,8.45,0,5.72-5.78,9.34-11,9.34a22.33,22.33,0,0,1-10.68-2.48l2.1-5A22.38,22.38,0,0,0,673.07,561.41Z" transform="translate(-472.99 -150)"/><path class="cls-1" d="M724.84,566l-0.38-2.29a13.57,13.57,0,0,1-8.64,2.92c-7.62,0-13.09-5.14-13.09-14,0-9.47,6.48-15.19,13.47-15.19a17.43,17.43,0,0,1,8.26,1.65V521.95l8.32-.89V566h-7.94Zm-6.61-23.2c-3.24,0-6.54,2.67-6.54,9.66,0,6.74,3.31,8.45,6.54,8.45a10.94,10.94,0,0,0,6.23-2.22V544.06A13.43,13.43,0,0,0,718.24,542.79Z" transform="translate(-472.99 -150)"/><path class="cls-1" d="M755.66,561.15a18.53,18.53,0,0,0,7.24-1.34l1.65,4.64c-1.9.76-4.13,2.16-11.94,2.16-8.64,0-14.55-5.52-14.55-14.49s6.67-14.74,14.3-14.74c7.11,0,13.6,4.71,13.6,15.89H746.82C746.82,557.72,749.43,561.15,755.66,561.15ZM752,542.92c-3.18,0-4.57,2.48-5,5.59h10.1C756.54,544.95,755.21,542.92,752,542.92Z" transform="translate(-472.99 -150)"/><path class="cls-1" d="M770.9,521.95l8.39-.89V566H770.9v-44Z" transform="translate(-472.99 -150)"/><path class="cls-1" d="M813.72,560.2c3.43,0,6.54-1.65,6.54-4.58,0-3.43-3.88-5.34-8.45-8.2-4.07-2.54-9.85-5.65-9.85-13.22,0-6.61,6.16-11.44,13.28-11.44a26,26,0,0,1,12.2,2.54l-2.54,6a17.25,17.25,0,0,0-7.56-2c-3,0-6.29,1-6.29,3.75,0,3.56,4.07,5.27,8.2,8,3.88,2.55,10.49,6.61,10.49,12.71,0,8.26-7.75,13-16.14,13-7.12,0-11.18-2-12.84-3l2.54-6A22,22,0,0,0,813.72,560.2Z" transform="translate(-472.99 -150)"/><path class="cls-1" d="M866.07,552c0,9-7.5,14.61-16,14.61S834,561,834,552s7.5-14.62,16-14.62S866.07,543,866.07,552Zm-23.19,0c0,4.76,2.16,9.08,7.18,9.08,4.19,0,7.05-4.32,7.05-9.08s-2.86-9.09-7.05-9.09C845,542.92,842.88,547.17,842.88,552Z" transform="translate(-472.99 -150)"/><path class="cls-1" d="M871.34,521.95l8.39-.89V566h-8.39v-44Z" transform="translate(-472.99 -150)"/></svg>