<?xml version="1.0" encoding="utf-8"?>
<!-- Generator: Adobe Illustrator 20.0.0, SVG Export Plug-In . SVG Version: 6.00 Build 0)  -->
<svg version="1.1" xmlns="http://www.w3.org/2000/svg" xmlns:xlink="http://www.w3.org/1999/xlink" x="0px" y="0px"
	 viewBox="0 0 764.8 784.4" style="enable-background:new 0 0 764.8 784.4;" xml:space="preserve">
<style type="text/css">
	.st0{fill:#FF0000;}
	.st1{fill:#FFFF00;}
	.st2{fill:#FFFFFF;}
</style>
<g id="Layer_3">
</g>
<g id="Layer_5">
</g>
<g id="Layer_4">
	<g>
		<path d="M196,494.4c-23.8-23.8-41.6-51.2-53.5-80.5c-11.9-29.3-17.8-60.5-17.8-91.6c0-31.2,5.9-62.3,17.8-91.6
			c11.9-29.3,29.7-56.7,53.5-80.5l-10.6-10.6c-25.2,25.2-44.2,54.4-56.8,85.5c-12.6,31.1-18.9,64.2-18.9,97.3
			c0,33.1,6.3,66.1,18.9,97.3c12.6,31.1,31.6,60.3,56.8,85.5L196,494.4L196,494.4z"/>
		<path class="st0" d="M540.9,150.7c23.8,23.8,41.6,51.2,53.5,80.5c11.9,29.3,17.8,60.5,17.8,91.6c0,31.2-5.9,62.3-17.8,91.6
			c-11.9,29.3-29.7,56.7-53.5,80.5l10.6,10.6c25.2-25.2,44.2-54.4,56.8-85.5c12.6-31.1,18.9-64.2,18.9-97.3
			c0-33.1-6.3-66.1-18.9-97.3c-12.6-31.1-31.6-60.3-56.8-85.5L540.9,150.7L540.9,150.7z"/>
		<path class="st1" d="M540.9,495c-23.8,23.8-51.2,41.6-80.5,53.5c-29.3,11.9-60.5,17.8-91.6,17.8c-31.2,0-62.3-5.9-91.6-17.8
			c-29.3-11.9-56.7-29.7-80.5-53.5l-10.6,10.6c25.2,25.2,54.4,44.2,85.5,56.8c31.1,12.6,64.2,18.9,97.3,18.9
			c33.1,0,66.1-6.3,97.3-18.9c31.1-12.6,60.3-31.6,85.5-56.8L540.9,495L540.9,495z"/>
	</g>
</g>
<g id="Layer_2">
	<g>
		<path d="M223.1,709l-52.4,70.5L115,709h108 M229.2,706H108.8l62.1,78.4L229.2,706z"/>
	</g>
	<polygon points="345.6,688.9 314.3,728.4 309.6,724.7 338,688.9 	"/>
	<g>
		<path d="M535,726.9L535,726.9L535,726.9L535,726.9z M535.4,726.9l-0.3,0.1h0.4L535.4,726.9z"/>
		<polygon points="631,761.9 631,765.9 531,765.9 531,689.9 630,689.9 630,692.9 536.5,692.9 564.7,724.9 619,724.9 619,726.9 
			535.5,726.9 535.4,726.9 535.1,726.9 535,726.9 535,727 535.4,726.9 535.5,727.1 562.9,761.9 		"/>
		<polygon points="535.1,726.9 535,726.9 535,726.9 		"/>
	</g>
	<g>
		<path d="M408.1,7.7h-55.5v75.5h-4.5V7.7h-55.6V3.4h115.5V7.7z"/>
	</g>
	<g>
		<path d="M440.7,83.2h-4.5V23.3h4.5V83.2z"/>
	</g>
	<g>
		<polygon points="743,79.9 743,82.9 638,82.9 638,3.9 742,3.9 742,6.9 669.9,6.9 642.6,40.9 731,40.9 731,42.9 671.6,42.9 
			643,79.9 642.9,79.9 		"/>
	</g>
	<path d="M485.1,3.4"/>
	<g>
		<path d="M212.6,3.4L209.7,0l-2.9,3.4l-65.3,79.7l5.4,0l21.2-26.2h14.5l-8.2,10H244l-8-10h13.9l20.7,26.2l4.9,0L212.6,3.4z
			 M233.1,52.9l-23.4-29.3l-24.1,29.3h-14.6l38.8-46.9l37.5,46.9H233.1z"/>
	</g>
	<g>
		<path d="M121,2.9v80h-6.7L4,6v77H0v-79h6.5c12.1,8,30.6,21.5,55.3,38.3C86.4,59.1,105,71.7,117,80.5v-7.7L16.9,2.9h5.3L117,69.2
			v-7.4L32.7,2.9H38l79,55.2v-7.4L48.5,2.9h5.3L117,47v-7.4L64.3,2.9h5.3l47.5,33v-7.4L80.1,2.9h5.3L117,24.8v-7.4L95.9,2.9h5.3
			L117,13.8V6.4l-5.3-3.4h5.3h0.7H121z"/>
	</g>
	<g>
		<polygon points="551.4,80.9 551,81.5 550.5,80.9 		"/>
		<path d="M550.5,80.9l0.5,0.5l0.4-0.5H550.5z"/>
		<path d="M615.5,83.9l-33.9-40.5l31.9-39.5h-129l33.9,39.5l-31.9,40.5H615.5z M520.3,45.6l30.3,35.3h0.9l28.4-35.2l29.4,35.2h-57.8
			l-0.4,0.5l-0.5-0.5h-58L520.3,45.6z"/>
	</g>
	<polygon points="125.4,757.4 137.3,741.8 148.7,757.1 	"/>
	<polygon points="191.4,757.4 203.3,741.8 214.7,757.1 	"/>
	<polygon points="159.4,708.4 171.3,692.8 182.7,708.1 	"/>
	<g>
		<polygon points="351,688.9 351,768.9 272,768.9 272,689.9 139.7,560.1 134.5,566.7 129.1,551.8 122,575.9 80.3,498.7 154.6,536.8 
			135.7,546.1 147.4,550.4 143.4,555.5 279.5,688.9 338,688.9 309.6,724.7 314.3,728.4 345.6,688.9 		"/>
	</g>
	<polygon points="502,689.9 502,693.9 479.9,693.9 479.4,694.4 450,723.8 450,765.9 446,765.9 446,693.9 393,693.9 393,689.9 	"/>
	<polygon points="337.3,46.1 337.3,16.8 308,16.8 	"/>
	<g>
		<polygon points="354,229.1 327.8,213.6 328,213.6 328,235.9 354,235.9 		"/>
		<polygon points="356,230.3 356,235.9 364.4,235.9 		"/>
		<polygon points="353.7,226.9 354,226.9 354,178.9 328,178.9 328,211.3 327.7,211.3 		"/>
		<polygon points="411,212.9 410.5,213.1 384,228.2 384,235.9 411,235.9 		"/>
		<polygon points="411,210.7 411,178.9 384,178.9 384,225.9 410.5,210.8 		"/>
		<polygon points="371.7,235.9 382,235.9 382,229.3 382.1,229.6 		"/>
		<polygon points="325,178.9 272.1,178.9 325,210.2 		"/>
		<polygon points="327.5,280.3 328,280 328,293.9 363.6,293.9 		"/>
		<polygon points="325,277.3 325,237.9 269,237.9 269,256.9 269.4,257 		"/>
		<polygon points="411,280.1 374.7,293.9 411,293.9 		"/>
		<polygon points="368.9,293.9 369,293.9 411,278 411,237.9 368.3,237.9 368,238.1 367.7,237.9 328,237.9 328,278 327.5,278.3 		"/>
		<polygon points="414,178.9 414,209.5 465.9,178.9 		"/>
		<polygon points="325,279.4 269.4,259.1 269,259 269,293.9 325,293.9 		"/>
		<polygon points="525,295.9 470,295.9 470,322 525,305.9 		"/>
		<polygon points="528,341 528,341 528,350.9 562.2,350.9 		"/>
		<polygon points="561.7,295.7 527.6,295.9 528,295.9 528,305.3 528,305.4 		"/>
		<polygon points="470,237.9 470,256.1 521.1,237.9 		"/>
		<polygon points="212,306.4 268,322 268,295.9 212,295.9 		"/>
		<polygon points="212,350.9 268,350.9 268,324.4 212,340.1 		"/>
		<polygon points="211,350.9 211,340.6 174.2,350.9 		"/>
		<polygon points="325,466.9 325,436.4 271.9,466.9 		"/>
		<polygon points="211,305.8 211,295.3 174.3,295.3 		"/>
		<polygon points="216.6,407.9 268,407.9 268,390 267.6,389.8 		"/>
		<polygon points="525,340.4 470,324.7 470,350.9 525,350.9 		"/>
		<polygon points="269,295.9 269,321.8 362.3,295.9 		"/>
		<polygon points="372.6,410.4 382,416.5 382,409.9 372.8,409.9 		"/>
		<polygon points="365,410.4 365.2,409.9 356,409.9 356,416.4 355.7,416.2 		"/>
		<polygon points="384,417.6 410.5,433 411,433.1 411,409.9 384,409.9 		"/>
		<polygon points="384,419.9 384,466.9 411,466.9 411,435.3 410.5,435.2 		"/>
		<polygon points="414,466.9 465.6,466.9 414,436.5 		"/>
		<polygon points="413.6,279.3 414,279.3 414,293.9 468,293.9 468,258.9 468.4,259 		"/>
		<polygon points="414,277.2 413.6,277.2 468.4,256.9 468,256.8 468,237.9 414,237.9 		"/>
		<polygon points="470,407.9 521.1,407.9 470,390.2 		"/>
		<polygon points="468,322 468,295.9 375.9,295.9 		"/>
		<polygon points="414,367.1 468,387.4 468,352.9 414,352.9 		"/>
		<polygon points="414,407.9 468,407.9 468,389.5 414,369.1 		"/>
		<polygon points="375.8,350.9 375.6,350.9 468,350.9 468,324.6 467.9,324.6 		"/>
		<polygon points="328,368.5 328,407.9 368.4,407.9 368.5,408.3 368.5,408.5 369,407.9 369.4,407.9 411,407.9 411,368.4 369.6,353 
					"/>
		<polygon points="268,256.2 268,237.9 216.6,237.9 		"/>
		<polygon points="269,387.5 269.2,387.4 324.8,367.1 325,367.1 325,352.9 269,352.9 		"/>
		<polygon points="269,389.2 269,407.9 325,407.9 325,369.1 324.7,369 		"/>
		<polygon points="328,433 354,417.6 354,409.9 328,409.9 		"/>
		<polygon points="269,324.7 269,350.9 361.7,350.9 		"/>
		<polygon points="328,466.9 354,466.9 354,419.8 328,435.2 		"/>
		<polygon class="st2" points="211,293.9 211,293.4 267.3,293.9 		"/>
		<polygon class="st2" points="368.3,237.6 367.7,237.6 368,237.8 		"/>
		<polygon class="st2" points="369,293.4 369,293.4 368.9,293.4 		"/>
		<polygon class="st2" points="368.7,295.3 368.8,295.3 368.7,295.3 		"/>
		<polygon class="st2" points="368.9,295.3 368.9,295.3 369,295.3 		"/>
		<polygon class="st2" points="369.1,295.3 369.2,295.3 369.2,295.3 		"/>
		<polygon class="st2" points="368.5,408.7 369.4,408.7 369,408.4 		"/>
		<polygon class="st2" points="368.8,351 369.1,351 369,351 		"/>
		<path class="st2" d="M527.9,339L527.9,339l0.1-31.5l0-0.1l47.3-13.6l-47.6,0.1H470v-35.7l62.2-22.3H414v-24.1l59.2-34.9H265
			l60,35.5v23.5H205.6l62.4,22.3v35.1l-57,0l-50.2,0l50.2,14.4v30.9l-50.8,14.3H268v35.2l-62.4,21.8H325v24.2l-60.3,34.8h208.2
			L414,434.2v-24.3h118.2L470,388.2v-35.2h106 M528,295.9h-0.4l34.1-0.2l-33.7,9.7l0-0.1V295.9z M470,237.9h51.1L470,256.1V237.9z
			 M525,338.4l-51.8-15l-0.1,0l52-15.2V338.4z M528,341L528,341l34.2,9.9H528V341z M470,295.9h55v10l-55,16V295.9z M470,324.7
			l55,15.8v10.5h-55V324.7z M414,178.9h51.9L414,209.5V178.9z M211,350.9h-36.8l36.8-10.3V350.9z M211,305.8l-36.7-10.5l36.7,0
			V305.8z M268,407.9h-51.4l51-18.1l0.4,0.2V407.9z M212,308.3l52.1,14.9L212,338V308.3z M268,350.9h-56v-10.9l56-15.6V350.9z
			 M268,322l-56-15.7v-10.4h56V322z M325,466.9h-53.1l53.1-30.6V466.9z M384,178.9h27v31.7l-0.5,0.1L384,225.9V178.9z M384,228.2
			l26.5-15.1l0.5-0.1v23h-27V228.2z M356,178.9h26V227l0.1,0.1l-13.9,8.4L356,228V178.9z M328,178.9h26v47.9l-0.3,0l-26-15.5l0.3,0
			V178.9z M328,213.6l-0.2,0l26.2,15.5v6.8h-26V213.6z M328,237.9h39.7h0.5H411v40l-42,15.4l0,0l0,0L327.5,278l0.5,0V237.9z
			 M369,295.4l97.5,28l-0.1,0.2l-0.8,0.4h0l-95.8,27h-0.6h-0.3H368l-96.4-27h0l-0.7-0.4L369,295.4z M368.7,295.3L368.7,295.3
			L368.7,295.3L368.7,295.3z M368.9,295.3L368.9,295.3L368.9,295.3L368.9,295.3z M369.1,295.3L369.1,295.3L369.1,295.3L369.1,295.3z
			 M272.1,178.9H325v31.2L272.1,178.9z M269,237.9h56v39.3L269.4,257l-0.4-0.1V237.9z M269,259l0.4,0.1l55.6,20.3v14.6h-56V259z
			 M269,295.9h93.3L269,321.8V295.9z M269,324.7l92.7,26.2H269V324.7z M363.5,352.9L328,366.4v-13.5H363.5z M268,256.2l-51.4-18.2
			H268V256.2z M325,407.9h-56v-18.8l55.7-20.1l0.3,0V407.9z M325,367.1l-0.1,0l-55.7,20.3l-0.2,0v-34.5h56V367.1z M354,466.9h-26
			v-31.7l26-15.4V466.9z M354,417.6L328,433v-23h26V417.6z M382,466.9h-26v-48.2l-0.3,0l13.4-7.9l0,0l-0.3,0l13.2,8V466.9z
			 M411,466.9h-27v-47.1l26.5,15.3l0.5,0.1V466.9z M411,433.1l-0.5-0.1L384,417.6v-7.7h27V433.1z M411,407.9h-41.6h-0.9h-0.1H328
			v-39.4l41.6-15.5l41.4,15.4V407.9z M411,366.3l-36.5-13.4H411V366.3z M465.6,466.9H414v-30.4L465.6,466.9z M468,407.9h-54v-38.8
			l54,20.4V407.9z M468,387.4l-54-20.4v-14.1h54V387.4z M468,350.9h-92.4l0.2,0l92.1-26.4l0.1,0.1V350.9z M468,322l-92.1-26H468V322
			z M468,293.9h-54v-14.6l-0.4,0l54.9-20.3l-0.4-0.1V293.9z M468,256.8l0.2,0.1l-54.8,20.3l0.6,0v-39.3h54V256.8z M521.1,407.9H470
			v-17.7L521.1,407.9z"/>
		<polygon class="st2" points="368.4,408.7 368.5,408.7 368.5,408.7 		"/>
		<polygon points="382.1,198.4 382,198.3 382,149.9 356,149.9 356,199.3 368.2,206.8 		"/>
		<polygon points="369,439.4 368.9,439.5 355.7,447.4 356,447.4 356,495.9 382,495.9 382,447.5 368.7,439.5 		"/>
		<path d="M512.1,323.4l37.9,10.9c7,2,14-3.2,14-10.5v-1c0-7.3-7-12.6-14.1-10.5L512.1,323.4L512.1,323.4z"/>
		<path d="M225.8,323.4l-37.9,10.9c-7,2-14-3.2-14-10.5v-1c0-7.3,7-12.6,14.1-10.5L225.8,323.4L225.8,323.4z"/>
	</g>
	<path d="M764.8,214.1c0,0-5.9,8.8-7.9,11.9c-2,3.1-19.8,4.5-19.8,4.5c9,1.8,15,0.7,15,0.7L732,258.6c-7.5,1.5-41.5-4.7-41.5-4.7
		c3.9,4.3,34.2,9,34.2,9c-14.1,2.5-39.2-4.5-39.9-4.7c4.4,4.3,22.5,7,22.5,7c-9,1.1-18.5-1.3-23.7-3L345.6,688.9l-31.3,39.5
		l-4.7-3.7l28.3-35.8l341.4-431.2l0.3,0.2c-2.8-4.7-7.2-13.2-8.2-22.1c0,0,6.7,17,11.9,20.3c0,0-12.9-23.3-13.7-37.8
		c0,0,11.5,28.5,16.5,31.3c0,0-13.8-31.7-14-39.4l22-25.9c0,0,0.3,6.1,4.1,14.5c0,0-2.7-17.7-0.1-20.3c2.6-2.6,9.8-10.4,9.8-10.4
		l13.5,39.2l-21.8,30.1l23.9-27.6L764.8,214.1z"/>
	<g>
		<path d="M223.1,692.9l-52.4,70.5L115,692.9h108 M229.2,689.9H108.8l62.1,78.4L229.2,689.9z"/>
	</g>
	<g>
		<path class="st2" d="M317.2,724.2c0.3,0.7,0.5,1.5,0.5,2.3c0,3.1-2.5,5.7-5.7,5.7c-3.1,0-5.7-2.5-5.7-5.7s2.5-5.7,5.7-5.7
			c0.3,0,0.7,0,1,0.1l25.4-32h6.8L317.2,724.2z"/>
	</g>
	<circle cx="438.4" cy="9" r="5.7"/>
	<circle cx="369.5" cy="321.8" r="5.7"/>
</g>
</svg>
